<svg width="335" height="134" viewBox="0 0 335 134" fill="none" xmlns="http://www.w3.org/2000/svg">
<rect y="12" width="335" height="122" rx="12" fill="url(#paint0_linear_3961_394)" fill-opacity="0.8"/>
<rect x="0.5" y="12.5" width="334" height="121" rx="11.5" stroke="#FF782F" stroke-opacity="0.4"/>
<path d="M34.1168 63.4302H45.7228V64.4382H34.1168V63.4302ZM33.5988 68.4282H46.1568V69.4362H33.5988V68.4282ZM41.9568 63.9622H43.0348V75.4142H41.9568V63.9622ZM36.9728 63.9482H38.0368V67.8262C38.0368 68.5075 37.9995 69.1935 37.9248 69.8842C37.8502 70.5748 37.6915 71.2515 37.4488 71.9142C37.2155 72.5675 36.8608 73.1975 36.3848 73.8042C35.9088 74.4015 35.2695 74.9522 34.4668 75.4562C34.4015 75.3628 34.3222 75.2695 34.2288 75.1762C34.1355 75.0828 34.0328 74.9895 33.9208 74.8962C33.8182 74.8028 33.7202 74.7282 33.6268 74.6722C34.3828 74.2055 34.9848 73.7015 35.4328 73.1602C35.8808 72.6188 36.2122 72.0542 36.4268 71.4662C36.6508 70.8782 36.7955 70.2762 36.8608 69.6602C36.9355 69.0442 36.9728 68.4328 36.9728 67.8262V63.9482ZM54.2628 73.8182H59.1628V74.7842H54.2628V73.8182ZM53.7308 69.7162H59.7088V75.3582H58.6588V70.6822H54.7388V75.4142H53.7308V69.7162ZM52.7648 67.3782C53.3248 67.3408 53.9688 67.3035 54.6968 67.2662C55.4342 67.2288 56.2135 67.1868 57.0348 67.1402C57.8655 67.0842 58.6962 67.0282 59.5268 66.9722L59.5128 67.9242C58.7195 67.9802 57.9262 68.0408 57.1328 68.1062C56.3395 68.1715 55.5788 68.2275 54.8508 68.2742C54.1322 68.3208 53.4788 68.3675 52.8908 68.4142L52.7648 67.3782ZM57.4128 65.1102L58.2528 64.6902C58.5702 65.0728 58.8782 65.4928 59.1768 65.9502C59.4755 66.3982 59.7462 66.8415 59.9888 67.2802C60.2315 67.7095 60.4088 68.0968 60.5208 68.4422L59.6108 68.9462C59.4988 68.6008 59.3262 68.2042 59.0928 67.7562C58.8595 67.3082 58.5982 66.8555 58.3088 66.3982C58.0195 65.9408 57.7208 65.5115 57.4128 65.1102ZM55.4948 62.5062L56.6568 62.7582C56.4608 63.3182 56.2462 63.9155 56.0128 64.5502C55.7888 65.1848 55.5555 65.7962 55.3128 66.3842C55.0702 66.9722 54.8368 67.4902 54.6128 67.9382L53.7308 67.6862C53.8895 67.3408 54.0528 66.9535 54.2208 66.5242C54.3888 66.0948 54.5475 65.6468 54.6968 65.1802C54.8555 64.7042 55.0048 64.2422 55.1448 63.7942C55.2848 63.3368 55.4015 62.9075 55.4948 62.5062ZM47.4868 65.4182H52.1068V66.3982H47.4868V65.4182ZM49.6148 62.5062L50.6088 62.6322C50.4688 63.3228 50.3102 64.0695 50.1328 64.8722C49.9555 65.6655 49.7688 66.4635 49.5728 67.2662C49.3862 68.0688 49.1995 68.8388 49.0128 69.5762C48.8262 70.3042 48.6535 70.9575 48.4948 71.5362L47.6128 71.0742C47.7715 70.5422 47.9395 69.9262 48.1168 69.2262C48.3035 68.5168 48.4855 67.7702 48.6628 66.9862C48.8402 66.2022 49.0128 65.4275 49.1808 64.6622C49.3488 63.8875 49.4935 63.1688 49.6148 62.5062ZM48.1868 70.6402L48.7608 69.9122C49.2835 70.2015 49.8202 70.5328 50.3708 70.9062C50.9308 71.2795 51.4442 71.6622 51.9108 72.0542C52.3775 72.4462 52.7508 72.8195 53.0308 73.1742L52.4008 74.0142C52.1208 73.6688 51.7475 73.2955 51.2808 72.8942C50.8235 72.4835 50.3242 72.0822 49.7828 71.6902C49.2415 71.2888 48.7095 70.9388 48.1868 70.6402ZM51.7008 65.4182H51.8828L52.0648 65.3762L52.6948 65.5162C52.5735 67.3175 52.3215 68.8668 51.9388 70.1642C51.5562 71.4522 51.0568 72.5255 50.4408 73.3842C49.8248 74.2428 49.0828 74.9288 48.2148 75.4422C48.1402 75.3115 48.0375 75.1622 47.9068 74.9942C47.7855 74.8262 47.6688 74.6908 47.5568 74.5882C48.3408 74.1775 49.0175 73.5755 49.5868 72.7822C50.1655 71.9795 50.6322 70.9855 50.9868 69.8002C51.3508 68.6055 51.5888 67.2148 51.7008 65.6282V65.4182ZM62.5228 63.6962H66.3868V72.7962H62.5228V71.8442H65.4068V64.6482H62.5228V63.6962ZM62.5648 67.7142H65.7708V68.6522H62.5648V67.7142ZM62.0048 63.6962H63.0128V73.9302H62.0048V63.6962ZM67.0308 65.3202H74.3388V66.3702H67.0308V65.3202ZM71.5668 62.5902H72.6308V73.8182C72.6308 74.2008 72.5748 74.4808 72.4628 74.6582C72.3602 74.8448 72.1828 74.9802 71.9308 75.0642C71.6788 75.1575 71.3242 75.2135 70.8668 75.2322C70.4095 75.2508 69.8308 75.2602 69.1308 75.2602C69.1028 75.1108 69.0515 74.9288 68.9768 74.7142C68.9022 74.5088 68.8228 74.3315 68.7388 74.1822C69.1122 74.1915 69.4622 74.2008 69.7888 74.2102C70.1248 74.2195 70.4142 74.2242 70.6568 74.2242C70.8995 74.2148 71.0722 74.2055 71.1748 74.1962C71.3148 74.1962 71.4128 74.1682 71.4688 74.1122C71.5342 74.0562 71.5668 73.9582 71.5668 73.8182V62.5902ZM67.5068 67.9522L68.3748 67.4902C68.6268 67.8448 68.8928 68.2275 69.1728 68.6382C69.4528 69.0488 69.7142 69.4455 69.9568 69.8282C70.2088 70.2108 70.4142 70.5468 70.5728 70.8362L69.6488 71.3682C69.4995 71.0788 69.3035 70.7382 69.0608 70.3462C68.8275 69.9448 68.5708 69.5342 68.2908 69.1142C68.0202 68.6942 67.7588 68.3068 67.5068 67.9522ZM76.1448 65.6702H77.2228V75.4002H76.1448V65.6702ZM76.3548 63.2062L77.1668 62.7022C77.3908 62.8982 77.6148 63.1175 77.8388 63.3602C78.0628 63.5935 78.2728 63.8268 78.4688 64.0602C78.6648 64.2935 78.8142 64.5082 78.9168 64.7042L78.0488 65.2642C77.9368 65.0775 77.7875 64.8628 77.6008 64.6202C77.4235 64.3775 77.2228 64.1348 76.9988 63.8922C76.7842 63.6402 76.5695 63.4115 76.3548 63.2062ZM79.7988 63.3042H87.1628V64.2982H79.7988V63.3042ZM86.5748 63.3042H87.6528V74.1262C87.6528 74.4155 87.6155 74.6348 87.5408 74.7842C87.4755 74.9428 87.3495 75.0688 87.1628 75.1622C86.9762 75.2462 86.7288 75.2928 86.4208 75.3022C86.1222 75.3208 85.7582 75.3302 85.3288 75.3302C85.3008 75.1995 85.2542 75.0362 85.1888 74.8402C85.1328 74.6535 85.0675 74.4948 84.9928 74.3642C85.2915 74.3735 85.5668 74.3782 85.8188 74.3782C86.0708 74.3782 86.2435 74.3782 86.3368 74.3782C86.4302 74.3688 86.4908 74.3455 86.5188 74.3082C86.5562 74.2708 86.5748 74.2102 86.5748 74.1262V63.3042ZM80.1768 70.1502V72.0402H83.5368V70.1502H80.1768ZM80.1768 67.4062V69.2682H83.5368V67.4062H80.1768ZM79.2248 66.5242H84.5308V72.9082H79.2248V66.5242ZM95.8708 66.6642C95.5908 66.6642 95.3435 66.5708 95.1288 66.3842C94.9142 66.1882 94.8068 65.9315 94.8068 65.6142C94.8068 65.2968 94.9142 65.0448 95.1288 64.8582C95.3435 64.6622 95.5908 64.5642 95.8708 64.5642C96.1508 64.5642 96.3982 64.6622 96.6128 64.8582C96.8275 65.0448 96.9348 65.2968 96.9348 65.6142C96.9348 65.9315 96.8275 66.1882 96.6128 66.3842C96.3982 66.5708 96.1508 66.6642 95.8708 66.6642ZM95.8708 73.5242C95.5908 73.5242 95.3435 73.4308 95.1288 73.2442C94.9142 73.0482 94.8068 72.7915 94.8068 72.4742C94.8068 72.1475 94.9142 71.8908 95.1288 71.7042C95.3435 71.5082 95.5908 71.4102 95.8708 71.4102C96.1508 71.4102 96.3982 71.5082 96.6128 71.7042C96.8275 71.8908 96.9348 72.1475 96.9348 72.4742C96.9348 72.7915 96.8275 73.0482 96.6128 73.2442C96.3982 73.4308 96.1508 73.5242 95.8708 73.5242ZM104.004 74.2802V73.599L107.33 69.8604C107.765 69.3699 108.114 68.9506 108.379 68.6026C108.644 68.2546 108.837 67.9331 108.956 67.6381C109.079 67.3431 109.14 67.0365 109.14 66.7184C109.14 66.3306 109.049 65.9925 108.867 65.7042C108.688 65.4125 108.441 65.1855 108.126 65.023C107.811 64.8606 107.456 64.7794 107.062 64.7794C106.644 64.7794 106.278 64.8689 105.963 65.0479C105.652 65.2269 105.41 65.4721 105.237 65.7837C105.065 66.0953 104.979 66.4532 104.979 66.8576H104.089C104.089 66.2941 104.218 65.7953 104.477 65.3611C104.738 64.9236 105.095 64.5806 105.546 64.332C106 64.0834 106.513 63.9591 107.087 63.9591C107.653 63.9591 108.157 64.0818 108.598 64.327C109.039 64.569 109.385 64.8988 109.637 65.3164C109.889 65.734 110.015 66.2013 110.015 66.7184C110.015 67.0929 109.949 67.4558 109.816 67.8071C109.687 68.1585 109.463 68.5496 109.145 68.9804C108.827 69.4113 108.386 69.9383 107.823 70.5614L105.297 73.3803V73.4449H110.333V74.2802H104.004ZM115.711 74.4194C114.995 74.4194 114.384 74.2139 113.877 73.8029C113.373 73.3886 112.985 72.7903 112.713 72.0081C112.445 71.2259 112.311 70.2863 112.311 69.1892C112.311 68.0955 112.445 67.1592 112.713 66.3803C112.985 65.5981 113.375 64.9998 113.882 64.5855C114.392 64.1679 115.002 63.9591 115.711 63.9591C116.42 63.9591 117.029 64.1679 117.536 64.5855C118.046 64.9998 118.436 65.5981 118.704 66.3803C118.976 67.1592 119.112 68.0955 119.112 69.1892C119.112 70.2863 118.976 71.2259 118.704 72.0081C118.436 72.7903 118.048 73.3886 117.541 73.8029C117.037 74.2139 116.427 74.4194 115.711 74.4194ZM115.711 73.5841C116.497 73.5841 117.11 73.2013 117.551 72.4357C117.991 71.6668 118.212 70.5846 118.212 69.1892C118.212 68.2612 118.111 67.4691 117.909 66.8128C117.71 66.1533 117.423 65.6495 117.049 65.3015C116.677 64.9534 116.232 64.7794 115.711 64.7794C114.932 64.7794 114.321 65.1672 113.877 65.9428C113.433 66.715 113.21 67.7972 113.21 69.1892C113.21 70.1173 113.31 70.9094 113.509 71.5657C113.711 72.2219 113.998 72.7224 114.369 73.0671C114.743 73.4118 115.191 73.5841 115.711 73.5841ZM121.135 74.2802V73.599L124.461 69.8604C124.895 69.3699 125.245 68.9506 125.51 68.6026C125.775 68.2546 125.968 67.9331 126.087 67.6381C126.21 67.3431 126.271 67.0365 126.271 66.7184C126.271 66.3306 126.18 65.9925 125.997 65.7042C125.818 65.4125 125.572 65.1855 125.257 65.023C124.942 64.8606 124.587 64.7794 124.193 64.7794C123.775 64.7794 123.409 64.8689 123.094 65.0479C122.782 65.2269 122.541 65.4721 122.368 65.7837C122.196 66.0953 122.11 66.4532 122.11 66.8576H121.22C121.22 66.2941 121.349 65.7953 121.608 65.3611C121.869 64.9236 122.226 64.5806 122.676 64.332C123.13 64.0834 123.644 63.9591 124.218 63.9591C124.784 63.9591 125.288 64.0818 125.729 64.327C126.17 64.569 126.516 64.8988 126.768 65.3164C127.02 65.734 127.146 66.2013 127.146 66.7184C127.146 67.0929 127.08 67.4558 126.947 67.8071C126.818 68.1585 126.594 68.5496 126.276 68.9804C125.958 69.4113 125.517 69.9383 124.953 70.5614L122.428 73.3803V73.4449H127.464V74.2802H121.135ZM132.658 74.4194C132.091 74.4194 131.584 74.305 131.137 74.0763C130.693 73.8443 130.338 73.5261 130.073 73.1218C129.811 72.7174 129.672 72.2551 129.655 71.7347H130.555C130.585 72.2749 130.797 72.7191 131.191 73.0671C131.586 73.4118 132.075 73.5841 132.658 73.5841C133.112 73.5841 133.517 73.4764 133.871 73.261C134.226 73.0422 134.503 72.7439 134.701 72.3661C134.904 71.9849 135.005 71.5557 135.005 71.0784C135.001 70.5813 134.894 70.1438 134.682 69.7659C134.469 69.3848 134.181 69.0865 133.816 68.8711C133.455 68.6556 133.049 68.5479 132.598 68.5479C132.257 68.5446 131.922 68.6009 131.594 68.7169C131.266 68.8329 130.993 68.9821 130.774 69.1644L129.844 69.0451L130.456 64.0983H135.487V64.9336H131.236L130.829 68.3391H130.878C131.104 68.1502 131.377 67.9961 131.699 67.8767C132.023 67.7574 132.366 67.6978 132.728 67.6978C133.328 67.6978 133.866 67.8419 134.343 68.1303C134.824 68.4186 135.204 68.8164 135.482 69.3235C135.764 69.8273 135.905 70.4073 135.905 71.0635C135.905 71.7065 135.764 72.2816 135.482 72.7887C135.204 73.2925 134.819 73.6902 134.329 73.9819C133.841 74.2735 133.285 74.4194 132.658 74.4194ZM141.361 63.6211L138.08 75.8114H137.249L140.531 63.6211H141.361ZM146.022 74.4194C145.306 74.4194 144.694 74.2139 144.187 73.8029C143.683 73.3886 143.296 72.7903 143.024 72.0081C142.755 71.2259 142.621 70.2863 142.621 69.1892C142.621 68.0955 142.755 67.1592 143.024 66.3803C143.296 65.5981 143.685 64.9998 144.192 64.5855C144.703 64.1679 145.312 63.9591 146.022 63.9591C146.731 63.9591 147.339 64.1679 147.846 64.5855C148.357 64.9998 148.746 65.5981 149.015 66.3803C149.286 67.1592 149.422 68.0955 149.422 69.1892C149.422 70.2863 149.286 71.2259 149.015 72.0081C148.746 72.7903 148.358 73.3886 147.851 73.8029C147.348 74.2139 146.738 74.4194 146.022 74.4194ZM146.022 73.5841C146.807 73.5841 147.42 73.2013 147.861 72.4357C148.302 71.6668 148.522 70.5846 148.522 69.1892C148.522 68.2612 148.421 67.4691 148.219 66.8128C148.02 66.1533 147.734 65.6495 147.359 65.3015C146.988 64.9534 146.542 64.7794 146.022 64.7794C145.243 64.7794 144.631 65.1672 144.187 65.9428C143.743 66.715 143.521 67.7972 143.521 69.1892C143.521 70.1173 143.62 70.9094 143.819 71.5657C144.022 72.2219 144.308 72.7224 144.679 73.0671C145.054 73.4118 145.501 73.5841 146.022 73.5841ZM154.652 74.4194C154.231 74.416 153.821 74.3315 153.419 74.1658C153.018 73.9968 152.657 73.7266 152.336 73.3554C152.014 72.9809 151.759 72.4871 151.57 71.8739C151.381 71.2607 151.287 70.5067 151.287 69.6118C151.287 68.7832 151.36 68.0242 151.505 67.3348C151.651 66.6454 151.87 66.0489 152.162 65.5451C152.453 65.0413 152.818 64.6518 153.255 64.3767C153.693 64.0983 154.205 63.9591 154.792 63.9591C155.342 63.9591 155.827 64.0735 156.248 64.3022C156.669 64.5275 157.011 64.8424 157.272 65.2468C157.534 65.6511 157.698 66.1168 157.765 66.6438H156.85C156.757 66.1069 156.537 65.6644 156.189 65.3164C155.841 64.9684 155.375 64.7944 154.792 64.7944C153.956 64.7944 153.31 65.1821 152.853 65.9577C152.395 66.73 152.165 67.827 152.162 69.2489H152.226C152.389 68.9473 152.598 68.6871 152.853 68.4684C153.111 68.2463 153.405 68.0739 153.733 67.9513C154.061 67.8254 154.406 67.7624 154.767 67.7624C155.334 67.7624 155.852 67.9066 156.323 68.1949C156.794 68.48 157.17 68.8727 157.451 69.3732C157.733 69.8704 157.874 70.4388 157.874 71.0784C157.874 71.685 157.74 72.2435 157.471 72.7539C157.206 73.2643 156.832 73.6703 156.348 73.9719C155.867 74.2735 155.302 74.4227 154.652 74.4194ZM154.652 73.5841C155.097 73.5841 155.493 73.4714 155.841 73.2461C156.192 73.0207 156.469 72.7191 156.671 72.3412C156.873 71.9601 156.974 71.5391 156.974 71.0784C156.974 70.6177 156.873 70.2001 156.671 69.8256C156.469 69.4511 156.192 69.1528 155.841 68.9307C155.493 68.7087 155.097 68.5976 154.652 68.5976C154.314 68.5976 153.999 68.6672 153.708 68.8064C153.416 68.9423 153.163 69.1296 152.947 69.3682C152.735 69.6035 152.573 69.8737 152.46 70.1786C152.351 70.4835 152.309 70.8034 152.336 71.1381C152.372 71.6054 152.493 72.0247 152.699 72.3959C152.907 72.7638 153.179 73.0538 153.514 73.2659C153.852 73.4781 154.231 73.5841 154.652 73.5841ZM163.318 63.6211L160.037 75.8114H159.206L162.488 63.6211H163.318ZM164.817 74.2802V73.599L168.143 69.8604C168.577 69.3699 168.927 68.9506 169.192 68.6026C169.457 68.2546 169.649 67.9331 169.769 67.6381C169.891 67.3431 169.952 67.0365 169.952 66.7184C169.952 66.3306 169.861 65.9925 169.679 65.7042C169.5 65.4125 169.253 65.1855 168.938 65.023C168.623 64.8606 168.269 64.7794 167.874 64.7794C167.457 64.7794 167.091 64.8689 166.776 65.0479C166.464 65.2269 166.222 65.4721 166.05 65.7837C165.877 66.0953 165.791 66.4532 165.791 66.8576H164.901C164.901 66.2941 165.031 65.7953 165.289 65.3611C165.551 64.9236 165.907 64.5806 166.358 64.332C166.812 64.0834 167.326 63.9591 167.899 63.9591C168.466 63.9591 168.97 64.0818 169.411 64.327C169.851 64.569 170.198 64.8988 170.45 65.3164C170.702 65.734 170.827 66.2013 170.827 66.7184C170.827 67.0929 170.761 67.4558 170.629 67.8071C170.499 68.1585 170.276 68.5496 169.957 68.9804C169.639 69.4113 169.198 69.9383 168.635 70.5614L166.109 73.3803V73.4449H171.146V74.2802H164.817ZM176.568 74.4194C176.148 74.416 175.737 74.3315 175.335 74.1658C174.934 73.9968 174.573 73.7266 174.252 73.3554C173.93 72.9809 173.675 72.4871 173.486 71.8739C173.297 71.2607 173.203 70.5067 173.203 69.6118C173.203 68.7832 173.276 68.0242 173.421 67.3348C173.567 66.6454 173.786 66.0489 174.078 65.5451C174.369 65.0413 174.734 64.6518 175.171 64.3767C175.609 64.0983 176.121 63.9591 176.708 63.9591C177.258 63.9591 177.743 64.0735 178.164 64.3022C178.585 64.5275 178.927 64.8424 179.188 65.2468C179.45 65.6511 179.614 66.1168 179.681 66.6438H178.766C178.673 66.1069 178.453 65.6644 178.105 65.3164C177.757 64.9684 177.291 64.7944 176.708 64.7944C175.872 64.7944 175.226 65.1821 174.769 65.9577C174.311 66.73 174.081 67.827 174.078 69.2489H174.142C174.305 68.9473 174.514 68.6871 174.769 68.4684C175.027 68.2463 175.321 68.0739 175.649 67.9513C175.977 67.8254 176.322 67.7624 176.683 67.7624C177.25 67.7624 177.768 67.9066 178.239 68.1949C178.71 68.48 179.086 68.8727 179.367 69.3732C179.649 69.8704 179.79 70.4388 179.79 71.0784C179.79 71.685 179.656 72.2435 179.387 72.7539C179.122 73.2643 178.748 73.6703 178.264 73.9719C177.783 74.2735 177.218 74.4227 176.568 74.4194ZM176.568 73.5841C177.013 73.5841 177.409 73.4714 177.757 73.2461C178.108 73.0207 178.385 72.7191 178.587 72.3412C178.789 71.9601 178.89 71.5391 178.89 71.0784C178.89 70.6177 178.789 70.2001 178.587 69.8256C178.385 69.4511 178.108 69.1528 177.757 68.9307C177.409 68.7087 177.013 68.5976 176.568 68.5976C176.23 68.5976 175.916 68.6672 175.624 68.8064C175.332 68.9423 175.079 69.1296 174.863 69.3682C174.651 69.6035 174.489 69.8737 174.376 70.1786C174.267 70.4835 174.225 70.8034 174.252 71.1381C174.288 71.6054 174.409 72.0247 174.615 72.3959C174.823 72.7638 175.095 73.0538 175.43 73.2659C175.768 73.4781 176.148 73.5841 176.568 73.5841ZM188.992 74.4194C188.277 74.4194 187.665 74.2139 187.158 73.8029C186.654 73.3886 186.266 72.7903 185.995 72.0081C185.726 71.2259 185.592 70.2863 185.592 69.1892C185.592 68.0955 185.726 67.1592 185.995 66.3803C186.266 65.5981 186.656 64.9998 187.163 64.5855C187.673 64.1679 188.283 63.9591 188.992 63.9591C189.702 63.9591 190.31 64.1679 190.817 64.5855C191.327 64.9998 191.717 65.5981 191.985 66.3803C192.257 67.1592 192.393 68.0955 192.393 69.1892C192.393 70.2863 192.257 71.2259 191.985 72.0081C191.717 72.7903 191.329 73.3886 190.822 73.8029C190.318 74.2139 189.708 74.4194 188.992 74.4194ZM188.992 73.5841C189.778 73.5841 190.391 73.2013 190.832 72.4357C191.273 71.6668 191.493 70.5846 191.493 69.1892C191.493 68.2612 191.392 67.4691 191.19 66.8128C190.991 66.1533 190.704 65.6495 190.33 65.3015C189.959 64.9534 189.513 64.7794 188.992 64.7794C188.214 64.7794 187.602 65.1672 187.158 65.9428C186.714 66.715 186.492 67.7972 186.492 69.1892C186.492 70.1173 186.591 70.9094 186.79 71.5657C186.992 72.2219 187.279 72.7224 187.65 73.0671C188.025 73.4118 188.472 73.5841 188.992 73.5841ZM195.157 72.7539C194.962 72.7539 194.793 72.6843 194.65 72.5451C194.511 72.4025 194.441 72.2335 194.441 72.038C194.441 71.8391 194.511 71.6701 194.65 71.5309C194.793 71.3917 194.962 71.3221 195.157 71.3221C195.356 71.3221 195.525 71.3917 195.664 71.5309C195.804 71.6701 195.873 71.8391 195.873 72.038C195.873 72.1672 195.84 72.2865 195.774 72.3959C195.711 72.5053 195.625 72.5931 195.515 72.6594C195.409 72.7224 195.29 72.7539 195.157 72.7539ZM195.157 67.5884C194.962 67.5884 194.793 67.5188 194.65 67.3796C194.511 67.2371 194.441 67.068 194.441 66.8725C194.441 66.6769 194.511 66.5096 194.65 66.3704C194.793 66.2278 194.962 66.1566 195.157 66.1566C195.356 66.1566 195.525 66.2278 195.664 66.3704C195.804 66.5096 195.873 66.6769 195.873 66.8725C195.873 67.0017 195.84 67.1211 195.774 67.2304C195.711 67.3398 195.625 67.4276 195.515 67.4939C195.409 67.5569 195.29 67.5884 195.157 67.5884ZM201.338 74.4194C200.622 74.4194 200.011 74.2139 199.504 73.8029C199 73.3886 198.612 72.7903 198.34 72.0081C198.072 71.2259 197.938 70.2863 197.938 69.1892C197.938 68.0955 198.072 67.1592 198.34 66.3803C198.612 65.5981 199.002 64.9998 199.509 64.5855C200.019 64.1679 200.629 63.9591 201.338 63.9591C202.047 63.9591 202.656 64.1679 203.163 64.5855C203.673 64.9998 204.063 65.5981 204.331 66.3803C204.603 67.1592 204.739 68.0955 204.739 69.1892C204.739 70.2863 204.603 71.2259 204.331 72.0081C204.063 72.7903 203.675 73.3886 203.168 73.8029C202.664 74.2139 202.054 74.4194 201.338 74.4194ZM201.338 73.5841C202.124 73.5841 202.737 73.2013 203.178 72.4357C203.618 71.6668 203.839 70.5846 203.839 69.1892C203.839 68.2612 203.738 67.4691 203.536 66.8128C203.337 66.1533 203.05 65.6495 202.676 65.3015C202.304 64.9534 201.859 64.7794 201.338 64.7794C200.559 64.7794 199.948 65.1672 199.504 65.9428C199.06 66.715 198.837 67.7972 198.837 69.1892C198.837 70.1173 198.937 70.9094 199.136 71.5657C199.338 72.2219 199.625 72.7224 199.996 73.0671C200.37 73.4118 200.818 73.5841 201.338 73.5841ZM209.924 74.4194C209.208 74.4194 208.597 74.2139 208.09 73.8029C207.586 73.3886 207.198 72.7903 206.926 72.0081C206.658 71.2259 206.524 70.2863 206.524 69.1892C206.524 68.0955 206.658 67.1592 206.926 66.3803C207.198 65.5981 207.587 64.9998 208.095 64.5855C208.605 64.1679 209.215 63.9591 209.924 63.9591C210.633 63.9591 211.242 64.1679 211.749 64.5855C212.259 64.9998 212.649 65.5981 212.917 66.3803C213.189 67.1592 213.325 68.0955 213.325 69.1892C213.325 70.2863 213.189 71.2259 212.917 72.0081C212.649 72.7903 212.261 73.3886 211.754 73.8029C211.25 74.2139 210.64 74.4194 209.924 74.4194ZM209.924 73.5841C210.71 73.5841 211.323 73.2013 211.764 72.4357C212.204 71.6668 212.425 70.5846 212.425 69.1892C212.425 68.2612 212.324 67.4691 212.122 66.8128C211.923 66.1533 211.636 65.6495 211.261 65.3015C210.89 64.9534 210.444 64.7794 209.924 64.7794C209.145 64.7794 208.534 65.1672 208.09 65.9428C207.645 66.715 207.423 67.7972 207.423 69.1892C207.423 70.1173 207.523 70.9094 207.722 71.5657C207.924 72.2219 208.211 72.7224 208.582 73.0671C208.956 73.4118 209.404 73.5841 209.924 73.5841ZM216.089 72.7539C215.893 72.7539 215.724 72.6843 215.582 72.5451C215.443 72.4025 215.373 72.2335 215.373 72.038C215.373 71.8391 215.443 71.6701 215.582 71.5309C215.724 71.3917 215.893 71.3221 216.089 71.3221C216.288 71.3221 216.457 71.3917 216.596 71.5309C216.735 71.6701 216.805 71.8391 216.805 72.038C216.805 72.1672 216.772 72.2865 216.705 72.3959C216.642 72.5053 216.556 72.5931 216.447 72.6594C216.341 72.7224 216.221 72.7539 216.089 72.7539ZM216.089 67.5884C215.893 67.5884 215.724 67.5188 215.582 67.3796C215.443 67.2371 215.373 67.068 215.373 66.8725C215.373 66.6769 215.443 66.5096 215.582 66.3704C215.724 66.2278 215.893 66.1566 216.089 66.1566C216.288 66.1566 216.457 66.2278 216.596 66.3704C216.735 66.5096 216.805 66.6769 216.805 66.8725C216.805 67.0017 216.772 67.1211 216.705 67.2304C216.642 67.3398 216.556 67.4276 216.447 67.4939C216.341 67.5569 216.221 67.5884 216.089 67.5884ZM222.27 74.4194C221.554 74.4194 220.942 74.2139 220.435 73.8029C219.931 73.3886 219.544 72.7903 219.272 72.0081C219.003 71.2259 218.869 70.2863 218.869 69.1892C218.869 68.0955 219.003 67.1592 219.272 66.3803C219.544 65.5981 219.933 64.9998 220.44 64.5855C220.951 64.1679 221.561 63.9591 222.27 63.9591C222.979 63.9591 223.587 64.1679 224.094 64.5855C224.605 64.9998 224.994 65.5981 225.263 66.3803C225.534 67.1592 225.67 68.0955 225.67 69.1892C225.67 70.2863 225.534 71.2259 225.263 72.0081C224.994 72.7903 224.606 73.3886 224.099 73.8029C223.596 74.2139 222.986 74.4194 222.27 74.4194ZM222.27 73.5841C223.055 73.5841 223.668 73.2013 224.109 72.4357C224.55 71.6668 224.77 70.5846 224.77 69.1892C224.77 68.2612 224.669 67.4691 224.467 66.8128C224.268 66.1533 223.982 65.6495 223.607 65.3015C223.236 64.9534 222.79 64.7794 222.27 64.7794C221.491 64.7794 220.879 65.1672 220.435 65.9428C219.991 66.715 219.769 67.7972 219.769 69.1892C219.769 70.1173 219.869 70.9094 220.067 71.5657C220.27 72.2219 220.556 72.7224 220.927 73.0671C221.302 73.4118 221.749 73.5841 222.27 73.5841ZM230.856 74.4194C230.14 74.4194 229.528 74.2139 229.021 73.8029C228.517 73.3886 228.13 72.7903 227.858 72.0081C227.589 71.2259 227.455 70.2863 227.455 69.1892C227.455 68.0955 227.589 67.1592 227.858 66.3803C228.13 65.5981 228.519 64.9998 229.026 64.5855C229.537 64.1679 230.146 63.9591 230.856 63.9591C231.565 63.9591 232.173 64.1679 232.68 64.5855C233.191 64.9998 233.58 65.5981 233.849 66.3803C234.12 67.1592 234.256 68.0955 234.256 69.1892C234.256 70.2863 234.12 71.2259 233.849 72.0081C233.58 72.7903 233.192 73.3886 232.685 73.8029C232.181 74.2139 231.572 74.4194 230.856 74.4194ZM230.856 73.5841C231.641 73.5841 232.254 73.2013 232.695 72.4357C233.136 71.6668 233.356 70.5846 233.356 69.1892C233.356 68.2612 233.255 67.4691 233.053 66.8128C232.854 66.1533 232.568 65.6495 232.193 65.3015C231.822 64.9534 231.376 64.7794 230.856 64.7794C230.077 64.7794 229.465 65.1672 229.021 65.9428C228.577 66.715 228.355 67.7972 228.355 69.1892C228.355 70.1173 228.454 70.9094 228.653 71.5657C228.855 72.2219 229.142 72.7224 229.513 73.0671C229.888 73.4118 230.335 73.5841 230.856 73.5841ZM244.557 69.1892C244.557 67.9961 244.708 66.8692 245.01 65.8086C245.311 64.748 245.744 63.7536 246.307 62.8256H247.113C246.871 63.2167 246.649 63.6592 246.447 64.153C246.248 64.6469 246.075 65.1739 245.93 65.734C245.784 66.2941 245.671 66.8675 245.592 67.4542C245.512 68.0375 245.472 68.6159 245.472 69.1892C245.472 69.9549 245.542 70.7271 245.681 71.506C245.82 72.2849 246.012 73.024 246.258 73.7233C246.506 74.4227 246.791 75.0325 247.113 75.5529H246.307C245.744 74.6215 245.311 73.6256 245.01 72.565C244.708 71.5043 244.557 70.3791 244.557 69.1892ZM256.013 64.0983H256.943V70.8398C256.943 71.5325 256.781 72.1523 256.456 72.6992C256.131 73.2427 255.678 73.672 255.098 73.9868C254.522 74.2984 253.851 74.4542 253.085 74.4542C252.323 74.4542 251.651 74.2967 251.071 73.9819C250.491 73.667 250.039 73.2378 249.714 72.6942C249.389 72.1507 249.227 71.5325 249.227 70.8398V64.0983H250.157V70.7752C250.157 71.3154 250.278 71.7977 250.52 72.2219C250.762 72.6428 251.101 72.9743 251.539 73.2162C251.98 73.4582 252.495 73.5792 253.085 73.5792C253.675 73.5792 254.19 73.4582 254.631 73.2162C255.072 72.9743 255.412 72.6428 255.65 72.2219C255.892 71.7977 256.013 71.3154 256.013 70.7752V64.0983ZM259.028 64.9336V64.0983H266.411V64.9336H263.185V74.2802H262.255V64.9336H259.028ZM276.055 67.2802H275.12C275.051 66.9321 274.925 66.6106 274.742 66.3157C274.563 66.0174 274.338 65.7572 274.066 65.5351C273.795 65.3131 273.486 65.1407 273.142 65.0181C272.797 64.8954 272.424 64.8341 272.023 64.8341C271.38 64.8341 270.793 65.0015 270.263 65.3363C269.736 65.671 269.313 66.1632 268.995 66.8128C268.68 67.4591 268.523 68.2513 268.523 69.1892C268.523 70.1338 268.68 70.9293 268.995 71.5756C269.313 72.2219 269.736 72.7124 270.263 73.0472C270.793 73.3786 271.38 73.5444 272.023 73.5444C272.424 73.5444 272.797 73.483 273.142 73.3604C273.486 73.2378 273.795 73.0671 274.066 72.8483C274.338 72.6263 274.563 72.3661 274.742 72.0678C274.925 71.7695 275.051 71.4463 275.12 71.0983H276.055C275.972 71.5657 275.816 72.0015 275.588 72.4059C275.362 72.8069 275.074 73.1582 274.723 73.4598C274.375 73.7614 273.974 73.9968 273.519 74.1658C273.065 74.3348 272.567 74.4194 272.023 74.4194C271.168 74.4194 270.409 74.2056 269.746 73.778C269.083 73.3471 268.563 72.7406 268.185 71.9584C267.81 71.1762 267.623 70.2532 267.623 69.1892C267.623 68.1253 267.81 67.2023 268.185 66.4201C268.563 65.6379 269.083 65.033 269.746 64.6054C270.409 64.1746 271.168 63.9591 272.023 63.9591C272.567 63.9591 273.065 64.0436 273.519 64.2127C273.974 64.3784 274.375 64.6137 274.723 64.9186C275.074 65.2203 275.362 65.5716 275.588 65.9726C275.816 66.3737 275.972 66.8095 276.055 67.2802ZM281.023 72.3512V66.0522H281.873V72.3512H281.023ZM278.298 69.6267V68.7766H284.597V69.6267H278.298ZM290.286 74.4194C289.637 74.4194 289.058 74.2967 288.551 74.0515C288.044 73.8062 287.646 73.4714 287.358 73.0472C287.07 72.6196 286.925 72.1374 286.925 71.6005C286.925 71.1795 287.013 70.7868 287.189 70.4222C287.364 70.0543 287.606 69.7461 287.915 69.4975C288.223 69.2456 288.569 69.0815 288.954 69.0053V68.9506C288.453 68.8048 288.051 68.5181 287.746 68.0905C287.441 67.6596 287.29 67.1708 287.293 66.6239C287.29 66.1168 287.419 65.6627 287.681 65.2617C287.943 64.8606 288.299 64.5441 288.75 64.3121C289.204 64.0768 289.716 63.9591 290.286 63.9591C290.853 63.9591 291.362 64.0768 291.812 64.3121C292.263 64.5441 292.619 64.8606 292.881 65.2617C293.146 65.6627 293.281 66.1168 293.284 66.6239C293.281 67.1675 293.127 67.6563 292.822 68.0905C292.517 68.5214 292.116 68.8081 291.619 68.9506V69.0053C292.003 69.0782 292.348 69.2406 292.653 69.4925C292.958 69.7444 293.199 70.0543 293.378 70.4222C293.557 70.7868 293.647 71.1795 293.647 71.6005C293.647 72.1374 293.501 72.6196 293.209 73.0472C292.921 73.4714 292.523 73.8062 292.016 74.0515C291.512 74.2967 290.936 74.4194 290.286 74.4194ZM290.286 73.5841C290.77 73.5841 291.194 73.498 291.559 73.3256C291.927 73.1499 292.213 72.9096 292.419 72.6047C292.628 72.2998 292.732 71.9501 292.732 71.5557C292.732 71.148 292.624 70.7851 292.409 70.4669C292.194 70.1454 291.902 69.8919 291.534 69.7063C291.166 69.5174 290.75 69.4229 290.286 69.4229C289.822 69.4229 289.404 69.5174 289.033 69.7063C288.665 69.8919 288.374 70.1454 288.158 70.4669C287.946 70.7851 287.84 71.148 287.84 71.5557C287.84 71.9501 287.941 72.2998 288.143 72.6047C288.349 72.9096 288.636 73.1499 289.003 73.3256C289.375 73.498 289.802 73.5841 290.286 73.5841ZM290.286 68.6275C290.684 68.6275 291.04 68.5429 291.355 68.3739C291.67 68.2049 291.918 67.9745 292.101 67.6829C292.286 67.3879 292.381 67.0531 292.384 66.6786C292.381 66.3074 292.288 65.9793 292.106 65.6942C291.923 65.4059 291.675 65.1821 291.36 65.023C291.048 64.8606 290.69 64.7794 290.286 64.7794C289.882 64.7794 289.52 64.8606 289.202 65.023C288.887 65.1821 288.639 65.4059 288.457 65.6942C288.278 65.9793 288.19 66.3074 288.193 66.6786C288.19 67.0531 288.279 67.3879 288.462 67.6829C288.647 67.9745 288.897 68.2049 289.212 68.3739C289.53 68.5429 289.888 68.6275 290.286 68.6275ZM297.894 69.1892C297.894 70.3824 297.743 71.5093 297.441 72.5699C297.14 73.6305 296.707 74.6248 296.144 75.5529H295.339C295.58 75.1618 295.801 74.7193 296 74.2255C296.202 73.7316 296.376 73.2046 296.522 72.6445C296.668 72.0844 296.78 71.511 296.86 70.9243C296.939 70.3377 296.979 69.7593 296.979 69.1892C296.979 68.4236 296.91 67.6514 296.77 66.8725C296.631 66.0936 296.437 65.3545 296.189 64.6552C295.943 63.9558 295.66 63.346 295.339 62.8256H296.144C296.707 63.7569 297.14 64.7529 297.441 65.8135C297.743 66.8741 297.894 67.9994 297.894 69.1892ZM33.7528 101.704C33.7435 101.629 33.7155 101.531 33.6688 101.41C33.6222 101.279 33.5755 101.149 33.5288 101.018C33.4915 100.887 33.4495 100.775 33.4028 100.682C33.5615 100.654 33.7295 100.561 33.9068 100.402C34.0842 100.234 34.2848 100.024 34.5088 99.7722C34.6302 99.6508 34.8075 99.4455 35.0408 99.1562C35.2835 98.8668 35.5495 98.5262 35.8388 98.1342C36.1282 97.7422 36.4222 97.3175 36.7208 96.8602C37.0195 96.4028 37.2948 95.9408 37.5468 95.4742L38.5128 96.0622C37.9155 96.9955 37.2715 97.9055 36.5808 98.7922C35.8902 99.6788 35.1948 100.458 34.4948 101.13V101.158C34.4948 101.158 34.4575 101.177 34.3828 101.214C34.3082 101.242 34.2195 101.284 34.1168 101.34C34.0235 101.396 33.9395 101.457 33.8648 101.522C33.7902 101.587 33.7528 101.648 33.7528 101.704ZM33.7528 101.704L33.7108 100.822L34.2568 100.458L38.4428 99.7722C38.4335 99.9122 38.4335 100.075 38.4428 100.262C38.4615 100.439 38.4802 100.584 38.4988 100.696C37.5188 100.873 36.7302 101.018 36.1328 101.13C35.5448 101.242 35.0922 101.331 34.7748 101.396C34.4668 101.461 34.2382 101.517 34.0888 101.564C33.9488 101.611 33.8368 101.657 33.7528 101.704ZM33.6548 98.3022C33.6362 98.2275 33.6035 98.1248 33.5568 97.9942C33.5195 97.8635 33.4775 97.7328 33.4308 97.6022C33.3842 97.4622 33.3375 97.3455 33.2908 97.2522C33.4215 97.2242 33.5522 97.1355 33.6828 96.9862C33.8135 96.8368 33.9488 96.6502 34.0888 96.4262C34.1728 96.3142 34.2895 96.1322 34.4388 95.8802C34.5882 95.6188 34.7562 95.3108 34.9428 94.9562C35.1295 94.6015 35.3115 94.2235 35.4888 93.8222C35.6755 93.4208 35.8388 93.0148 35.9788 92.6042L37.0568 93.0522C36.8142 93.6122 36.5435 94.1722 36.2448 94.7322C35.9555 95.2828 35.6522 95.8148 35.3348 96.3282C35.0175 96.8322 34.6955 97.2895 34.3688 97.7002V97.7282C34.3688 97.7282 34.3315 97.7468 34.2568 97.7842C34.1915 97.8215 34.1075 97.8728 34.0048 97.9382C33.9115 97.9942 33.8275 98.0548 33.7528 98.1202C33.6875 98.1855 33.6548 98.2462 33.6548 98.3022ZM33.6548 98.3022L33.6408 97.5182L34.1728 97.1822L37.1268 96.9302C37.0988 97.0608 37.0755 97.2102 37.0568 97.3782C37.0382 97.5462 37.0288 97.6862 37.0288 97.7982C36.3662 97.8728 35.8248 97.9382 35.4048 97.9942C34.9848 98.0408 34.6582 98.0828 34.4248 98.1202C34.2008 98.1575 34.0328 98.1902 33.9208 98.2182C33.8088 98.2462 33.7202 98.2742 33.6548 98.3022ZM33.3608 103.538C33.7995 103.463 34.2942 103.375 34.8448 103.272C35.4048 103.16 35.9928 103.043 36.6088 102.922C37.2342 102.791 37.8548 102.665 38.4708 102.544L38.5548 103.51C37.6775 103.715 36.7955 103.911 35.9088 104.098C35.0315 104.285 34.2428 104.457 33.5428 104.616L33.3608 103.538ZM38.5828 94.3962H46.0728V95.4042H38.5828V94.3962ZM38.9328 97.5882H45.8348V98.5962H38.9328V97.5882ZM39.8708 103.832H44.9388V104.784H39.8708V103.832ZM41.8168 92.5062H42.8948V98.1062H41.8168V92.5062ZM39.2968 100.024H45.4848V105.33H44.4348V100.976H40.3188V105.386H39.2968V100.024ZM47.9348 94.0042H59.8488V94.9982H47.9348V94.0042ZM53.3108 92.5342H54.3888V105.4H53.3108V92.5342ZM53.1988 99.9962L54.0808 100.402C53.7448 100.878 53.3482 101.34 52.8908 101.788C52.4428 102.236 51.9575 102.661 51.4348 103.062C50.9122 103.454 50.3708 103.809 49.8108 104.126C49.2508 104.443 48.7002 104.714 48.1588 104.938C48.1122 104.845 48.0422 104.742 47.9488 104.63C47.8648 104.527 47.7762 104.425 47.6828 104.322C47.5988 104.219 47.5148 104.131 47.4308 104.056C47.9722 103.869 48.5182 103.636 49.0688 103.356C49.6288 103.067 50.1608 102.745 50.6648 102.39C51.1782 102.026 51.6495 101.643 52.0788 101.242C52.5175 100.831 52.8908 100.416 53.1988 99.9962ZM54.5708 100.024C54.9815 100.584 55.4995 101.125 56.1248 101.648C56.7502 102.171 57.4315 102.642 58.1688 103.062C58.9155 103.473 59.6575 103.799 60.3948 104.042C60.3202 104.117 60.2315 104.205 60.1288 104.308C60.0355 104.411 59.9468 104.518 59.8628 104.63C59.7788 104.751 59.7042 104.859 59.6388 104.952C58.9015 104.663 58.1595 104.285 57.4128 103.818C56.6755 103.351 55.9848 102.829 55.3408 102.25C54.6968 101.662 54.1508 101.051 53.7028 100.416L54.5708 100.024ZM49.9088 97.4622V99.6182H57.8188V97.4622H49.9088ZM48.9008 96.5242H58.8968V100.556H48.9008V96.5242ZM62.5228 93.6962H66.3868V102.796H62.5228V101.844H65.4068V94.6482H62.5228V93.6962ZM62.5648 97.7142H65.7708V98.6522H62.5648V97.7142ZM62.0048 93.6962H63.0128V103.93H62.0048V93.6962ZM67.0308 95.3202H74.3388V96.3702H67.0308V95.3202ZM71.5668 92.5902H72.6308V103.818C72.6308 104.201 72.5748 104.481 72.4628 104.658C72.3602 104.845 72.1828 104.98 71.9308 105.064C71.6788 105.157 71.3242 105.213 70.8668 105.232C70.4095 105.251 69.8308 105.26 69.1308 105.26C69.1028 105.111 69.0515 104.929 68.9768 104.714C68.9022 104.509 68.8228 104.331 68.7388 104.182C69.1122 104.191 69.4622 104.201 69.7888 104.21C70.1248 104.219 70.4142 104.224 70.6568 104.224C70.8995 104.215 71.0722 104.205 71.1748 104.196C71.3148 104.196 71.4128 104.168 71.4688 104.112C71.5342 104.056 71.5668 103.958 71.5668 103.818V92.5902ZM67.5068 97.9522L68.3748 97.4902C68.6268 97.8448 68.8928 98.2275 69.1728 98.6382C69.4528 99.0488 69.7142 99.4455 69.9568 99.8282C70.2088 100.211 70.4142 100.547 70.5728 100.836L69.6488 101.368C69.4995 101.079 69.3035 100.738 69.0608 100.346C68.8275 99.9448 68.5708 99.5342 68.2908 99.1142C68.0202 98.6942 67.7588 98.3068 67.5068 97.9522ZM76.1448 95.6702H77.2228V105.4H76.1448V95.6702ZM76.3548 93.2062L77.1668 92.7022C77.3908 92.8982 77.6148 93.1175 77.8388 93.3602C78.0628 93.5935 78.2728 93.8268 78.4688 94.0602C78.6648 94.2935 78.8142 94.5082 78.9168 94.7042L78.0488 95.2642C77.9368 95.0775 77.7875 94.8628 77.6008 94.6202C77.4235 94.3775 77.2228 94.1348 76.9988 93.8922C76.7842 93.6402 76.5695 93.4115 76.3548 93.2062ZM79.7988 93.3042H87.1628V94.2982H79.7988V93.3042ZM86.5748 93.3042H87.6528V104.126C87.6528 104.415 87.6155 104.635 87.5408 104.784C87.4755 104.943 87.3495 105.069 87.1628 105.162C86.9762 105.246 86.7288 105.293 86.4208 105.302C86.1222 105.321 85.7582 105.33 85.3288 105.33C85.3008 105.199 85.2542 105.036 85.1888 104.84C85.1328 104.653 85.0675 104.495 84.9928 104.364C85.2915 104.373 85.5668 104.378 85.8188 104.378C86.0708 104.378 86.2435 104.378 86.3368 104.378C86.4302 104.369 86.4908 104.345 86.5188 104.308C86.5562 104.271 86.5748 104.21 86.5748 104.126V93.3042ZM80.1768 100.15V102.04H83.5368V100.15H80.1768ZM80.1768 97.4062V99.2682H83.5368V97.4062H80.1768ZM79.2248 96.5242H84.5308V102.908H79.2248V96.5242ZM95.8708 96.6642C95.5908 96.6642 95.3435 96.5708 95.1288 96.3842C94.9142 96.1882 94.8068 95.9315 94.8068 95.6142C94.8068 95.2968 94.9142 95.0448 95.1288 94.8582C95.3435 94.6622 95.5908 94.5642 95.8708 94.5642C96.1508 94.5642 96.3982 94.6622 96.6128 94.8582C96.8275 95.0448 96.9348 95.2968 96.9348 95.6142C96.9348 95.9315 96.8275 96.1882 96.6128 96.3842C96.3982 96.5708 96.1508 96.6642 95.8708 96.6642ZM95.8708 103.524C95.5908 103.524 95.3435 103.431 95.1288 103.244C94.9142 103.048 94.8068 102.791 94.8068 102.474C94.8068 102.147 94.9142 101.891 95.1288 101.704C95.3435 101.508 95.5908 101.41 95.8708 101.41C96.1508 101.41 96.3982 101.508 96.6128 101.704C96.8275 101.891 96.9348 102.147 96.9348 102.474C96.9348 102.791 96.8275 103.048 96.6128 103.244C96.3982 103.431 96.1508 103.524 95.8708 103.524ZM104.004 104.28V103.599L107.33 99.8604C107.765 99.3699 108.114 98.9506 108.379 98.6026C108.644 98.2546 108.837 97.9331 108.956 97.6381C109.079 97.3431 109.14 97.0365 109.14 96.7184C109.14 96.3306 109.049 95.9925 108.867 95.7042C108.688 95.4125 108.441 95.1855 108.126 95.023C107.811 94.8606 107.456 94.7794 107.062 94.7794C106.644 94.7794 106.278 94.8689 105.963 95.0479C105.652 95.2269 105.41 95.4721 105.237 95.7837C105.065 96.0953 104.979 96.4532 104.979 96.8576H104.089C104.089 96.2941 104.218 95.7953 104.477 95.3611C104.738 94.9236 105.095 94.5806 105.546 94.332C106 94.0834 106.513 93.9591 107.087 93.9591C107.653 93.9591 108.157 94.0818 108.598 94.327C109.039 94.569 109.385 94.8988 109.637 95.3164C109.889 95.734 110.015 96.2013 110.015 96.7184C110.015 97.0929 109.949 97.4558 109.816 97.8071C109.687 98.1585 109.463 98.5496 109.145 98.9804C108.827 99.4113 108.386 99.9383 107.823 100.561L105.297 103.38V103.445H110.333V104.28H104.004ZM115.711 104.419C114.995 104.419 114.384 104.214 113.877 103.803C113.373 103.389 112.985 102.79 112.713 102.008C112.445 101.226 112.311 100.286 112.311 99.1892C112.311 98.0955 112.445 97.1592 112.713 96.3803C112.985 95.5981 113.375 94.9998 113.882 94.5855C114.392 94.1679 115.002 93.9591 115.711 93.9591C116.42 93.9591 117.029 94.1679 117.536 94.5855C118.046 94.9998 118.436 95.5981 118.704 96.3803C118.976 97.1592 119.112 98.0955 119.112 99.1892C119.112 100.286 118.976 101.226 118.704 102.008C118.436 102.79 118.048 103.389 117.541 103.803C117.037 104.214 116.427 104.419 115.711 104.419ZM115.711 103.584C116.497 103.584 117.11 103.201 117.551 102.436C117.991 101.667 118.212 100.585 118.212 99.1892C118.212 98.2612 118.111 97.4691 117.909 96.8128C117.71 96.1533 117.423 95.6495 117.049 95.3015C116.677 94.9534 116.232 94.7794 115.711 94.7794C114.932 94.7794 114.321 95.1672 113.877 95.9428C113.433 96.715 113.21 97.7972 113.21 99.1892C113.21 100.117 113.31 100.909 113.509 101.566C113.711 102.222 113.998 102.722 114.369 103.067C114.743 103.412 115.191 103.584 115.711 103.584ZM121.135 104.28V103.599L124.461 99.8604C124.895 99.3699 125.245 98.9506 125.51 98.6026C125.775 98.2546 125.968 97.9331 126.087 97.6381C126.21 97.3431 126.271 97.0365 126.271 96.7184C126.271 96.3306 126.18 95.9925 125.997 95.7042C125.818 95.4125 125.572 95.1855 125.257 95.023C124.942 94.8606 124.587 94.7794 124.193 94.7794C123.775 94.7794 123.409 94.8689 123.094 95.0479C122.782 95.2269 122.541 95.4721 122.368 95.7837C122.196 96.0953 122.11 96.4532 122.11 96.8576H121.22C121.22 96.2941 121.349 95.7953 121.608 95.3611C121.869 94.9236 122.226 94.5806 122.676 94.332C123.13 94.0834 123.644 93.9591 124.218 93.9591C124.784 93.9591 125.288 94.0818 125.729 94.327C126.17 94.569 126.516 94.8988 126.768 95.3164C127.02 95.734 127.146 96.2013 127.146 96.7184C127.146 97.0929 127.08 97.4558 126.947 97.8071C126.818 98.1585 126.594 98.5496 126.276 98.9804C125.958 99.4113 125.517 99.9383 124.953 100.561L122.428 103.38V103.445H127.464V104.28H121.135ZM132.658 104.419C132.091 104.419 131.584 104.305 131.137 104.076C130.693 103.844 130.338 103.526 130.073 103.122C129.811 102.717 129.672 102.255 129.655 101.735H130.555C130.585 102.275 130.797 102.719 131.191 103.067C131.586 103.412 132.075 103.584 132.658 103.584C133.112 103.584 133.517 103.476 133.871 103.261C134.226 103.042 134.503 102.744 134.701 102.366C134.904 101.985 135.005 101.556 135.005 101.078C135.001 100.581 134.894 100.144 134.682 99.7659C134.469 99.3848 134.181 99.0865 133.816 98.8711C133.455 98.6556 133.049 98.5479 132.598 98.5479C132.257 98.5446 131.922 98.6009 131.594 98.7169C131.266 98.8329 130.993 98.9821 130.774 99.1644L129.844 99.0451L130.456 94.0983H135.487V94.9336H131.236L130.829 98.3391H130.878C131.104 98.1502 131.377 97.9961 131.699 97.8767C132.023 97.7574 132.366 97.6978 132.728 97.6978C133.328 97.6978 133.866 97.8419 134.343 98.1303C134.824 98.4186 135.204 98.8164 135.482 99.3235C135.764 99.8273 135.905 100.407 135.905 101.064C135.905 101.707 135.764 102.282 135.482 102.789C135.204 103.292 134.819 103.69 134.329 103.982C133.841 104.274 133.285 104.419 132.658 104.419ZM141.361 93.6211L138.08 105.811H137.249L140.531 93.6211H141.361ZM146.022 104.419C145.306 104.419 144.694 104.214 144.187 103.803C143.683 103.389 143.296 102.79 143.024 102.008C142.755 101.226 142.621 100.286 142.621 99.1892C142.621 98.0955 142.755 97.1592 143.024 96.3803C143.296 95.5981 143.685 94.9998 144.192 94.5855C144.703 94.1679 145.312 93.9591 146.022 93.9591C146.731 93.9591 147.339 94.1679 147.846 94.5855C148.357 94.9998 148.746 95.5981 149.015 96.3803C149.286 97.1592 149.422 98.0955 149.422 99.1892C149.422 100.286 149.286 101.226 149.015 102.008C148.746 102.79 148.358 103.389 147.851 103.803C147.348 104.214 146.738 104.419 146.022 104.419ZM146.022 103.584C146.807 103.584 147.42 103.201 147.861 102.436C148.302 101.667 148.522 100.585 148.522 99.1892C148.522 98.2612 148.421 97.4691 148.219 96.8128C148.02 96.1533 147.734 95.6495 147.359 95.3015C146.988 94.9534 146.542 94.7794 146.022 94.7794C145.243 94.7794 144.631 95.1672 144.187 95.9428C143.743 96.715 143.521 97.7972 143.521 99.1892C143.521 100.117 143.62 100.909 143.819 101.566C144.022 102.222 144.308 102.722 144.679 103.067C145.054 103.412 145.501 103.584 146.022 103.584ZM151.466 104.28L156.104 94.9982V94.9336H150.76V94.0983H157.079V94.9733L152.445 104.28H151.466ZM162.402 93.6211L159.121 105.811H158.29L161.572 93.6211H162.402ZM167.063 104.419C166.347 104.419 165.735 104.214 165.228 103.803C164.724 103.389 164.337 102.79 164.065 102.008C163.796 101.226 163.662 100.286 163.662 99.1892C163.662 98.0955 163.796 97.1592 164.065 96.3803C164.337 95.5981 164.726 94.9998 165.233 94.5855C165.744 94.1679 166.353 93.9591 167.063 93.9591C167.772 93.9591 168.38 94.1679 168.887 94.5855C169.398 94.9998 169.787 95.5981 170.056 96.3803C170.327 97.1592 170.463 98.0955 170.463 99.1892C170.463 100.286 170.327 101.226 170.056 102.008C169.787 102.79 169.399 103.389 168.892 103.803C168.389 104.214 167.779 104.419 167.063 104.419ZM167.063 103.584C167.848 103.584 168.461 103.201 168.902 102.436C169.343 101.667 169.563 100.585 169.563 99.1892C169.563 98.2612 169.462 97.4691 169.26 96.8128C169.061 96.1533 168.775 95.6495 168.4 95.3015C168.029 94.9534 167.583 94.7794 167.063 94.7794C166.284 94.7794 165.672 95.1672 165.228 95.9428C164.784 96.715 164.562 97.7972 164.562 99.1892C164.562 100.117 164.661 100.909 164.86 101.566C165.063 102.222 165.349 102.722 165.72 103.067C166.095 103.412 166.542 103.584 167.063 103.584ZM175.465 104.419C174.898 104.419 174.391 104.305 173.943 104.076C173.499 103.844 173.145 103.526 172.88 103.122C172.618 102.717 172.478 102.255 172.462 101.735H173.362C173.392 102.275 173.604 102.719 173.998 103.067C174.393 103.412 174.881 103.584 175.465 103.584C175.919 103.584 176.323 103.476 176.678 103.261C177.032 103.042 177.309 102.744 177.508 102.366C177.71 101.985 177.811 101.556 177.811 101.078C177.808 100.581 177.7 100.144 177.488 99.7659C177.276 99.3848 176.988 99.0865 176.623 98.8711C176.262 98.6556 175.856 98.5479 175.405 98.5479C175.064 98.5446 174.729 98.6009 174.401 98.7169C174.073 98.8329 173.799 98.9821 173.581 99.1644L172.651 99.0451L173.262 94.0983H178.294V94.9336H174.043L173.635 98.3391H173.685C173.91 98.1502 174.184 97.9961 174.505 97.8767C174.83 97.7574 175.173 97.6978 175.534 97.6978C176.134 97.6978 176.673 97.8419 177.15 98.1303C177.631 98.4186 178.01 98.8164 178.289 99.3235C178.57 99.8273 178.711 100.407 178.711 101.064C178.711 101.707 178.57 102.282 178.289 102.789C178.01 103.292 177.626 103.69 177.135 103.982C176.648 104.274 176.091 104.419 175.465 104.419ZM184.764 104.28V103.599L188.09 99.8604C188.524 99.3699 188.874 98.9506 189.139 98.6026C189.404 98.2546 189.596 97.9331 189.716 97.6381C189.838 97.3431 189.9 97.0365 189.9 96.7184C189.9 96.3306 189.809 95.9925 189.626 95.7042C189.447 95.4125 189.2 95.1855 188.886 95.023C188.571 94.8606 188.216 94.7794 187.822 94.7794C187.404 94.7794 187.038 94.8689 186.723 95.0479C186.411 95.2269 186.169 95.4721 185.997 95.7837C185.825 96.0953 185.739 96.4532 185.739 96.8576H184.849C184.849 96.2941 184.978 95.7953 185.236 95.3611C185.498 94.9236 185.855 94.5806 186.305 94.332C186.759 94.0834 187.273 93.9591 187.846 93.9591C188.413 93.9591 188.917 94.0818 189.358 94.327C189.799 94.569 190.145 94.8988 190.397 95.3164C190.649 95.734 190.775 96.2013 190.775 96.7184C190.775 97.0929 190.708 97.4558 190.576 97.8071C190.447 98.1585 190.223 98.5496 189.905 98.9804C189.587 99.4113 189.146 99.9383 188.582 100.561L186.057 103.38V103.445H191.093V104.28H184.764ZM196.615 104.419C195.989 104.419 195.429 104.307 194.935 104.081C194.441 103.853 194.05 103.536 193.761 103.132C193.473 102.727 193.321 102.262 193.304 101.735H194.244C194.26 102.106 194.375 102.431 194.587 102.709C194.799 102.984 195.081 103.2 195.432 103.355C195.783 103.508 196.174 103.584 196.605 103.584C197.076 103.584 197.49 103.496 197.848 103.321C198.209 103.145 198.491 102.905 198.693 102.6C198.899 102.292 199.002 101.944 199.002 101.556C199.002 101.145 198.897 100.782 198.688 100.467C198.479 100.152 198.18 99.9068 197.788 99.7311C197.401 99.5555 196.937 99.4677 196.396 99.4677H195.8V98.6324H196.396C196.837 98.6324 197.227 98.5529 197.565 98.3938C197.906 98.2314 198.175 98.0043 198.37 97.7127C198.566 97.421 198.663 97.078 198.663 96.6836C198.663 96.309 198.579 95.9793 198.41 95.6942C198.241 95.4092 198.002 95.1855 197.694 95.023C197.389 94.8606 197.033 94.7794 196.625 94.7794C196.231 94.7794 195.869 94.8557 195.541 95.0081C195.213 95.1606 194.948 95.376 194.746 95.6544C194.547 95.9329 194.441 96.2626 194.428 96.6438H193.528C193.541 96.1135 193.687 95.6478 193.965 95.2468C194.247 94.8424 194.62 94.5275 195.084 94.3022C195.551 94.0735 196.068 93.9591 196.635 93.9591C197.235 93.9591 197.754 94.0818 198.191 94.327C198.629 94.5723 198.967 94.8988 199.205 95.3064C199.447 95.7108 199.568 96.1566 199.568 96.6438C199.568 97.2238 199.411 97.721 199.096 98.1353C198.781 98.5462 198.357 98.8313 197.823 98.9904V99.055C198.473 99.1843 198.983 99.4726 199.354 99.9201C199.729 100.364 199.916 100.909 199.916 101.556C199.916 102.099 199.774 102.588 199.489 103.022C199.204 103.453 198.813 103.795 198.315 104.046C197.822 104.295 197.255 104.419 196.615 104.419ZM202.854 102.754C202.659 102.754 202.49 102.684 202.347 102.545C202.208 102.403 202.139 102.234 202.139 102.038C202.139 101.839 202.208 101.67 202.347 101.531C202.49 101.392 202.659 101.322 202.854 101.322C203.053 101.322 203.222 101.392 203.362 101.531C203.501 101.67 203.57 101.839 203.57 102.038C203.57 102.167 203.537 102.287 203.471 102.396C203.408 102.505 203.322 102.593 203.212 102.659C203.106 102.722 202.987 102.754 202.854 102.754ZM202.854 97.5884C202.659 97.5884 202.49 97.5188 202.347 97.3796C202.208 97.2371 202.139 97.068 202.139 96.8725C202.139 96.6769 202.208 96.5096 202.347 96.3704C202.49 96.2278 202.659 96.1566 202.854 96.1566C203.053 96.1566 203.222 96.2278 203.362 96.3704C203.501 96.5096 203.57 96.6769 203.57 96.8725C203.57 97.0017 203.537 97.1211 203.471 97.2304C203.408 97.3398 203.322 97.4276 203.212 97.4939C203.106 97.5569 202.987 97.5884 202.854 97.5884ZM208.851 104.419C208.285 104.419 207.778 104.305 207.33 104.076C206.886 103.844 206.531 103.526 206.266 103.122C206.004 102.717 205.865 102.255 205.849 101.735H206.748C206.778 102.275 206.99 102.719 207.385 103.067C207.779 103.412 208.268 103.584 208.851 103.584C209.306 103.584 209.71 103.476 210.065 103.261C210.419 103.042 210.696 102.744 210.895 102.366C211.097 101.985 211.198 101.556 211.198 101.078C211.195 100.581 211.087 100.144 210.875 99.7659C210.663 99.3848 210.374 99.0865 210.01 98.8711C209.649 98.6556 209.243 98.5479 208.792 98.5479C208.45 98.5446 208.116 98.6009 207.788 98.7169C207.459 98.8329 207.186 98.9821 206.967 99.1644L206.038 99.0451L206.649 94.0983H211.68V94.9336H207.43L207.022 98.3391H207.072C207.297 98.1502 207.57 97.9961 207.892 97.8767C208.217 97.7574 208.56 97.6978 208.921 97.6978C209.521 97.6978 210.06 97.8419 210.537 98.1303C211.017 98.4186 211.397 98.8164 211.675 99.3235C211.957 99.8273 212.098 100.407 212.098 101.064C212.098 101.707 211.957 102.282 211.675 102.789C211.397 103.292 211.012 103.69 210.522 103.982C210.035 104.274 209.478 104.419 208.851 104.419ZM217.276 93.9591C217.7 93.9624 218.111 94.0486 218.509 94.2177C218.91 94.3834 219.271 94.6518 219.593 95.023C219.914 95.3909 220.169 95.8815 220.358 96.4946C220.547 97.1045 220.642 97.8552 220.642 98.7468C220.642 99.5787 220.569 100.341 220.423 101.034C220.277 101.726 220.058 102.326 219.767 102.833C219.478 103.337 219.114 103.728 218.673 104.007C218.235 104.282 217.723 104.419 217.137 104.419C216.59 104.419 216.104 104.305 215.68 104.076C215.259 103.848 214.918 103.531 214.656 103.127C214.394 102.719 214.232 102.248 214.169 101.715H215.083C215.173 102.258 215.392 102.706 215.74 103.057C216.091 103.408 216.557 103.584 217.137 103.584C217.969 103.584 218.615 103.196 219.076 102.421C219.536 101.645 219.767 100.542 219.767 99.1097H219.702C219.543 99.408 219.334 99.6682 219.076 99.8902C218.82 100.112 218.529 100.286 218.201 100.412C217.872 100.535 217.526 100.596 217.161 100.596C216.595 100.596 216.076 100.454 215.605 100.169C215.135 99.8803 214.759 99.4875 214.477 98.9904C214.195 98.4899 214.054 97.9198 214.054 97.2802C214.054 96.6769 214.187 96.1234 214.452 95.6196C214.72 95.1125 215.095 94.7082 215.576 94.4066C216.059 94.1016 216.626 93.9525 217.276 93.9591ZM217.276 94.7944C216.835 94.7944 216.439 94.907 216.088 95.1324C215.74 95.3545 215.463 95.6544 215.257 96.0323C215.055 96.4068 214.954 96.8228 214.954 97.2802C214.954 97.7409 215.055 98.1601 215.257 98.538C215.463 98.9125 215.74 99.2108 216.088 99.4329C216.439 99.6516 216.835 99.761 217.276 99.761C217.614 99.761 217.929 99.693 218.22 99.5571C218.512 99.4179 218.764 99.229 218.976 98.9904C219.192 98.7517 219.354 98.4816 219.463 98.18C219.576 97.8751 219.621 97.5552 219.598 97.2205C219.558 96.7565 219.433 96.3422 219.225 95.9776C219.019 95.6097 218.747 95.3213 218.409 95.1125C218.075 94.9004 217.697 94.7944 217.276 94.7944ZM223.485 102.754C223.29 102.754 223.121 102.684 222.978 102.545C222.839 102.403 222.769 102.234 222.769 102.038C222.769 101.839 222.839 101.67 222.978 101.531C223.121 101.392 223.29 101.322 223.485 101.322C223.684 101.322 223.853 101.392 223.992 101.531C224.132 101.67 224.201 101.839 224.201 102.038C224.201 102.167 224.168 102.287 224.102 102.396C224.039 102.505 223.953 102.593 223.843 102.659C223.737 102.722 223.618 102.754 223.485 102.754ZM223.485 97.5884C223.29 97.5884 223.121 97.5188 222.978 97.3796C222.839 97.2371 222.769 97.068 222.769 96.8725C222.769 96.6769 222.839 96.5096 222.978 96.3704C223.121 96.2278 223.29 96.1566 223.485 96.1566C223.684 96.1566 223.853 96.2278 223.992 96.3704C224.132 96.5096 224.201 96.6769 224.201 96.8725C224.201 97.0017 224.168 97.1211 224.102 97.2304C224.039 97.3398 223.953 97.4276 223.843 97.4939C223.737 97.5569 223.618 97.5884 223.485 97.5884ZM229.482 104.419C228.916 104.419 228.408 104.305 227.961 104.076C227.517 103.844 227.162 103.526 226.897 103.122C226.635 102.717 226.496 102.255 226.479 101.735H227.379C227.409 102.275 227.621 102.719 228.016 103.067C228.41 103.412 228.899 103.584 229.482 103.584C229.936 103.584 230.341 103.476 230.695 103.261C231.05 103.042 231.327 102.744 231.526 102.366C231.728 101.985 231.829 101.556 231.829 101.078C231.826 100.581 231.718 100.144 231.506 99.7659C231.294 99.3848 231.005 99.0865 230.641 98.8711C230.279 98.6556 229.873 98.5479 229.423 98.5479C229.081 98.5446 228.747 98.6009 228.418 98.7169C228.09 98.8329 227.817 98.9821 227.598 99.1644L226.668 99.0451L227.28 94.0983H232.311V94.9336H228.06L227.653 98.3391H227.702C227.928 98.1502 228.201 97.9961 228.523 97.8767C228.848 97.7574 229.191 97.6978 229.552 97.6978C230.152 97.6978 230.69 97.8419 231.168 98.1303C231.648 98.4186 232.028 98.8164 232.306 99.3235C232.588 99.8273 232.729 100.407 232.729 101.064C232.729 101.707 232.588 102.282 232.306 102.789C232.028 103.292 231.643 103.69 231.153 103.982C230.666 104.274 230.109 104.419 229.482 104.419ZM237.907 93.9591C238.331 93.9624 238.742 94.0486 239.14 94.2177C239.541 94.3834 239.902 94.6518 240.223 95.023C240.545 95.3909 240.8 95.8815 240.989 96.4946C241.178 97.1045 241.272 97.8552 241.272 98.7468C241.272 99.5787 241.2 100.341 241.054 101.034C240.908 101.726 240.689 102.326 240.397 102.833C240.109 103.337 239.745 103.728 239.304 104.007C238.866 104.282 238.354 104.419 237.767 104.419C237.221 104.419 236.735 104.305 236.311 104.076C235.89 103.848 235.548 103.531 235.287 103.127C235.025 102.719 234.862 102.248 234.799 101.715H235.714C235.804 102.258 236.022 102.706 236.37 103.057C236.722 103.408 237.187 103.584 237.767 103.584C238.599 103.584 239.246 103.196 239.706 102.421C240.167 101.645 240.397 100.542 240.397 99.1097H240.333C240.174 99.408 239.965 99.6682 239.706 99.8902C239.451 100.112 239.16 100.286 238.831 100.412C238.503 100.535 238.157 100.596 237.792 100.596C237.226 100.596 236.707 100.454 236.236 100.169C235.766 99.8803 235.389 99.4875 235.108 98.9904C234.826 98.4899 234.685 97.9198 234.685 97.2802C234.685 96.6769 234.818 96.1234 235.083 95.6196C235.351 95.1125 235.726 94.7082 236.206 94.4066C236.69 94.1016 237.257 93.9525 237.907 93.9591ZM237.907 94.7944C237.466 94.7944 237.07 94.907 236.718 95.1324C236.37 95.3545 236.094 95.6544 235.888 96.0323C235.686 96.4068 235.585 96.8228 235.585 97.2802C235.585 97.7409 235.686 98.1601 235.888 98.538C236.094 98.9125 236.37 99.2108 236.718 99.4329C237.07 99.6516 237.466 99.761 237.907 99.761C238.245 99.761 238.56 99.693 238.851 99.5571C239.143 99.4179 239.395 99.229 239.607 98.9904C239.822 98.7517 239.985 98.4816 240.094 98.18C240.207 97.8751 240.252 97.5552 240.228 97.2205C240.189 96.7565 240.064 96.3422 239.856 95.9776C239.65 95.6097 239.378 95.3213 239.04 95.1125C238.705 94.9004 238.328 94.7944 237.907 94.7944ZM247.716 99.1892C247.716 97.9961 247.866 96.8692 248.168 95.8086C248.47 94.748 248.902 93.7536 249.466 92.8256H250.271C250.029 93.2167 249.807 93.6592 249.605 94.153C249.406 94.6469 249.234 95.1739 249.088 95.734C248.942 96.2941 248.829 96.8675 248.75 97.4542C248.67 98.0375 248.63 98.6159 248.63 99.1892C248.63 99.9549 248.7 100.727 248.839 101.506C248.978 102.285 249.171 103.024 249.416 103.723C249.664 104.423 249.95 105.033 250.271 105.553H249.466C248.902 104.622 248.47 103.626 248.168 102.565C247.866 101.504 247.716 100.379 247.716 99.1892ZM259.171 94.0983H260.101V100.84C260.101 101.533 259.939 102.152 259.614 102.699C259.289 103.243 258.837 103.672 258.257 103.987C257.68 104.298 257.009 104.454 256.243 104.454C255.481 104.454 254.81 104.297 254.23 103.982C253.65 103.667 253.197 103.238 252.872 102.694C252.548 102.151 252.385 101.533 252.385 100.84V94.0983H253.315V100.775C253.315 101.315 253.436 101.798 253.678 102.222C253.92 102.643 254.259 102.974 254.697 103.216C255.138 103.458 255.653 103.579 256.243 103.579C256.833 103.579 257.349 103.458 257.789 103.216C258.23 102.974 258.57 102.643 258.808 102.222C259.05 101.798 259.171 101.315 259.171 100.775V94.0983ZM262.187 94.9336V94.0983H269.57V94.9336H266.343V104.28H265.413V94.9336H262.187ZM279.213 97.2802H278.278C278.209 96.9321 278.083 96.6106 277.901 96.3157C277.722 96.0174 277.496 95.7572 277.225 95.5351C276.953 95.3131 276.644 95.1407 276.3 95.0181C275.955 94.8954 275.582 94.8341 275.181 94.8341C274.538 94.8341 273.952 95.0015 273.421 95.3363C272.894 95.671 272.472 96.1632 272.153 96.8128C271.839 97.4591 271.681 98.2513 271.681 99.1892C271.681 100.134 271.839 100.929 272.153 101.576C272.472 102.222 272.894 102.712 273.421 103.047C273.952 103.379 274.538 103.544 275.181 103.544C275.582 103.544 275.955 103.483 276.3 103.36C276.644 103.238 276.953 103.067 277.225 102.848C277.496 102.626 277.722 102.366 277.901 102.068C278.083 101.769 278.209 101.446 278.278 101.098H279.213C279.13 101.566 278.975 102.002 278.746 102.406C278.52 102.807 278.232 103.158 277.881 103.46C277.533 103.761 277.132 103.997 276.678 104.166C276.224 104.335 275.725 104.419 275.181 104.419C274.326 104.419 273.567 104.206 272.904 103.778C272.241 103.347 271.721 102.741 271.343 101.958C270.969 101.176 270.781 100.253 270.781 99.1892C270.781 98.1253 270.969 97.2023 271.343 96.4201C271.721 95.6379 272.241 95.033 272.904 94.6054C273.567 94.1746 274.326 93.9591 275.181 93.9591C275.725 93.9591 276.224 94.0436 276.678 94.2127C277.132 94.3784 277.533 94.6137 277.881 94.9186C278.232 95.2203 278.52 95.5716 278.746 95.9726C278.975 96.3737 279.13 96.8095 279.213 97.2802ZM284.181 102.351V96.0522H285.031V102.351H284.181ZM281.457 99.6267V98.7766H287.756V99.6267H281.457ZM293.444 104.419C292.795 104.419 292.216 104.297 291.709 104.051C291.202 103.806 290.804 103.471 290.516 103.047C290.228 102.62 290.084 102.137 290.084 101.6C290.084 101.18 290.171 100.787 290.347 100.422C290.523 100.054 290.765 99.7461 291.073 99.4975C291.381 99.2456 291.727 99.0815 292.112 99.0053V98.9506C291.611 98.8048 291.209 98.5181 290.904 98.0905C290.599 97.6596 290.448 97.1708 290.451 96.6239C290.448 96.1168 290.577 95.6627 290.839 95.2617C291.101 94.8606 291.457 94.5441 291.908 94.3121C292.362 94.0768 292.874 93.9591 293.444 93.9591C294.011 93.9591 294.52 94.0768 294.971 94.3121C295.421 94.5441 295.778 94.8606 296.039 95.2617C296.305 95.6627 296.439 96.1168 296.442 96.6239C296.439 97.1675 296.285 97.6563 295.98 98.0905C295.675 98.5214 295.274 98.8081 294.777 98.9506V99.0053C295.161 99.0782 295.506 99.2406 295.811 99.4925C296.116 99.7444 296.358 100.054 296.537 100.422C296.716 100.787 296.805 101.18 296.805 101.6C296.805 102.137 296.659 102.62 296.368 103.047C296.079 103.471 295.682 103.806 295.174 104.051C294.671 104.297 294.094 104.419 293.444 104.419ZM293.444 103.584C293.928 103.584 294.352 103.498 294.717 103.326C295.085 103.15 295.372 102.91 295.577 102.605C295.786 102.3 295.89 101.95 295.89 101.556C295.89 101.148 295.783 100.785 295.567 100.467C295.352 100.145 295.06 99.8919 294.692 99.7063C294.324 99.5174 293.908 99.4229 293.444 99.4229C292.98 99.4229 292.563 99.5174 292.191 99.7063C291.824 99.8919 291.532 100.145 291.316 100.467C291.104 100.785 290.998 101.148 290.998 101.556C290.998 101.95 291.099 102.3 291.302 102.605C291.507 102.91 291.794 103.15 292.162 103.326C292.533 103.498 292.96 103.584 293.444 103.584ZM293.444 98.6275C293.842 98.6275 294.198 98.5429 294.513 98.3739C294.828 98.2049 295.077 97.9745 295.259 97.6829C295.445 97.3879 295.539 97.0531 295.542 96.6786C295.539 96.3074 295.446 95.9793 295.264 95.6942C295.082 95.4059 294.833 95.1821 294.518 95.023C294.207 94.8606 293.849 94.7794 293.444 94.7794C293.04 94.7794 292.679 94.8606 292.361 95.023C292.046 95.1821 291.797 95.4059 291.615 95.6942C291.436 95.9793 291.348 96.3074 291.351 96.6786C291.348 97.0531 291.437 97.3879 291.62 97.6829C291.805 97.9745 292.056 98.2049 292.37 98.3739C292.689 98.5429 293.047 98.6275 293.444 98.6275ZM301.052 99.1892C301.052 100.382 300.901 101.509 300.6 102.57C300.298 103.631 299.866 104.625 299.302 105.553H298.497C298.739 105.162 298.959 104.719 299.158 104.225C299.36 103.732 299.534 103.205 299.68 102.644C299.826 102.084 299.938 101.511 300.018 100.924C300.098 100.338 300.137 99.7593 300.137 99.1892C300.137 98.4236 300.068 97.6514 299.929 96.8725C299.789 96.0936 299.595 95.3545 299.347 94.6552C299.102 93.9558 298.818 93.346 298.497 92.8256H299.302C299.866 93.7569 300.298 94.7529 300.6 95.8135C300.901 96.8741 301.052 97.9994 301.052 99.1892Z" fill="white"/>
<path d="M0 12C0 5.37258 5.37258 0 12 0H108.313C111.082 0 113.014 2.74593 112.078 5.35209L102.021 33.3521C101.451 34.9406 99.9445 36 98.2566 36H0V12Z" fill="#FF782F"/>
<path d="M27.0158 19.4102H35.4158V25.8102H33.5758V21.1542H28.7758V25.8902H27.0158V19.4102ZM34.1358 10.8662L35.6078 12.3702C34.8291 12.6689 33.9651 12.9302 33.0158 13.1542C32.0664 13.3675 31.0904 13.5435 30.0878 13.6822C29.0958 13.8209 28.1251 13.9329 27.1758 14.0182C27.1438 13.7942 27.0691 13.5222 26.9518 13.2022C26.8451 12.8715 26.7384 12.5995 26.6318 12.3862C27.3144 12.3115 28.0024 12.2262 28.6958 12.1302C29.3998 12.0342 30.0824 11.9222 30.7438 11.7942C31.4051 11.6662 32.0238 11.5275 32.5998 11.3782C33.1758 11.2182 33.6878 11.0475 34.1358 10.8662ZM30.2958 12.6742H32.1198V20.4182H30.2958V12.6742ZM26.0238 15.5382H36.2158V17.3622H26.0238V15.5382ZM28.2798 23.4902H34.3438V25.2342H28.2798V23.4902ZM22.0718 12.4662L23.1598 11.0742C23.4584 11.2235 23.7944 11.3942 24.1678 11.5862C24.5411 11.7782 24.9038 11.9702 25.2558 12.1622C25.6184 12.3542 25.9118 12.5249 26.1358 12.6742L24.9998 14.2262C24.7864 14.0662 24.5091 13.8849 24.1678 13.6822C23.8264 13.4795 23.4691 13.2715 23.0958 13.0582C22.7224 12.8342 22.3811 12.6369 22.0718 12.4662ZM21.3038 16.8982L22.3438 15.4742C22.6424 15.6022 22.9838 15.7622 23.3678 15.9542C23.7518 16.1462 24.1251 16.3382 24.4878 16.5302C24.8504 16.7115 25.1438 16.8769 25.3678 17.0262L24.2958 18.6262C24.0824 18.4662 23.7998 18.2849 23.4478 18.0822C23.1064 17.8795 22.7438 17.6715 22.3598 17.4582C21.9758 17.2449 21.6238 17.0582 21.3038 16.8982ZM21.5438 24.4182C21.8318 24.0129 22.1464 23.5382 22.4878 22.9942C22.8398 22.4395 23.1971 21.8529 23.5598 21.2342C23.9224 20.6049 24.2638 19.9809 24.5838 19.3622L25.9918 20.6422C25.7144 21.1969 25.4158 21.7675 25.0958 22.3542C24.7864 22.9409 24.4664 23.5169 24.1358 24.0822C23.8158 24.6475 23.4904 25.1915 23.1598 25.7142L21.5438 24.4182ZM44.8078 14.3542H51.0958V16.1942H44.8078V14.3542ZM50.1038 14.3542H51.9758C51.9758 14.3542 51.9758 14.4075 51.9758 14.5142C51.9758 14.6209 51.9704 14.7435 51.9598 14.8822C51.9598 15.0209 51.9598 15.1329 51.9598 15.2182C51.9278 16.8395 51.8851 18.2209 51.8318 19.3622C51.7891 20.4929 51.7358 21.4262 51.6718 22.1622C51.6078 22.8982 51.5278 23.4795 51.4318 23.9062C51.3358 24.3222 51.2238 24.6209 51.0958 24.8022C50.9038 25.0795 50.7064 25.2715 50.5038 25.3782C50.3011 25.4955 50.0558 25.5809 49.7678 25.6342C49.5118 25.6769 49.1918 25.6982 48.8078 25.6982C48.4238 25.7089 48.0238 25.7035 47.6078 25.6822C47.5971 25.4049 47.5384 25.0902 47.4318 24.7382C47.3251 24.3862 47.1918 24.0769 47.0318 23.8102C47.4158 23.8422 47.7678 23.8635 48.0878 23.8742C48.4078 23.8742 48.6531 23.8742 48.8238 23.8742C48.9624 23.8742 49.0744 23.8582 49.1598 23.8262C49.2451 23.7835 49.3304 23.7142 49.4158 23.6182C49.5118 23.4902 49.5918 23.2449 49.6558 22.8822C49.7304 22.5089 49.7944 21.9809 49.8478 21.2982C49.9011 20.6049 49.9438 19.7249 49.9758 18.6582C50.0184 17.5809 50.0611 16.2795 50.1038 14.7542V14.3542ZM46.6158 11.1542H48.5198C48.5198 12.4022 48.5038 13.6129 48.4718 14.7862C48.4504 15.9489 48.3864 17.0635 48.2798 18.1302C48.1731 19.1969 48.0024 20.1995 47.7678 21.1382C47.5331 22.0769 47.2131 22.9462 46.8078 23.7462C46.4131 24.5462 45.8958 25.2609 45.2558 25.8902C45.1598 25.7195 45.0264 25.5382 44.8558 25.3462C44.6958 25.1649 44.5251 24.9889 44.3438 24.8182C44.1624 24.6475 43.9918 24.5142 43.8318 24.4182C44.4078 23.8635 44.8718 23.2342 45.2238 22.5302C45.5864 21.8262 45.8584 21.0529 46.0398 20.2102C46.2318 19.3675 46.3651 18.4662 46.4398 17.5062C46.5251 16.5462 46.5731 15.5382 46.5838 14.4822C46.6051 13.4155 46.6158 12.3062 46.6158 11.1542ZM38.0398 12.1142H44.3278V13.7942H38.0398V12.1142ZM37.5118 15.8262H44.6158V17.5702H37.5118V15.8262ZM42.1038 19.0102L43.6558 18.5942C43.8478 19.0315 44.0398 19.5115 44.2318 20.0342C44.4344 20.5462 44.6211 21.0475 44.7918 21.5382C44.9624 22.0289 45.0904 22.4555 45.1758 22.8182L43.5118 23.3462C43.4371 22.9835 43.3251 22.5515 43.1758 22.0502C43.0264 21.5489 42.8558 21.0315 42.6638 20.4982C42.4824 19.9649 42.2958 19.4689 42.1038 19.0102ZM38.1998 24.1622L38.0078 22.5462L38.8238 21.9382L44.0078 20.7222C44.0184 20.9675 44.0504 21.2502 44.1038 21.5702C44.1678 21.8902 44.2264 22.1462 44.2798 22.3382C43.3091 22.5942 42.4931 22.8129 41.8318 22.9942C41.1704 23.1649 40.6211 23.3142 40.1838 23.4422C39.7571 23.5595 39.4158 23.6609 39.1598 23.7462C38.9038 23.8315 38.7011 23.9062 38.5518 23.9702C38.4131 24.0235 38.2958 24.0875 38.1998 24.1622ZM38.1838 24.1462C38.1624 24.0289 38.1144 23.8635 38.0398 23.6502C37.9758 23.4369 37.9011 23.2235 37.8158 23.0102C37.7304 22.7862 37.6504 22.5942 37.5758 22.4342C37.7358 22.3809 37.8744 22.2635 37.9918 22.0822C38.1198 21.9009 38.2478 21.6662 38.3758 21.3782C38.4398 21.2289 38.5251 20.9942 38.6318 20.6742C38.7491 20.3435 38.8718 19.9595 38.9998 19.5222C39.1278 19.0742 39.2558 18.5995 39.3838 18.0982C39.5118 17.5862 39.6131 17.0795 39.6878 16.5782L41.5758 17.1062C41.4264 17.8102 41.2344 18.5249 40.9998 19.2502C40.7651 19.9649 40.5091 20.6582 40.2318 21.3302C39.9651 21.9915 39.6984 22.5889 39.4318 23.1222V23.1702C39.4318 23.1702 39.3678 23.2022 39.2398 23.2662C39.1118 23.3302 38.9678 23.4155 38.8078 23.5222C38.6478 23.6289 38.5038 23.7409 38.3758 23.8582C38.2478 23.9649 38.1838 24.0609 38.1838 24.1462ZM54.6958 12.1302H59.3198V22.9302H54.6958V21.2182H57.5278V13.8422H54.6958V12.1302ZM54.8078 16.6262H58.0238V18.3062H54.8078V16.6262ZM53.7998 12.1302H55.5918V24.2262H53.7998V12.1302ZM59.9118 13.8262H68.2798V15.7302H59.9118V13.8262ZM64.6958 10.9782H66.6478V23.3462C66.6478 23.9222 66.5731 24.3542 66.4238 24.6422C66.2851 24.9409 66.0344 25.1649 65.6718 25.3142C65.3198 25.4635 64.8558 25.5595 64.2798 25.6022C63.7144 25.6449 63.0318 25.6609 62.2318 25.6502C62.1891 25.3835 62.1038 25.0582 61.9758 24.6742C61.8478 24.3009 61.7091 23.9809 61.5598 23.7142C61.9438 23.7249 62.3118 23.7355 62.6638 23.7462C63.0264 23.7569 63.3464 23.7622 63.6238 23.7622C63.9011 23.7622 64.0984 23.7622 64.2158 23.7622C64.3971 23.7622 64.5198 23.7302 64.5838 23.6662C64.6584 23.6022 64.6958 23.4902 64.6958 23.3302V10.9782ZM60.0878 17.6182L61.6718 16.7862C61.9278 17.1489 62.2104 17.5489 62.5198 17.9862C62.8291 18.4129 63.1171 18.8342 63.3838 19.2502C63.6611 19.6555 63.8904 20.0075 64.0718 20.3062L62.3598 21.2982C62.2104 20.9889 62.0024 20.6209 61.7358 20.1942C61.4798 19.7675 61.2024 19.3302 60.9038 18.8822C60.6158 18.4235 60.3438 18.0022 60.0878 17.6182ZM69.8798 14.7222H71.8638V25.8742H69.8798V14.7222ZM70.1038 11.9062L71.6238 10.9782C71.8691 11.2129 72.1198 11.4742 72.3758 11.7622C72.6424 12.0395 72.8824 12.3222 73.0958 12.6102C73.3198 12.8875 73.4904 13.1489 73.6078 13.3942L71.9918 14.4342C71.8851 14.1995 71.7251 13.9382 71.5118 13.6502C71.3091 13.3515 71.0851 13.0529 70.8398 12.7542C70.6051 12.4449 70.3598 12.1622 70.1038 11.9062ZM74.1678 11.6662H82.8398V13.4582H74.1678V11.6662ZM81.7678 11.6662H83.7518V23.8262C83.7518 24.2742 83.7038 24.6209 83.6078 24.8662C83.5118 25.1222 83.3304 25.3249 83.0638 25.4742C82.7971 25.6129 82.4718 25.6982 82.0878 25.7302C81.7038 25.7729 81.2611 25.7942 80.7598 25.7942C80.7171 25.5489 80.6424 25.2555 80.5358 24.9142C80.4398 24.5835 80.3331 24.3062 80.2158 24.0822C80.4718 24.0929 80.7278 24.0982 80.9838 24.0982C81.2398 24.0982 81.4104 24.0982 81.4958 24.0982C81.6024 24.0982 81.6718 24.0769 81.7038 24.0342C81.7464 23.9915 81.7678 23.9169 81.7678 23.8102V11.6662ZM75.2078 19.9542V21.4902H78.2958V19.9542H75.2078ZM75.2078 16.8982V18.4182H78.2958V16.8982H75.2078ZM73.4958 15.3622H80.0878V23.0262H73.4958V15.3622Z" fill="white"/>
<defs>
<linearGradient id="paint0_linear_3961_394" x1="167.5" y1="12" x2="168" y2="134" gradientUnits="userSpaceOnUse">
<stop stop-color="#93461C"/>
<stop offset="1" stop-color="#FF782F"/>
</linearGradient>
</defs>
</svg>
