<svg width="335" height="134" viewBox="0 0 335 134" fill="none" xmlns="http://www.w3.org/2000/svg">
<rect y="12" width="335" height="122" rx="12" fill="url(#paint0_linear_3961_1152)" fill-opacity="0.8"/>
<rect x="0.5" y="12.5" width="334" height="121" rx="11.5" stroke="#FF782F" stroke-opacity="0.4"/>
<path d="M36.7515 66.6438C36.6952 66.077 36.445 65.6263 36.0008 65.2915C35.5567 64.9568 34.9982 64.7894 34.3254 64.7894C33.8514 64.7894 33.4338 64.8706 33.0726 65.033C32.7146 65.1954 32.4329 65.4208 32.2274 65.7091C32.0252 65.9942 31.9241 66.319 31.9241 66.6836C31.9241 66.952 31.9821 67.1873 32.0981 67.3895C32.2141 67.5917 32.3699 67.7657 32.5655 67.9115C32.7643 68.0541 32.9831 68.1767 33.2217 68.2794C33.4637 68.3822 33.7073 68.4684 33.9525 68.538L35.0264 68.8462C35.3512 68.9357 35.676 69.05 36.0008 69.1892C36.3256 69.3284 36.6223 69.5041 36.8907 69.7162C37.1625 69.925 37.3796 70.1819 37.542 70.4868C37.7077 70.7884 37.7906 71.1514 37.7906 71.5756C37.7906 72.1192 37.6497 72.608 37.368 73.0422C37.0863 73.4764 36.6819 73.8211 36.1549 74.0763C35.628 74.3282 34.9966 74.4542 34.2608 74.4542C33.5681 74.4542 32.9665 74.3398 32.4561 74.1111C31.9457 73.8791 31.5446 73.5593 31.253 73.1516C30.9613 72.7439 30.7972 72.2716 30.7608 71.7347H31.7153C31.7485 72.1357 31.881 72.4755 32.113 72.7539C32.345 73.0323 32.6467 73.2444 33.0179 73.3902C33.3891 73.5328 33.8034 73.604 34.2608 73.604C34.7679 73.604 35.2186 73.5195 35.613 73.3505C36.0108 73.1781 36.3223 72.9395 36.5477 72.6346C36.7764 72.3263 36.8907 71.9684 36.8907 71.5607C36.8907 71.216 36.8012 70.9276 36.6223 70.6956C36.4433 70.4603 36.1931 70.2631 35.8716 70.104C35.5534 69.9449 35.1838 69.8041 34.7629 69.6814L33.5449 69.3235C32.7461 69.0848 32.1263 68.7551 31.6855 68.3341C31.2447 67.9132 31.0243 67.3763 31.0243 66.7233C31.0243 66.1765 31.1701 65.6959 31.4618 65.2816C31.7567 64.864 32.1545 64.5391 32.6549 64.3071C33.1587 64.0718 33.7238 63.9542 34.3503 63.9542C34.9833 63.9542 35.5434 64.0702 36.0307 64.3022C36.5179 64.5342 36.904 64.854 37.189 65.2617C37.4774 65.666 37.6315 66.1267 37.6514 66.6438H36.7515ZM42.8517 66.6438V67.4144H39.2075V66.6438H42.8517ZM40.346 64.8142H41.2359V72.2865C41.2359 72.6047 41.2906 72.855 41.4 73.0373C41.5093 73.2162 41.6519 73.3438 41.8275 73.4201C42.0032 73.493 42.1905 73.5294 42.3893 73.5294C42.5053 73.5294 42.6048 73.5228 42.6876 73.5096C42.7705 73.493 42.8434 73.4764 42.9064 73.4598L43.0953 74.2603C43.0091 74.2934 42.903 74.3232 42.7771 74.3498C42.6512 74.3796 42.4954 74.3945 42.3098 74.3945C41.985 74.3945 41.6717 74.3232 41.3701 74.1807C41.0718 74.0382 40.8266 73.8261 40.6343 73.5444C40.4421 73.2626 40.346 72.913 40.346 72.4954V64.8142ZM46.9943 74.4542C46.5336 74.4542 46.1126 74.3647 45.7315 74.1857C45.3503 74.0034 45.047 73.7416 44.8217 73.4002C44.5963 73.0555 44.4836 72.6379 44.4836 72.1473C44.4836 71.7695 44.5549 71.4513 44.6974 71.1928C44.8399 70.9343 45.0421 70.7221 45.3039 70.5564C45.5657 70.3907 45.8756 70.2598 46.2336 70.1637C46.5916 70.0676 46.986 69.993 47.4168 69.94C47.8444 69.8869 48.2057 69.8405 48.5006 69.8007C48.7989 69.761 49.026 69.698 49.1818 69.6118C49.3375 69.5257 49.4154 69.3864 49.4154 69.1942V69.0152C49.4154 68.4949 49.2596 68.0855 48.9481 67.7873C48.6398 67.4856 48.1957 67.3348 47.6157 67.3348C47.0655 67.3348 46.6164 67.4558 46.2684 67.6978C45.9237 67.9397 45.6818 68.2248 45.5425 68.5529L44.7023 68.2496C44.8747 67.832 45.1133 67.4989 45.4183 67.2503C45.7232 66.9984 46.0646 66.8178 46.4424 66.7084C46.8202 66.5957 47.2031 66.5394 47.5908 66.5394C47.8825 66.5394 48.1858 66.5775 48.5006 66.6537C48.8188 66.73 49.1138 66.8625 49.3856 67.0515C49.6574 67.2371 49.8778 67.4972 50.0468 67.832C50.2158 68.1634 50.3004 68.5844 50.3004 69.0948V74.2802H49.4154V73.0721H49.3607C49.2547 73.2974 49.0972 73.5162 48.8884 73.7283C48.6796 73.9404 48.4178 74.1144 48.1029 74.2503C47.788 74.3862 47.4185 74.4542 46.9943 74.4542ZM47.1136 73.6438C47.5842 73.6438 47.9919 73.5394 48.3366 73.3306C48.6813 73.1218 48.9464 72.845 49.132 72.5003C49.321 72.1523 49.4154 71.7695 49.4154 71.3519V70.2482C49.3491 70.3112 49.2381 70.3675 49.0823 70.4172C48.9299 70.4669 48.7525 70.5117 48.5504 70.5515C48.3515 70.5879 48.1526 70.6194 47.9538 70.6459C47.7549 70.6724 47.5759 70.6956 47.4168 70.7155C46.986 70.7686 46.6181 70.8514 46.3131 70.9641C46.0082 71.0768 45.7746 71.2326 45.6121 71.4314C45.4497 71.627 45.3685 71.8789 45.3685 72.1871C45.3685 72.6511 45.5343 73.0107 45.8657 73.2659C46.1971 73.5178 46.6131 73.6438 47.1136 73.6438ZM52.6544 74.2802V66.6438H53.5145V67.8171H53.5791C53.7316 67.4326 53.9967 67.1227 54.3746 66.8874C54.7557 66.6488 55.1866 66.5294 55.6672 66.5294C55.7401 66.5294 55.8213 66.5311 55.9108 66.5344C56.0003 66.5377 56.0749 66.541 56.1345 66.5444V67.4442C56.0947 67.4376 56.0251 67.4276 55.9257 67.4144C55.8263 67.4011 55.7186 67.3945 55.6026 67.3945C55.2048 67.3945 54.8502 67.479 54.5386 67.648C54.2304 67.8138 53.9868 68.0441 53.8078 68.3391C53.6288 68.6341 53.5394 68.9705 53.5394 69.3483V74.2802H52.6544ZM61.131 66.6438V67.4144H57.4868V66.6438H61.131ZM58.6253 64.8142H59.5152V72.2865C59.5152 72.6047 59.5699 72.855 59.6793 73.0373C59.7886 73.2162 59.9312 73.3438 60.1068 73.4201C60.2825 73.493 60.4697 73.5294 60.6686 73.5294C60.7846 73.5294 60.884 73.5228 60.9669 73.5096C61.0498 73.493 61.1227 73.4764 61.1857 73.4598L61.3746 74.2603C61.2884 74.2934 61.1823 74.3232 61.0564 74.3498C60.9304 74.3796 60.7747 74.3945 60.5891 74.3945C60.2643 74.3945 59.951 74.3232 59.6494 74.1807C59.3511 74.0382 59.1059 73.8261 58.9136 73.5444C58.7214 73.2626 58.6253 72.913 58.6253 72.4954V64.8142ZM66.6457 64.9336V64.0983H74.0285V64.9336H70.802V74.2802H69.8723V64.9336H66.6457ZM75.9476 74.2802V66.6438H76.8375V74.2802H75.9476ZM76.4 65.3313C76.2177 65.3313 76.0619 65.27 75.9326 65.1473C75.8034 65.0214 75.7387 64.8706 75.7387 64.6949C75.7387 64.5193 75.8034 64.3701 75.9326 64.2475C76.0619 64.1215 76.2177 64.0586 76.4 64.0586C76.5823 64.0586 76.738 64.1215 76.8673 64.2475C76.9966 64.3701 77.0612 64.5193 77.0612 64.6949C77.0612 64.8706 76.9966 65.0214 76.8673 65.1473C76.738 65.27 76.5823 65.3313 76.4 65.3313ZM79.1778 74.2802V66.6438H80.0379V67.8171H80.1175C80.2699 67.4227 80.5235 67.1128 80.8781 66.8874C81.2361 66.6587 81.6653 66.5444 82.1658 66.5444C82.6928 66.5444 83.1253 66.6686 83.4634 66.9172C83.8047 67.1625 84.0599 67.5006 84.229 67.9314H84.2936C84.466 67.5072 84.746 67.1708 85.1338 66.9222C85.5249 66.6703 85.9989 66.5444 86.5557 66.5444C87.265 66.5444 87.8251 66.7681 88.2361 67.2155C88.6471 67.6596 88.8526 68.3093 88.8526 69.1644V74.2802H87.9676V69.1644C87.9676 68.5612 87.8135 68.1087 87.5053 67.8071C87.197 67.5055 86.791 67.3547 86.2872 67.3547C85.7039 67.3547 85.2548 67.5337 84.9399 67.8917C84.6251 68.2496 84.4676 68.7037 84.4676 69.2539V74.2802H83.5628V69.0848C83.5628 68.5678 83.4186 68.1502 83.1303 67.832C82.8419 67.5138 82.4359 67.3547 81.9122 67.3547C81.5609 67.3547 81.2444 67.4409 80.9626 67.6132C80.6842 67.7856 80.4638 68.0259 80.3014 68.3341C80.1423 68.6391 80.0628 68.9904 80.0628 69.3881V74.2802H79.1778ZM94.2828 74.4392C93.5702 74.4392 92.9537 74.2735 92.4333 73.9421C91.913 73.6073 91.5103 73.145 91.2253 72.555C90.9435 71.9617 90.8027 71.279 90.8027 70.5067C90.8027 69.7378 90.9435 69.055 91.2253 68.4584C91.5103 67.8585 91.903 67.3895 92.4035 67.0515C92.9073 66.7101 93.489 66.5394 94.1485 66.5394C94.5628 66.5394 94.9622 66.6156 95.3467 66.7681C95.7312 66.9172 96.0759 67.1476 96.3808 67.4591C96.689 67.7674 96.9326 68.1568 97.1116 68.6275C97.2906 69.0948 97.3801 69.6483 97.3801 70.288V70.7255H91.4142V69.9449H96.4753C96.4753 69.4544 96.3758 69.0136 96.177 68.6225C95.9814 68.2281 95.708 67.9165 95.3566 67.6878C95.0086 67.4591 94.6059 67.3448 94.1485 67.3448C93.6646 67.3448 93.2387 67.474 92.8708 67.7326C92.503 67.9911 92.2146 68.3325 92.0058 68.7567C91.8003 69.181 91.6959 69.645 91.6926 70.1488V70.6161C91.6926 71.2226 91.797 71.7529 92.0058 72.207C92.2179 72.6578 92.5179 73.0074 92.9057 73.256C93.2934 73.5046 93.7525 73.6289 94.2828 73.6289C94.6441 73.6289 94.9606 73.5725 95.2324 73.4598C95.5075 73.3471 95.7378 73.1963 95.9234 73.0074C96.1123 72.8152 96.2548 72.6047 96.351 72.376L97.1912 72.6495C97.0752 72.971 96.8846 73.2676 96.6194 73.5394C96.3576 73.8112 96.0295 74.0299 95.6351 74.1956C95.244 74.358 94.7932 74.4392 94.2828 74.4392ZM105.162 66.6642C104.882 66.6642 104.635 66.5708 104.42 66.3842C104.205 66.1882 104.098 65.9315 104.098 65.6142C104.098 65.2968 104.205 65.0448 104.42 64.8582C104.635 64.6622 104.882 64.5642 105.162 64.5642C105.442 64.5642 105.689 64.6622 105.904 64.8582C106.119 65.0448 106.226 65.2968 106.226 65.6142C106.226 65.9315 106.119 66.1882 105.904 66.3842C105.689 66.5708 105.442 66.6642 105.162 66.6642ZM105.162 73.5242C104.882 73.5242 104.635 73.4308 104.42 73.2442C104.205 73.0482 104.098 72.7915 104.098 72.4742C104.098 72.1475 104.205 71.8908 104.42 71.7042C104.635 71.5082 104.882 71.4102 105.162 71.4102C105.442 71.4102 105.689 71.5082 105.904 71.7042C106.119 71.8908 106.226 72.1475 106.226 72.4742C106.226 72.7915 106.119 73.0482 105.904 73.2442C105.689 73.4308 105.442 73.5242 105.162 73.5242ZM117.372 64.0983H118.302V71.4414C118.298 72.1043 118.179 72.6578 117.944 73.1019C117.709 73.5427 117.384 73.8725 116.969 74.0912C116.555 74.31 116.079 74.4194 115.543 74.4194C115.016 74.4194 114.545 74.3216 114.131 74.126C113.716 73.9305 113.39 73.6554 113.151 73.3007C112.916 72.9461 112.798 72.5302 112.798 72.0529H113.713C113.713 72.3545 113.793 72.6213 113.952 72.8533C114.111 73.082 114.328 73.261 114.603 73.3902C114.881 73.5195 115.195 73.5841 115.543 73.5841C115.904 73.5841 116.22 73.5079 116.492 73.3554C116.767 73.203 116.983 72.9693 117.138 72.6544C117.294 72.3363 117.372 71.9319 117.372 71.4414V64.0983ZM125.675 71.3618V66.6438H126.56V74.2802H125.675V73.0124H125.605C125.426 73.4035 125.143 73.73 124.755 73.9918C124.367 74.2503 123.893 74.3796 123.333 74.3796C122.846 74.3796 122.413 74.2735 122.035 74.0614C121.658 73.846 121.361 73.5311 121.146 73.1168C120.93 72.7025 120.822 72.1937 120.822 71.5905V66.6438H121.707V71.5358C121.707 72.1324 121.883 72.613 122.234 72.9776C122.586 73.3389 123.036 73.5195 123.587 73.5195C123.931 73.5195 124.263 73.4366 124.581 73.2709C124.899 73.1052 125.161 72.8632 125.366 72.5451C125.572 72.2236 125.675 71.8292 125.675 71.3618ZM129.787 69.5074V74.2802H128.902V66.6438H129.763V67.8419H129.842C130.021 67.4508 130.299 67.1376 130.677 66.9023C131.058 66.6637 131.529 66.5444 132.089 66.5444C132.603 66.5444 133.054 66.6521 133.442 66.8675C133.833 67.0796 134.136 67.3928 134.351 67.8071C134.57 68.2214 134.679 68.7302 134.679 69.3334V74.2802H133.795V69.3881C133.795 68.7617 133.619 68.2662 133.268 67.9016C132.92 67.537 132.452 67.3547 131.866 67.3547C131.464 67.3547 131.108 67.4409 130.797 67.6132C130.485 67.7856 130.238 68.0342 130.056 68.359C129.877 68.6805 129.787 69.0633 129.787 69.5074ZM140.097 74.4392C139.385 74.4392 138.768 74.2735 138.248 73.9421C137.727 73.6073 137.325 73.145 137.04 72.555C136.758 71.9617 136.617 71.279 136.617 70.5067C136.617 69.7378 136.758 69.055 137.04 68.4584C137.325 67.8585 137.717 67.3895 138.218 67.0515C138.722 66.7101 139.303 66.5394 139.963 66.5394C140.377 66.5394 140.777 66.6156 141.161 66.7681C141.546 66.9172 141.89 67.1476 142.195 67.4591C142.503 67.7674 142.747 68.1568 142.926 68.6275C143.105 69.0948 143.195 69.6483 143.195 70.288V70.7255H137.229V69.9449H142.29C142.29 69.4544 142.19 69.0136 141.991 68.6225C141.796 68.2281 141.522 67.9165 141.171 67.6878C140.823 67.4591 140.42 67.3448 139.963 67.3448C139.479 67.3448 139.053 67.474 138.685 67.7326C138.317 67.9911 138.029 68.3325 137.82 68.7567C137.615 69.181 137.51 69.645 137.507 70.1488V70.6161C137.507 71.2226 137.611 71.7529 137.82 72.207C138.032 72.6578 138.332 73.0074 138.72 73.256C139.108 73.5046 139.567 73.6289 140.097 73.6289C140.459 73.6289 140.775 73.5725 141.047 73.4598C141.322 73.3471 141.552 73.1963 141.738 73.0074C141.927 72.8152 142.069 72.6047 142.165 72.376L143.006 72.6495C142.89 72.971 142.699 73.2676 142.434 73.5394C142.172 73.8112 141.844 74.0299 141.45 74.1956C141.058 74.358 140.608 74.4392 140.097 74.4392ZM149.047 74.2802V73.599L152.373 69.8604C152.808 69.3699 153.157 68.9506 153.422 68.6026C153.687 68.2546 153.88 67.9331 153.999 67.6381C154.122 67.3431 154.183 67.0365 154.183 66.7184C154.183 66.3306 154.092 65.9925 153.91 65.7042C153.731 65.4125 153.484 65.1855 153.169 65.023C152.854 64.8606 152.499 64.7794 152.105 64.7794C151.687 64.7794 151.321 64.8689 151.006 65.0479C150.695 65.2269 150.453 65.4721 150.28 65.7837C150.108 66.0953 150.022 66.4532 150.022 66.8576H149.132C149.132 66.2941 149.261 65.7953 149.52 65.3611C149.781 64.9236 150.138 64.5806 150.589 64.332C151.043 64.0834 151.556 63.9591 152.13 63.9591C152.696 63.9591 153.2 64.0818 153.641 64.327C154.082 64.569 154.428 64.8988 154.68 65.3164C154.932 65.734 155.058 66.2013 155.058 66.7184C155.058 67.0929 154.992 67.4558 154.859 67.8071C154.73 68.1585 154.506 68.5496 154.188 68.9804C153.87 69.4113 153.429 69.9383 152.866 70.5614L150.34 73.3803V73.4449H155.376V74.2802H149.047ZM160.799 74.4194C160.378 74.416 159.967 74.3315 159.566 74.1658C159.165 73.9968 158.804 73.7266 158.482 73.3554C158.161 72.9809 157.905 72.4871 157.717 71.8739C157.528 71.2607 157.433 70.5067 157.433 69.6118C157.433 68.7832 157.506 68.0242 157.652 67.3348C157.798 66.6454 158.017 66.0489 158.308 65.5451C158.6 65.0413 158.964 64.6518 159.402 64.3767C159.839 64.0983 160.351 63.9591 160.938 63.9591C161.488 63.9591 161.974 64.0735 162.395 64.3022C162.816 64.5275 163.157 64.8424 163.419 65.2468C163.681 65.6511 163.845 66.1168 163.911 66.6438H162.996C162.904 66.1069 162.683 65.6644 162.335 65.3164C161.987 64.9684 161.521 64.7944 160.938 64.7944C160.103 64.7944 159.457 65.1821 158.999 65.9577C158.542 66.73 158.311 67.827 158.308 69.2489H158.373C158.535 68.9473 158.744 68.6871 158.999 68.4684C159.258 68.2463 159.551 68.0739 159.879 67.9513C160.207 67.8254 160.552 67.7624 160.913 67.7624C161.48 67.7624 161.999 67.9066 162.469 68.1949C162.94 68.48 163.316 68.8727 163.598 69.3732C163.88 69.8704 164.021 70.4388 164.021 71.0784C164.021 71.685 163.886 72.2435 163.618 72.7539C163.353 73.2643 162.978 73.6703 162.494 73.9719C162.014 74.2735 161.449 74.4227 160.799 74.4194ZM160.799 73.5841C161.243 73.5841 161.639 73.4714 161.987 73.2461C162.338 73.0207 162.615 72.7191 162.817 72.3412C163.02 71.9601 163.121 71.5391 163.121 71.0784C163.121 70.6177 163.02 70.2001 162.817 69.8256C162.615 69.4511 162.338 69.1528 161.987 68.9307C161.639 68.7087 161.243 68.5976 160.799 68.5976C160.461 68.5976 160.146 68.6672 159.854 68.8064C159.563 68.9423 159.309 69.1296 159.094 69.3682C158.882 69.6035 158.719 69.8737 158.606 70.1786C158.497 70.4835 158.456 70.8034 158.482 71.1381C158.519 71.6054 158.64 72.0247 158.845 72.3959C159.054 72.7638 159.326 73.0538 159.66 73.2659C159.999 73.4781 160.378 73.5841 160.799 73.5841ZM167.151 72.8881L167.062 73.4201C167.006 73.778 166.926 74.1724 166.823 74.6033C166.721 75.0342 166.614 75.4435 166.505 75.8313C166.396 76.2191 166.301 76.5306 166.222 76.7659H165.541C165.584 76.5406 165.638 76.2539 165.705 75.9059C165.774 75.5579 165.846 75.1717 165.918 74.7475C165.991 74.3266 166.058 73.8924 166.117 73.4449L166.187 72.8881H167.151ZM173.397 74.2802V73.599L176.723 69.8604C177.157 69.3699 177.507 68.9506 177.772 68.6026C178.037 68.2546 178.229 67.9331 178.349 67.6381C178.471 67.3431 178.533 67.0365 178.533 66.7184C178.533 66.3306 178.441 65.9925 178.259 65.7042C178.08 65.4125 177.833 65.1855 177.518 65.023C177.204 64.8606 176.849 64.7794 176.454 64.7794C176.037 64.7794 175.671 64.8689 175.356 65.0479C175.044 65.2269 174.802 65.4721 174.63 65.7837C174.458 66.0953 174.371 66.4532 174.371 66.8576H173.481C173.481 66.2941 173.611 65.7953 173.869 65.3611C174.131 64.9236 174.487 64.5806 174.938 64.332C175.392 64.0834 175.906 63.9591 176.479 63.9591C177.046 63.9591 177.55 64.0818 177.991 64.327C178.432 64.569 178.778 64.8988 179.03 65.3164C179.282 65.734 179.408 66.2013 179.408 66.7184C179.408 67.0929 179.341 67.4558 179.209 67.8071C179.079 68.1585 178.856 68.5496 178.538 68.9804C178.219 69.4113 177.779 69.9383 177.215 70.5614L174.69 73.3803V73.4449H179.726V74.2802H173.397ZM185.104 74.4194C184.388 74.4194 183.776 74.2139 183.269 73.8029C182.765 73.3886 182.378 72.7903 182.106 72.0081C181.837 71.2259 181.703 70.2863 181.703 69.1892C181.703 68.0955 181.837 67.1592 182.106 66.3803C182.378 65.5981 182.767 64.9998 183.274 64.5855C183.785 64.1679 184.395 63.9591 185.104 63.9591C185.813 63.9591 186.421 64.1679 186.928 64.5855C187.439 64.9998 187.828 65.5981 188.097 66.3803C188.368 67.1592 188.504 68.0955 188.504 69.1892C188.504 70.2863 188.368 71.2259 188.097 72.0081C187.828 72.7903 187.44 73.3886 186.933 73.8029C186.43 74.2139 185.82 74.4194 185.104 74.4194ZM185.104 73.5841C185.889 73.5841 186.502 73.2013 186.943 72.4357C187.384 71.6668 187.605 70.5846 187.605 69.1892C187.605 68.2612 187.503 67.4691 187.301 66.8128C187.102 66.1533 186.816 65.6495 186.441 65.3015C186.07 64.9534 185.624 64.7794 185.104 64.7794C184.325 64.7794 183.713 65.1672 183.269 65.9428C182.825 66.715 182.603 67.7972 182.603 69.1892C182.603 70.1173 182.703 70.9094 182.901 71.5657C183.104 72.2219 183.39 72.7224 183.761 73.0671C184.136 73.4118 184.583 73.5841 185.104 73.5841ZM190.528 74.2802V73.599L193.854 69.8604C194.288 69.3699 194.638 68.9506 194.903 68.6026C195.168 68.2546 195.36 67.9331 195.48 67.6381C195.602 67.3431 195.663 67.0365 195.663 66.7184C195.663 66.3306 195.572 65.9925 195.39 65.7042C195.211 65.4125 194.964 65.1855 194.649 65.023C194.334 64.8606 193.98 64.7794 193.585 64.7794C193.168 64.7794 192.801 64.8689 192.487 65.0479C192.175 65.2269 191.933 65.4721 191.761 65.7837C191.588 66.0953 191.502 66.4532 191.502 66.8576H190.612C190.612 66.2941 190.742 65.7953 191 65.3611C191.262 64.9236 191.618 64.5806 192.069 64.332C192.523 64.0834 193.037 63.9591 193.61 63.9591C194.177 63.9591 194.681 64.0818 195.122 64.327C195.562 64.569 195.909 64.8988 196.161 65.3164C196.413 65.734 196.538 66.2013 196.538 66.7184C196.538 67.0929 196.472 67.4558 196.34 67.8071C196.21 68.1585 195.987 68.5496 195.668 68.9804C195.35 69.4113 194.909 69.9383 194.346 70.5614L191.82 73.3803V73.4449H196.857V74.2802H190.528ZM202.051 74.4194C201.484 74.4194 200.977 74.305 200.529 74.0763C200.085 73.8443 199.731 73.5261 199.465 73.1218C199.204 72.7174 199.064 72.2551 199.048 71.7347H199.948C199.978 72.2749 200.19 72.7191 200.584 73.0671C200.979 73.4118 201.467 73.5841 202.051 73.5841C202.505 73.5841 202.909 73.4764 203.264 73.261C203.618 73.0422 203.895 72.7439 204.094 72.3661C204.296 71.9849 204.397 71.5557 204.397 71.0784C204.394 70.5813 204.286 70.1438 204.074 69.7659C203.862 69.3848 203.574 69.0865 203.209 68.8711C202.848 68.6556 202.442 68.5479 201.991 68.5479C201.65 68.5446 201.315 68.6009 200.987 68.7169C200.659 68.8329 200.385 68.9821 200.166 69.1644L199.237 69.0451L199.848 64.0983H204.88V64.9336H200.629L200.221 68.3391H200.271C200.496 68.1502 200.77 67.9961 201.091 67.8767C201.416 67.7574 201.759 67.6978 202.12 67.6978C202.72 67.6978 203.259 67.8419 203.736 68.1303C204.217 68.4186 204.596 68.8164 204.875 69.3235C205.156 69.8273 205.297 70.4073 205.297 71.0635C205.297 71.7065 205.156 72.2816 204.875 72.7887C204.596 73.2925 204.212 73.6902 203.721 73.9819C203.234 74.2735 202.677 74.4194 202.051 74.4194ZM208.509 72.8881L208.419 73.4201C208.363 73.778 208.283 74.1724 208.181 74.6033C208.078 75.0342 207.972 75.4435 207.863 75.8313C207.753 76.2191 207.659 76.5306 207.579 76.7659H206.898C206.941 76.5406 206.996 76.2539 207.062 75.9059C207.132 75.5579 207.203 75.1717 207.276 74.7475C207.349 74.3266 207.415 73.8924 207.475 73.4449L207.544 72.8881H208.509ZM217.916 74.4194C217.2 74.4194 216.589 74.2139 216.082 73.8029C215.578 73.3886 215.19 72.7903 214.918 72.0081C214.65 71.2259 214.516 70.2863 214.516 69.1892C214.516 68.0955 214.65 67.1592 214.918 66.3803C215.19 65.5981 215.58 64.9998 216.087 64.5855C216.597 64.1679 217.207 63.9591 217.916 63.9591C218.626 63.9591 219.234 64.1679 219.741 64.5855C220.251 64.9998 220.641 65.5981 220.909 66.3803C221.181 67.1592 221.317 68.0955 221.317 69.1892C221.317 70.2863 221.181 71.2259 220.909 72.0081C220.641 72.7903 220.253 73.3886 219.746 73.8029C219.242 74.2139 218.632 74.4194 217.916 74.4194ZM217.916 73.5841C218.702 73.5841 219.315 73.2013 219.756 72.4357C220.197 71.6668 220.417 70.5846 220.417 69.1892C220.417 68.2612 220.316 67.4691 220.114 66.8128C219.915 66.1533 219.628 65.6495 219.254 65.3015C218.882 64.9534 218.437 64.7794 217.916 64.7794C217.137 64.7794 216.526 65.1672 216.082 65.9428C215.638 66.715 215.416 67.7972 215.416 69.1892C215.416 70.1173 215.515 70.9094 215.714 71.5657C215.916 72.2219 216.203 72.7224 216.574 73.0671C216.949 73.4118 217.396 73.5841 217.916 73.5841ZM226.502 74.4194C225.786 74.4194 225.175 74.2139 224.668 73.8029C224.164 73.3886 223.776 72.7903 223.504 72.0081C223.236 71.2259 223.102 70.2863 223.102 69.1892C223.102 68.0955 223.236 67.1592 223.504 66.3803C223.776 65.5981 224.166 64.9998 224.673 64.5855C225.183 64.1679 225.793 63.9591 226.502 63.9591C227.212 63.9591 227.82 64.1679 228.327 64.5855C228.837 64.9998 229.227 65.5981 229.495 66.3803C229.767 67.1592 229.903 68.0955 229.903 69.1892C229.903 70.2863 229.767 71.2259 229.495 72.0081C229.227 72.7903 228.839 73.3886 228.332 73.8029C227.828 74.2139 227.218 74.4194 226.502 74.4194ZM226.502 73.5841C227.288 73.5841 227.901 73.2013 228.342 72.4357C228.783 71.6668 229.003 70.5846 229.003 69.1892C229.003 68.2612 228.902 67.4691 228.7 66.8128C228.501 66.1533 228.214 65.6495 227.84 65.3015C227.468 64.9534 227.023 64.7794 226.502 64.7794C225.723 64.7794 225.112 65.1672 224.668 65.9428C224.224 66.715 224.002 67.7972 224.002 69.1892C224.002 70.1173 224.101 70.9094 224.3 71.5657C224.502 72.2219 224.789 72.7224 225.16 73.0671C225.534 73.4118 225.982 73.5841 226.502 73.5841ZM232.667 72.7539C232.471 72.7539 232.302 72.6843 232.16 72.5451C232.021 72.4025 231.951 72.2335 231.951 72.038C231.951 71.8391 232.021 71.6701 232.16 71.5309C232.302 71.3917 232.471 71.3221 232.667 71.3221C232.866 71.3221 233.035 71.3917 233.174 71.5309C233.313 71.6701 233.383 71.8391 233.383 72.038C233.383 72.1672 233.35 72.2865 233.283 72.3959C233.221 72.5053 233.134 72.5931 233.025 72.6594C232.919 72.7224 232.8 72.7539 232.667 72.7539ZM232.667 67.5884C232.471 67.5884 232.302 67.5188 232.16 67.3796C232.021 67.2371 231.951 67.068 231.951 66.8725C231.951 66.6769 232.021 66.5096 232.16 66.3704C232.302 66.2278 232.471 66.1566 232.667 66.1566C232.866 66.1566 233.035 66.2278 233.174 66.3704C233.313 66.5096 233.383 66.6769 233.383 66.8725C233.383 67.0017 233.35 67.1211 233.283 67.2304C233.221 67.3398 233.134 67.4276 233.025 67.4939C232.919 67.5569 232.8 67.5884 232.667 67.5884ZM238.848 74.4194C238.132 74.4194 237.521 74.2139 237.013 73.8029C236.51 73.3886 236.122 72.7903 235.85 72.0081C235.582 71.2259 235.447 70.2863 235.447 69.1892C235.447 68.0955 235.582 67.1592 235.85 66.3803C236.122 65.5981 236.511 64.9998 237.018 64.5855C237.529 64.1679 238.139 63.9591 238.848 63.9591C239.557 63.9591 240.165 64.1679 240.673 64.5855C241.183 64.9998 241.572 65.5981 241.841 66.3803C242.113 67.1592 242.249 68.0955 242.249 69.1892C242.249 70.2863 242.113 71.2259 241.841 72.0081C241.572 72.7903 241.185 73.3886 240.677 73.8029C240.174 74.2139 239.564 74.4194 238.848 74.4194ZM238.848 73.5841C239.633 73.5841 240.247 73.2013 240.687 72.4357C241.128 71.6668 241.349 70.5846 241.349 69.1892C241.349 68.2612 241.248 67.4691 241.045 66.8128C240.847 66.1533 240.56 65.6495 240.185 65.3015C239.814 64.9534 239.368 64.7794 238.848 64.7794C238.069 64.7794 237.458 65.1672 237.013 65.9428C236.569 66.715 236.347 67.7972 236.347 69.1892C236.347 70.1173 236.447 70.9094 236.646 71.5657C236.848 72.2219 237.134 72.7224 237.506 73.0671C237.88 73.4118 238.328 73.5841 238.848 73.5841ZM247.434 74.4194C246.718 74.4194 246.106 74.2139 245.599 73.8029C245.096 73.3886 244.708 72.7903 244.436 72.0081C244.168 71.2259 244.033 70.2863 244.033 69.1892C244.033 68.0955 244.168 67.1592 244.436 66.3803C244.708 65.5981 245.097 64.9998 245.604 64.5855C246.115 64.1679 246.725 63.9591 247.434 63.9591C248.143 63.9591 248.751 64.1679 249.258 64.5855C249.769 64.9998 250.158 65.5981 250.427 66.3803C250.699 67.1592 250.834 68.0955 250.834 69.1892C250.834 70.2863 250.699 71.2259 250.427 72.0081C250.158 72.7903 249.771 73.3886 249.263 73.8029C248.76 74.2139 248.15 74.4194 247.434 74.4194ZM247.434 73.5841C248.219 73.5841 248.833 73.2013 249.273 72.4357C249.714 71.6668 249.935 70.5846 249.935 69.1892C249.935 68.2612 249.834 67.4691 249.631 66.8128C249.432 66.1533 249.146 65.6495 248.771 65.3015C248.4 64.9534 247.954 64.7794 247.434 64.7794C246.655 64.7794 246.043 65.1672 245.599 65.9428C245.155 66.715 244.933 67.7972 244.933 69.1892C244.933 70.1173 245.033 70.9094 245.231 71.5657C245.434 72.2219 245.72 72.7224 246.092 73.0671C246.466 73.4118 246.914 73.5841 247.434 73.5841ZM257.198 69.1892C257.198 67.9961 257.349 66.8692 257.651 65.8086C257.952 64.748 258.385 63.7536 258.948 62.8256H259.753C259.512 63.2167 259.289 63.6592 259.087 64.153C258.888 64.6469 258.716 65.1739 258.57 65.734C258.424 66.2941 258.312 66.8675 258.232 67.4542C258.153 68.0375 258.113 68.6159 258.113 69.1892C258.113 69.9549 258.182 70.7271 258.322 71.506C258.461 72.2849 258.653 73.024 258.898 73.7233C259.147 74.4227 259.432 75.0325 259.753 75.5529H258.948C258.385 74.6215 257.952 73.6256 257.651 72.565C257.349 71.5043 257.198 70.3791 257.198 69.1892ZM268.654 64.0983H269.584V70.8398C269.584 71.5325 269.421 72.1523 269.096 72.6992C268.772 73.2427 268.319 73.672 267.739 73.9868C267.162 74.2984 266.491 74.4542 265.726 74.4542C264.963 74.4542 264.292 74.2967 263.712 73.9819C263.132 73.667 262.68 73.2378 262.355 72.6942C262.03 72.1507 261.868 71.5325 261.868 70.8398V64.0983H262.797V70.7752C262.797 71.3154 262.918 71.7977 263.16 72.2219C263.402 72.6428 263.742 72.9743 264.179 73.2162C264.62 73.4582 265.136 73.5792 265.726 73.5792C266.316 73.5792 266.831 73.4582 267.272 73.2162C267.713 72.9743 268.052 72.6428 268.291 72.2219C268.533 71.7977 268.654 71.3154 268.654 70.7752V64.0983ZM271.669 64.9336V64.0983H279.052V64.9336H275.825V74.2802H274.896V64.9336H271.669ZM288.696 67.2802H287.761C287.691 66.9321 287.565 66.6106 287.383 66.3157C287.204 66.0174 286.979 65.7572 286.707 65.5351C286.435 65.3131 286.127 65.1407 285.782 65.0181C285.438 64.8954 285.065 64.8341 284.664 64.8341C284.021 64.8341 283.434 65.0015 282.904 65.3363C282.377 65.671 281.954 66.1632 281.636 66.8128C281.321 67.4591 281.164 68.2513 281.164 69.1892C281.164 70.1338 281.321 70.9293 281.636 71.5756C281.954 72.2219 282.377 72.7124 282.904 73.0472C283.434 73.3786 284.021 73.5444 284.664 73.5444C285.065 73.5444 285.438 73.483 285.782 73.3604C286.127 73.2378 286.435 73.0671 286.707 72.8483C286.979 72.6263 287.204 72.3661 287.383 72.0678C287.565 71.7695 287.691 71.4463 287.761 71.0983H288.696C288.613 71.5657 288.457 72.0015 288.228 72.4059C288.003 72.8069 287.715 73.1582 287.363 73.4598C287.015 73.7614 286.614 73.9968 286.16 74.1658C285.706 74.3348 285.207 74.4194 284.664 74.4194C283.809 74.4194 283.05 74.2056 282.387 73.778C281.724 73.3471 281.203 72.7406 280.826 71.9584C280.451 71.1762 280.264 70.2532 280.264 69.1892C280.264 68.1253 280.451 67.2023 280.826 66.4201C281.203 65.6379 281.724 65.033 282.387 64.6054C283.05 64.1746 283.809 63.9591 284.664 63.9591C285.207 63.9591 285.706 64.0436 286.16 64.2127C286.614 64.3784 287.015 64.6137 287.363 64.9186C287.715 65.2203 288.003 65.5716 288.228 65.9726C288.457 66.3737 288.613 66.8095 288.696 67.2802ZM293.663 72.3512V66.0522H294.514V72.3512H293.663ZM290.939 69.6267V68.7766H297.238V69.6267H290.939ZM302.927 74.4194C302.277 74.4194 301.699 74.2967 301.192 74.0515C300.685 73.8062 300.287 73.4714 299.999 73.0472C299.71 72.6196 299.566 72.1374 299.566 71.6005C299.566 71.1795 299.654 70.7868 299.829 70.4222C300.005 70.0543 300.247 69.7461 300.555 69.4975C300.864 69.2456 301.21 69.0815 301.594 69.0053V68.9506C301.094 68.8048 300.691 68.5181 300.386 68.0905C300.081 67.6596 299.931 67.1708 299.934 66.6239C299.931 66.1168 300.06 65.6627 300.322 65.2617C300.584 64.8606 300.94 64.5441 301.391 64.3121C301.845 64.0768 302.357 63.9591 302.927 63.9591C303.494 63.9591 304.002 64.0768 304.453 64.3121C304.904 64.5441 305.26 64.8606 305.522 65.2617C305.787 65.6627 305.921 66.1168 305.925 66.6239C305.921 67.1675 305.767 67.6563 305.462 68.0905C305.157 68.5214 304.756 68.8081 304.259 68.9506V69.0053C304.644 69.0782 304.988 69.2406 305.293 69.4925C305.598 69.7444 305.84 70.0543 306.019 70.4222C306.198 70.7868 306.288 71.1795 306.288 71.6005C306.288 72.1374 306.142 72.6196 305.85 73.0472C305.562 73.4714 305.164 73.8062 304.657 74.0515C304.153 74.2967 303.576 74.4194 302.927 74.4194ZM302.927 73.5841C303.411 73.5841 303.835 73.498 304.2 73.3256C304.567 73.1499 304.854 72.9096 305.06 72.6047C305.268 72.2998 305.373 71.9501 305.373 71.5557C305.373 71.148 305.265 70.7851 305.05 70.4669C304.834 70.1454 304.543 69.8919 304.175 69.7063C303.807 69.5174 303.391 69.4229 302.927 69.4229C302.463 69.4229 302.045 69.5174 301.674 69.7063C301.306 69.8919 301.014 70.1454 300.799 70.4669C300.587 70.7851 300.481 71.148 300.481 71.5557C300.481 71.9501 300.582 72.2998 300.784 72.6047C300.99 72.9096 301.276 73.1499 301.644 73.3256C302.015 73.498 302.443 73.5841 302.927 73.5841ZM302.927 68.6275C303.325 68.6275 303.681 68.5429 303.996 68.3739C304.311 68.2049 304.559 67.9745 304.741 67.6829C304.927 67.3879 305.021 67.0531 305.025 66.6786C305.021 66.3074 304.929 65.9793 304.746 65.6942C304.564 65.4059 304.316 65.1821 304.001 65.023C303.689 64.8606 303.331 64.7794 302.927 64.7794C302.522 64.7794 302.161 64.8606 301.843 65.023C301.528 65.1821 301.28 65.4059 301.097 65.6942C300.918 65.9793 300.83 66.3074 300.834 66.6786C300.83 67.0531 300.92 67.3879 301.102 67.6829C301.288 67.9745 301.538 68.2049 301.853 68.3739C302.171 68.5429 302.529 68.6275 302.927 68.6275ZM310.535 69.1892C310.535 70.3824 310.384 71.5093 310.082 72.5699C309.781 73.6305 309.348 74.6248 308.785 75.5529H307.979C308.221 75.1618 308.442 74.7193 308.64 74.2255C308.843 73.7316 309.017 73.2046 309.162 72.6445C309.308 72.0844 309.421 71.511 309.5 70.9243C309.58 70.3377 309.62 69.7593 309.62 69.1892C309.62 68.4236 309.55 67.6514 309.411 66.8725C309.272 66.0936 309.078 65.3545 308.829 64.6552C308.584 63.9558 308.301 63.346 307.979 62.8256H308.785C309.348 63.7569 309.781 64.7529 310.082 65.8135C310.384 66.8741 310.535 67.9994 310.535 69.1892ZM31.2231 104.28V94.0983H37.1294V94.9336H32.1528V98.7667H36.8162V99.6019H32.1528V103.445H37.2288V104.28H31.2231ZM40.2366 99.5074V104.28H39.3517V96.6438H40.2118V97.8419H40.2913C40.4703 97.4508 40.7487 97.1376 41.1265 96.9023C41.5077 96.6637 41.9783 96.5444 42.5385 96.5444C43.0522 96.5444 43.503 96.6521 43.8907 96.8675C44.2818 97.0796 44.5851 97.3928 44.8005 97.8071C45.0193 98.2214 45.1287 98.7302 45.1287 99.3334V104.28H44.2437V99.3881C44.2437 98.7617 44.0681 98.2662 43.7167 97.9016C43.3687 97.537 42.9014 97.3547 42.3147 97.3547C41.9137 97.3547 41.5574 97.4409 41.2458 97.6132C40.9343 97.7856 40.6874 98.0342 40.5051 98.359C40.3261 98.6805 40.2366 99.0633 40.2366 99.5074ZM50.2084 104.439C49.582 104.439 49.0334 104.274 48.5628 103.942C48.0921 103.611 47.7242 103.148 47.4591 102.555C47.1973 101.962 47.0663 101.271 47.0663 100.482C47.0663 99.6963 47.1973 99.0086 47.4591 98.4186C47.7242 97.8254 48.0938 97.3647 48.5678 97.0365C49.0417 96.7051 49.5936 96.5394 50.2233 96.5394C50.6873 96.5394 51.0734 96.6222 51.3817 96.788C51.6899 96.9504 51.9368 97.1525 52.1224 97.3945C52.3081 97.6364 52.4522 97.8718 52.555 98.1005H52.6345V94.0983H53.5244V104.28H52.6594V102.863H52.555C52.4522 103.095 52.3064 103.334 52.1175 103.579C51.9286 103.821 51.6783 104.025 51.3668 104.191C51.0585 104.356 50.6724 104.439 50.2084 104.439ZM50.3128 103.629C50.8066 103.629 51.2276 103.495 51.5756 103.226C51.9236 102.954 52.1887 102.582 52.371 102.108C52.5566 101.63 52.6494 101.083 52.6494 100.467C52.6494 99.8571 52.5583 99.3185 52.376 98.8512C52.1937 98.3805 51.9286 98.0126 51.5805 97.7475C51.2325 97.479 50.8099 97.3448 50.3128 97.3448C49.8024 97.3448 49.3715 97.484 49.0202 97.7624C48.6722 98.0375 48.407 98.4104 48.2247 98.881C48.0457 99.3516 47.9563 99.8803 47.9563 100.467C47.9563 101.06 48.0474 101.595 48.2297 102.073C48.412 102.55 48.6771 102.93 49.0251 103.211C49.3765 103.49 49.8057 103.629 50.3128 103.629ZM59.55 94.9336V94.0983H66.9328V94.9336H63.7063V104.28H62.7766V94.9336H59.55ZM68.8519 104.28V96.6438H69.7418V104.28H68.8519ZM69.3043 95.3313C69.122 95.3313 68.9662 95.27 68.8369 95.1473C68.7077 95.0214 68.643 94.8706 68.643 94.6949C68.643 94.5193 68.7077 94.3701 68.8369 94.2475C68.9662 94.1215 69.122 94.0586 69.3043 94.0586C69.4866 94.0586 69.6423 94.1215 69.7716 94.2475C69.9009 94.3701 69.9655 94.5193 69.9655 94.6949C69.9655 94.8706 69.9009 95.0214 69.7716 95.1473C69.6423 95.27 69.4866 95.3313 69.3043 95.3313ZM72.0821 104.28V96.6438H72.9422V97.8171H73.0218C73.1742 97.4227 73.4278 97.1128 73.7824 96.8874C74.1404 96.6587 74.5696 96.5444 75.0701 96.5444C75.5971 96.5444 76.0296 96.6686 76.3677 96.9172C76.709 97.1625 76.9642 97.5006 77.1333 97.9314H77.1979C77.3703 97.5072 77.6503 97.1708 78.0381 96.9222C78.4292 96.6703 78.9032 96.5444 79.46 96.5444C80.1693 96.5444 80.7294 96.7681 81.1404 97.2155C81.5514 97.6596 81.7569 98.3093 81.7569 99.1644V104.28H80.8719V99.1644C80.8719 98.5612 80.7178 98.1087 80.4096 97.8071C80.1013 97.5055 79.6953 97.3547 79.1915 97.3547C78.6082 97.3547 78.1591 97.5337 77.8442 97.8917C77.5293 98.2496 77.3719 98.7037 77.3719 99.2539V104.28H76.4671V99.0848C76.4671 98.5678 76.3229 98.1502 76.0346 97.832C75.7462 97.5138 75.3402 97.3547 74.8165 97.3547C74.4652 97.3547 74.1487 97.4409 73.8669 97.6132C73.5885 97.7856 73.3681 98.0259 73.2057 98.3341C73.0466 98.6391 72.9671 98.9904 72.9671 99.3881V104.28H72.0821ZM87.1871 104.439C86.4745 104.439 85.858 104.274 85.3376 103.942C84.8173 103.607 84.4146 103.145 84.1295 102.555C83.8478 101.962 83.707 101.279 83.707 100.507C83.707 99.7378 83.8478 99.055 84.1295 98.4584C84.4146 97.8585 84.8073 97.3895 85.3078 97.0515C85.8116 96.7101 86.3933 96.5394 87.0528 96.5394C87.4671 96.5394 87.8665 96.6156 88.251 96.7681C88.6355 96.9172 88.9802 97.1476 89.2851 97.4591C89.5933 97.7674 89.8369 98.1568 90.0159 98.6275C90.1949 99.0948 90.2844 99.6483 90.2844 100.288V100.725H84.3185V99.9449H89.3796C89.3796 99.4544 89.2801 99.0136 89.0813 98.6225C88.8857 98.2281 88.6123 97.9165 88.2609 97.6878C87.9129 97.4591 87.5102 97.3448 87.0528 97.3448C86.5689 97.3448 86.143 97.474 85.7751 97.7326C85.4072 97.9911 85.1189 98.3325 84.9101 98.7567C84.7046 99.181 84.6002 99.645 84.5969 100.149V100.616C84.5969 101.223 84.7013 101.753 84.9101 102.207C85.1222 102.658 85.4222 103.007 85.8099 103.256C86.1977 103.505 86.6568 103.629 87.1871 103.629C87.5483 103.629 87.8649 103.573 88.1367 103.46C88.4117 103.347 88.6421 103.196 88.8277 103.007C89.0166 102.815 89.1591 102.605 89.2553 102.376L90.0955 102.649C89.9795 102.971 89.7889 103.268 89.5237 103.539C89.2619 103.811 88.9338 104.03 88.5394 104.196C88.1483 104.358 87.6975 104.439 87.1871 104.439ZM98.0662 96.6642C97.7862 96.6642 97.5388 96.5708 97.3242 96.3842C97.1095 96.1882 97.0022 95.9315 97.0022 95.6142C97.0022 95.2968 97.1095 95.0448 97.3242 94.8582C97.5388 94.6622 97.7862 94.5642 98.0662 94.5642C98.3462 94.5642 98.5935 94.6622 98.8082 94.8582C99.0228 95.0448 99.1302 95.2968 99.1302 95.6142C99.1302 95.9315 99.0228 96.1882 98.8082 96.3842C98.5935 96.5708 98.3462 96.6642 98.0662 96.6642ZM98.0662 103.524C97.7862 103.524 97.5388 103.431 97.3242 103.244C97.1095 103.048 97.0022 102.791 97.0022 102.474C97.0022 102.147 97.1095 101.891 97.3242 101.704C97.5388 101.508 97.7862 101.41 98.0662 101.41C98.3462 101.41 98.5935 101.508 98.8082 101.704C99.0228 101.891 99.1302 102.147 99.1302 102.474C99.1302 102.791 99.0228 103.048 98.8082 103.244C98.5935 103.431 98.3462 103.524 98.0662 103.524ZM110.276 94.0983H111.206V101.441C111.203 102.104 111.083 102.658 110.848 103.102C110.613 103.543 110.288 103.872 109.874 104.091C109.459 104.31 108.984 104.419 108.447 104.419C107.92 104.419 107.449 104.322 107.035 104.126C106.621 103.93 106.294 103.655 106.056 103.301C105.82 102.946 105.703 102.53 105.703 102.053H106.617C106.617 102.354 106.697 102.621 106.856 102.853C107.015 103.082 107.232 103.261 107.507 103.39C107.786 103.519 108.099 103.584 108.447 103.584C108.808 103.584 109.125 103.508 109.396 103.355C109.672 103.203 109.887 102.969 110.043 102.654C110.199 102.336 110.276 101.932 110.276 101.441V94.0983ZM118.579 101.362V96.6438H119.464V104.28H118.579V103.012H118.509C118.33 103.403 118.047 103.73 117.659 103.992C117.271 104.25 116.797 104.38 116.237 104.38C115.75 104.38 115.318 104.274 114.94 104.061C114.562 103.846 114.265 103.531 114.05 103.117C113.834 102.702 113.727 102.194 113.727 101.591V96.6438H114.612V101.536C114.612 102.132 114.787 102.613 115.139 102.978C115.49 103.339 115.941 103.519 116.491 103.519C116.836 103.519 117.167 103.437 117.485 103.271C117.803 103.105 118.065 102.863 118.271 102.545C118.476 102.224 118.579 101.829 118.579 101.362ZM122.692 94.0983V104.28H121.807V94.0983H122.692ZM125.65 107.144C125.474 107.144 125.31 107.127 125.158 107.094C125.005 107.061 124.884 107.024 124.795 106.985L125.033 106.204C125.335 106.297 125.603 106.33 125.839 106.304C126.074 106.28 126.283 106.174 126.465 105.985C126.647 105.8 126.81 105.515 126.952 105.13L127.231 104.355L124.422 96.6438H125.381L127.648 103.112H127.718L129.985 96.6438H130.945L127.713 105.488C127.577 105.856 127.41 106.163 127.211 106.408C127.012 106.657 126.782 106.841 126.52 106.96C126.261 107.082 125.971 107.144 125.65 107.144ZM139.557 104.419C138.99 104.419 138.483 104.305 138.035 104.076C137.591 103.844 137.236 103.526 136.971 103.122C136.71 102.717 136.57 102.255 136.554 101.735H137.454C137.483 102.275 137.696 102.719 138.09 103.067C138.484 103.412 138.973 103.584 139.557 103.584C140.011 103.584 140.415 103.476 140.77 103.261C141.124 103.042 141.401 102.744 141.6 102.366C141.802 101.985 141.903 101.556 141.903 101.078C141.9 100.581 141.792 100.144 141.58 99.7659C141.368 99.3848 141.08 99.0865 140.715 98.8711C140.354 98.6556 139.948 98.5479 139.497 98.5479C139.156 98.5446 138.821 98.6009 138.493 98.7169C138.165 98.8329 137.891 98.9821 137.672 99.1644L136.743 99.0451L137.354 94.0983H142.385V94.9336H138.135L137.727 98.3391H137.777C138.002 98.1502 138.276 97.9961 138.597 97.8767C138.922 97.7574 139.265 97.6978 139.626 97.6978C140.226 97.6978 140.765 97.8419 141.242 98.1303C141.723 98.4186 142.102 98.8164 142.38 99.3235C142.662 99.8273 142.803 100.407 142.803 101.064C142.803 101.707 142.662 102.282 142.38 102.789C142.102 103.292 141.718 103.69 141.227 103.982C140.74 104.274 140.183 104.419 139.557 104.419ZM146.015 102.888L145.925 103.42C145.869 103.778 145.789 104.172 145.687 104.603C145.584 105.034 145.478 105.444 145.368 105.831C145.259 106.219 145.165 106.531 145.085 106.766H144.404C144.447 106.541 144.502 106.254 144.568 105.906C144.638 105.558 144.709 105.172 144.782 104.747C144.855 104.327 144.921 103.892 144.981 103.445L145.05 102.888H146.015ZM152.26 104.28V103.599L155.586 99.8604C156.02 99.3699 156.37 98.9506 156.635 98.6026C156.9 98.2546 157.093 97.9331 157.212 97.6381C157.335 97.3431 157.396 97.0365 157.396 96.7184C157.396 96.3306 157.305 95.9925 157.122 95.7042C156.943 95.4125 156.697 95.1855 156.382 95.023C156.067 94.8606 155.712 94.7794 155.318 94.7794C154.9 94.7794 154.534 94.8689 154.219 95.0479C153.907 95.2269 153.666 95.4721 153.493 95.7837C153.321 96.0953 153.235 96.4532 153.235 96.8576H152.345C152.345 96.2941 152.474 95.7953 152.733 95.3611C152.994 94.9236 153.351 94.5806 153.801 94.332C154.255 94.0834 154.769 93.9591 155.343 93.9591C155.909 93.9591 156.413 94.0818 156.854 94.327C157.295 94.569 157.641 94.8988 157.893 95.3164C158.145 95.734 158.271 96.2013 158.271 96.7184C158.271 97.0929 158.205 97.4558 158.072 97.8071C157.943 98.1585 157.719 98.5496 157.401 98.9804C157.083 99.4113 156.642 99.9383 156.078 100.561L153.553 103.38V103.445H158.589V104.28H152.26ZM163.967 104.419C163.251 104.419 162.64 104.214 162.133 103.803C161.629 103.389 161.241 102.79 160.969 102.008C160.701 101.226 160.567 100.286 160.567 99.1892C160.567 98.0955 160.701 97.1592 160.969 96.3803C161.241 95.5981 161.63 94.9998 162.138 94.5855C162.648 94.1679 163.258 93.9591 163.967 93.9591C164.676 93.9591 165.285 94.1679 165.792 94.5855C166.302 94.9998 166.692 95.5981 166.96 96.3803C167.232 97.1592 167.368 98.0955 167.368 99.1892C167.368 100.286 167.232 101.226 166.96 102.008C166.692 102.79 166.304 103.389 165.797 103.803C165.293 104.214 164.683 104.419 163.967 104.419ZM163.967 103.584C164.753 103.584 165.366 103.201 165.807 102.436C166.247 101.667 166.468 100.585 166.468 99.1892C166.468 98.2612 166.367 97.4691 166.165 96.8128C165.966 96.1533 165.679 95.6495 165.304 95.3015C164.933 94.9534 164.487 94.7794 163.967 94.7794C163.188 94.7794 162.577 95.1672 162.133 95.9428C161.688 96.715 161.466 97.7972 161.466 99.1892C161.466 100.117 161.566 100.909 161.765 101.566C161.967 102.222 162.254 102.722 162.625 103.067C162.999 103.412 163.447 103.584 163.967 103.584ZM169.391 104.28V103.599L172.717 99.8604C173.151 99.3699 173.501 98.9506 173.766 98.6026C174.031 98.2546 174.223 97.9331 174.343 97.6381C174.465 97.3431 174.527 97.0365 174.527 96.7184C174.527 96.3306 174.436 95.9925 174.253 95.7042C174.074 95.4125 173.827 95.1855 173.513 95.023C173.198 94.8606 172.843 94.7794 172.449 94.7794C172.031 94.7794 171.665 94.8689 171.35 95.0479C171.038 95.2269 170.796 95.4721 170.624 95.7837C170.452 96.0953 170.366 96.4532 170.366 96.8576H169.476C169.476 96.2941 169.605 95.7953 169.863 95.3611C170.125 94.9236 170.482 94.5806 170.932 94.332C171.386 94.0834 171.9 93.9591 172.473 93.9591C173.04 93.9591 173.544 94.0818 173.985 94.327C174.426 94.569 174.772 94.8988 175.024 95.3164C175.276 95.734 175.402 96.2013 175.402 96.7184C175.402 97.0929 175.335 97.4558 175.203 97.8071C175.074 98.1585 174.85 98.5496 174.532 98.9804C174.214 99.4113 173.773 99.9383 173.209 100.561L170.684 103.38V103.445H175.72V104.28H169.391ZM180.914 104.419C180.347 104.419 179.84 104.305 179.393 104.076C178.949 103.844 178.594 103.526 178.329 103.122C178.067 102.717 177.928 102.255 177.911 101.735H178.811C178.841 102.275 179.053 102.719 179.447 103.067C179.842 103.412 180.331 103.584 180.914 103.584C181.368 103.584 181.772 103.476 182.127 103.261C182.482 103.042 182.758 102.744 182.957 102.366C183.159 101.985 183.261 101.556 183.261 101.078C183.257 100.581 183.15 100.144 182.937 99.7659C182.725 99.3848 182.437 99.0865 182.072 98.8711C181.711 98.6556 181.305 98.5479 180.854 98.5479C180.513 98.5446 180.178 98.6009 179.85 98.7169C179.522 98.8329 179.249 98.9821 179.03 99.1644L178.1 99.0451L178.712 94.0983H183.743V94.9336H179.492L179.084 98.3391H179.134C179.36 98.1502 179.633 97.9961 179.954 97.8767C180.279 97.7574 180.622 97.6978 180.984 97.6978C181.584 97.6978 182.122 97.8419 182.599 98.1303C183.08 98.4186 183.459 98.8164 183.738 99.3235C184.02 99.8273 184.16 100.407 184.16 101.064C184.16 101.707 184.02 102.282 183.738 102.789C183.459 103.292 183.075 103.69 182.584 103.982C182.097 104.274 181.54 104.419 180.914 104.419ZM187.372 102.888L187.283 103.42C187.226 103.778 187.147 104.172 187.044 104.603C186.941 105.034 186.835 105.444 186.726 105.831C186.616 106.219 186.522 106.531 186.442 106.766H185.761C185.804 106.541 185.859 106.254 185.925 105.906C185.995 105.558 186.066 105.172 186.139 104.747C186.212 104.327 186.278 103.892 186.338 103.445L186.408 102.888H187.372ZM193.618 104.28V103.599L196.944 99.8604C197.378 99.3699 197.728 98.9506 197.993 98.6026C198.258 98.2546 198.45 97.9331 198.569 97.6381C198.692 97.3431 198.753 97.0365 198.753 96.7184C198.753 96.3306 198.662 95.9925 198.48 95.7042C198.301 95.4125 198.054 95.1855 197.739 95.023C197.424 94.8606 197.07 94.7794 196.675 94.7794C196.258 94.7794 195.891 94.8689 195.576 95.0479C195.265 95.2269 195.023 95.4721 194.851 95.7837C194.678 96.0953 194.592 96.4532 194.592 96.8576H193.702C193.702 96.2941 193.831 95.7953 194.09 95.3611C194.352 94.9236 194.708 94.5806 195.159 94.332C195.613 94.0834 196.127 93.9591 196.7 93.9591C197.267 93.9591 197.771 94.0818 198.211 94.327C198.652 94.569 198.999 94.8988 199.25 95.3164C199.502 95.734 199.628 96.2013 199.628 96.7184C199.628 97.0929 199.562 97.4558 199.429 97.8071C199.3 98.1585 199.076 98.5496 198.758 98.9804C198.44 99.4113 197.999 99.9383 197.436 100.561L194.91 103.38V103.445H199.946V104.28H193.618ZM205.469 104.419C204.842 104.419 204.282 104.307 203.788 104.081C203.294 103.853 202.903 103.536 202.615 103.132C202.327 102.727 202.174 102.262 202.158 101.735H203.097C203.114 102.106 203.228 102.431 203.44 102.709C203.652 102.984 203.934 103.2 204.285 103.355C204.637 103.508 205.028 103.584 205.459 103.584C205.929 103.584 206.344 103.496 206.702 103.321C207.063 103.145 207.345 102.905 207.547 102.6C207.752 102.292 207.855 101.944 207.855 101.556C207.855 101.145 207.751 100.782 207.542 100.467C207.333 100.152 207.033 99.9068 206.642 99.7311C206.254 99.5555 205.79 99.4677 205.25 99.4677H204.653V98.6324H205.25C205.691 98.6324 206.08 98.5529 206.418 98.3938C206.76 98.2314 207.028 98.0043 207.224 97.7127C207.419 97.421 207.517 97.078 207.517 96.6836C207.517 96.309 207.432 95.9793 207.263 95.6942C207.094 95.4092 206.856 95.1855 206.548 95.023C206.243 94.8606 205.886 94.7794 205.479 94.7794C205.084 94.7794 204.723 94.8557 204.395 95.0081C204.067 95.1606 203.802 95.376 203.599 95.6544C203.401 95.9329 203.294 96.2626 203.281 96.6438H202.381C202.395 96.1135 202.54 95.6478 202.819 95.2468C203.101 94.8424 203.473 94.5275 203.937 94.3022C204.405 94.0735 204.922 93.9591 205.489 93.9591C206.088 93.9591 206.607 94.0818 207.045 94.327C207.482 94.5723 207.82 94.8988 208.059 95.3064C208.301 95.7108 208.422 96.1566 208.422 96.6438C208.422 97.2238 208.264 97.721 207.95 98.1353C207.635 98.5462 207.21 98.8313 206.677 98.9904V99.055C207.326 99.1843 207.837 99.4726 208.208 99.9201C208.583 100.364 208.77 100.909 208.77 101.556C208.77 102.099 208.627 102.588 208.342 103.022C208.057 103.453 207.666 103.795 207.169 104.046C206.675 104.295 206.108 104.419 205.469 104.419ZM211.708 102.754C211.512 102.754 211.343 102.684 211.201 102.545C211.062 102.403 210.992 102.234 210.992 102.038C210.992 101.839 211.062 101.67 211.201 101.531C211.343 101.392 211.512 101.322 211.708 101.322C211.907 101.322 212.076 101.392 212.215 101.531C212.354 101.67 212.424 101.839 212.424 102.038C212.424 102.167 212.391 102.287 212.325 102.396C212.262 102.505 212.175 102.593 212.066 102.659C211.96 102.722 211.841 102.754 211.708 102.754ZM211.708 97.5884C211.512 97.5884 211.343 97.5188 211.201 97.3796C211.062 97.2371 210.992 97.068 210.992 96.8725C210.992 96.6769 211.062 96.5096 211.201 96.3704C211.343 96.2278 211.512 96.1566 211.708 96.1566C211.907 96.1566 212.076 96.2278 212.215 96.3704C212.354 96.5096 212.424 96.6769 212.424 96.8725C212.424 97.0017 212.391 97.1211 212.325 97.2304C212.262 97.3398 212.175 97.4276 212.066 97.4939C211.96 97.5569 211.841 97.5884 211.708 97.5884ZM217.705 104.419C217.138 104.419 216.631 104.305 216.184 104.076C215.74 103.844 215.385 103.526 215.12 103.122C214.858 102.717 214.719 102.255 214.702 101.735H215.602C215.632 102.275 215.844 102.719 216.238 103.067C216.633 103.412 217.122 103.584 217.705 103.584C218.159 103.584 218.563 103.476 218.918 103.261C219.273 103.042 219.549 102.744 219.748 102.366C219.951 101.985 220.052 101.556 220.052 101.078C220.048 100.581 219.941 100.144 219.728 99.7659C219.516 99.3848 219.228 99.0865 218.863 98.8711C218.502 98.6556 218.096 98.5479 217.645 98.5479C217.304 98.5446 216.969 98.6009 216.641 98.7169C216.313 98.8329 216.04 98.9821 215.821 99.1644L214.891 99.0451L215.503 94.0983H220.534V94.9336H216.283L215.875 98.3391H215.925C216.151 98.1502 216.424 97.9961 216.745 97.8767C217.07 97.7574 217.413 97.6978 217.775 97.6978C218.375 97.6978 218.913 97.8419 219.39 98.1303C219.871 98.4186 220.25 98.8164 220.529 99.3235C220.811 99.8273 220.951 100.407 220.951 101.064C220.951 101.707 220.811 102.282 220.529 102.789C220.25 103.292 219.866 103.69 219.375 103.982C218.888 104.274 218.331 104.419 217.705 104.419ZM226.129 93.9591C226.554 93.9624 226.965 94.0486 227.362 94.2177C227.763 94.3834 228.125 94.6518 228.446 95.023C228.768 95.3909 229.023 95.8815 229.212 96.4946C229.401 97.1045 229.495 97.8552 229.495 98.7468C229.495 99.5787 229.422 100.341 229.276 101.034C229.131 101.726 228.912 102.326 228.62 102.833C228.332 103.337 227.967 103.728 227.526 104.007C227.089 104.282 226.577 104.419 225.99 104.419C225.443 104.419 224.958 104.305 224.533 104.076C224.113 103.848 223.771 103.531 223.509 103.127C223.248 102.719 223.085 102.248 223.022 101.715H223.937C224.026 102.258 224.245 102.706 224.593 103.057C224.944 103.408 225.41 103.584 225.99 103.584C226.822 103.584 227.468 103.196 227.929 102.421C228.39 101.645 228.62 100.542 228.62 99.1097H228.556C228.396 99.408 228.188 99.6682 227.929 99.8902C227.674 100.112 227.382 100.286 227.054 100.412C226.726 100.535 226.38 100.596 226.015 100.596C225.448 100.596 224.93 100.454 224.459 100.169C223.988 99.8803 223.612 99.4875 223.33 98.9904C223.049 98.4899 222.908 97.9198 222.908 97.2802C222.908 96.6769 223.04 96.1234 223.306 95.6196C223.574 95.1125 223.949 94.7082 224.429 94.4066C224.913 94.1016 225.48 93.9525 226.129 93.9591ZM226.129 94.7944C225.689 94.7944 225.292 94.907 224.941 95.1324C224.593 95.3545 224.316 95.6544 224.111 96.0323C223.909 96.4068 223.808 96.8228 223.808 97.2802C223.808 97.7409 223.909 98.1601 224.111 98.538C224.316 98.9125 224.593 99.2108 224.941 99.4329C225.292 99.6516 225.689 99.761 226.129 99.761C226.467 99.761 226.782 99.693 227.074 99.5571C227.366 99.4179 227.618 99.229 227.83 98.9904C228.045 98.7517 228.207 98.4816 228.317 98.18C228.43 97.8751 228.474 97.5552 228.451 97.2205C228.411 96.7565 228.287 96.3422 228.078 95.9776C227.873 95.6097 227.601 95.3213 227.263 95.1125C226.928 94.9004 226.55 94.7944 226.129 94.7944ZM235.938 99.1892C235.938 97.9961 236.089 96.8692 236.391 95.8086C236.692 94.748 237.125 93.7536 237.688 92.8256H238.494C238.252 93.2167 238.03 93.6592 237.828 94.153C237.629 94.6469 237.456 95.1739 237.31 95.734C237.165 96.2941 237.052 96.8675 236.972 97.4542C236.893 98.0375 236.853 98.6159 236.853 99.1892C236.853 99.9549 236.923 100.727 237.062 101.506C237.201 102.285 237.393 103.024 237.639 103.723C237.887 104.423 238.172 105.033 238.494 105.553H237.688C237.125 104.622 236.692 103.626 236.391 102.565C236.089 101.504 235.938 100.379 235.938 99.1892ZM247.394 94.0983H248.324V100.84C248.324 101.533 248.161 102.152 247.837 102.699C247.512 103.243 247.059 103.672 246.479 103.987C245.903 104.298 245.231 104.454 244.466 104.454C243.704 104.454 243.032 104.297 242.452 103.982C241.872 103.667 241.42 103.238 241.095 102.694C240.77 102.151 240.608 101.533 240.608 100.84V94.0983H241.538V100.775C241.538 101.315 241.659 101.798 241.901 102.222C242.142 102.643 242.482 102.974 242.92 103.216C243.36 103.458 243.876 103.579 244.466 103.579C245.056 103.579 245.571 103.458 246.012 103.216C246.453 102.974 246.793 102.643 247.031 102.222C247.273 101.798 247.394 101.315 247.394 100.775V94.0983ZM250.409 94.9336V94.0983H257.792V94.9336H254.566V104.28H253.636V94.9336H250.409ZM267.436 97.2802H266.501C266.432 96.9321 266.306 96.6106 266.123 96.3157C265.944 96.0174 265.719 95.7572 265.447 95.5351C265.175 95.3131 264.867 95.1407 264.522 95.0181C264.178 94.8954 263.805 94.8341 263.404 94.8341C262.761 94.8341 262.174 95.0015 261.644 95.3363C261.117 95.671 260.694 96.1632 260.376 96.8128C260.061 97.4591 259.904 98.2513 259.904 99.1892C259.904 100.134 260.061 100.929 260.376 101.576C260.694 102.222 261.117 102.712 261.644 103.047C262.174 103.379 262.761 103.544 263.404 103.544C263.805 103.544 264.178 103.483 264.522 103.36C264.867 103.238 265.175 103.067 265.447 102.848C265.719 102.626 265.944 102.366 266.123 102.068C266.306 101.769 266.432 101.446 266.501 101.098H267.436C267.353 101.566 267.197 102.002 266.969 102.406C266.743 102.807 266.455 103.158 266.103 103.46C265.755 103.761 265.354 103.997 264.9 104.166C264.446 104.335 263.947 104.419 263.404 104.419C262.549 104.419 261.79 104.206 261.127 103.778C260.464 103.347 259.944 102.741 259.566 101.958C259.191 101.176 259.004 100.253 259.004 99.1892C259.004 98.1253 259.191 97.2023 259.566 96.4201C259.944 95.6379 260.464 95.033 261.127 94.6054C261.79 94.1746 262.549 93.9591 263.404 93.9591C263.947 93.9591 264.446 94.0436 264.9 94.2127C265.354 94.3784 265.755 94.6137 266.103 94.9186C266.455 95.2203 266.743 95.5716 266.969 95.9726C267.197 96.3737 267.353 96.8095 267.436 97.2802ZM272.404 102.351V96.0522H273.254V102.351H272.404ZM269.679 99.6267V98.7766H275.978V99.6267H269.679ZM281.667 104.419C281.017 104.419 280.439 104.297 279.932 104.051C279.425 103.806 279.027 103.471 278.739 103.047C278.45 102.62 278.306 102.137 278.306 101.6C278.306 101.18 278.394 100.787 278.57 100.422C278.745 100.054 278.987 99.7461 279.296 99.4975C279.604 99.2456 279.95 99.0815 280.335 99.0053V98.9506C279.834 98.8048 279.431 98.5181 279.127 98.0905C278.822 97.6596 278.671 97.1708 278.674 96.6239C278.671 96.1168 278.8 95.6627 279.062 95.2617C279.324 94.8606 279.68 94.5441 280.131 94.3121C280.585 94.0768 281.097 93.9591 281.667 93.9591C282.234 93.9591 282.743 94.0768 283.193 94.3121C283.644 94.5441 284 94.8606 284.262 95.2617C284.527 95.6627 284.662 96.1168 284.665 96.6239C284.662 97.1675 284.507 97.6563 284.203 98.0905C283.898 98.5214 283.497 98.8081 282.999 98.9506V99.0053C283.384 99.0782 283.729 99.2406 284.033 99.4925C284.338 99.7444 284.58 100.054 284.759 100.422C284.938 100.787 285.028 101.18 285.028 101.6C285.028 102.137 284.882 102.62 284.59 103.047C284.302 103.471 283.904 103.806 283.397 104.051C282.893 104.297 282.317 104.419 281.667 104.419ZM281.667 103.584C282.151 103.584 282.575 103.498 282.94 103.326C283.308 103.15 283.594 102.91 283.8 102.605C284.009 102.3 284.113 101.95 284.113 101.556C284.113 101.148 284.005 100.785 283.79 100.467C283.574 100.145 283.283 99.8919 282.915 99.7063C282.547 99.5174 282.131 99.4229 281.667 99.4229C281.203 99.4229 280.785 99.5174 280.414 99.7063C280.046 99.8919 279.755 100.145 279.539 100.467C279.327 100.785 279.221 101.148 279.221 101.556C279.221 101.95 279.322 102.3 279.524 102.605C279.73 102.91 280.016 103.15 280.384 103.326C280.756 103.498 281.183 103.584 281.667 103.584ZM281.667 98.6275C282.065 98.6275 282.421 98.5429 282.736 98.3739C283.051 98.2049 283.299 97.9745 283.482 97.6829C283.667 97.3879 283.762 97.0531 283.765 96.6786C283.762 96.3074 283.669 95.9793 283.487 95.6942C283.304 95.4059 283.056 95.1821 282.741 95.023C282.429 94.8606 282.071 94.7794 281.667 94.7794C281.263 94.7794 280.901 94.8606 280.583 95.023C280.268 95.1821 280.02 95.4059 279.837 95.6942C279.658 95.9793 279.571 96.3074 279.574 96.6786C279.571 97.0531 279.66 97.3879 279.842 97.6829C280.028 97.9745 280.278 98.2049 280.593 98.3739C280.911 98.5429 281.269 98.6275 281.667 98.6275ZM289.275 99.1892C289.275 100.382 289.124 101.509 288.822 102.57C288.521 103.631 288.088 104.625 287.525 105.553H286.719C286.961 105.162 287.182 104.719 287.381 104.225C287.583 103.732 287.757 103.205 287.903 102.644C288.048 102.084 288.161 101.511 288.241 100.924C288.32 100.338 288.36 99.7593 288.36 99.1892C288.36 98.4236 288.29 97.6514 288.151 96.8725C288.012 96.0936 287.818 95.3545 287.57 94.6552C287.324 93.9558 287.041 93.346 286.719 92.8256H287.525C288.088 93.7569 288.521 94.7529 288.822 95.8135C289.124 96.8741 289.275 97.9994 289.275 99.1892Z" fill="white"/>
<path d="M0 12C0 5.37258 5.37258 0 12 0H161.313C164.082 0 166.014 2.74593 165.078 5.35209L155.021 33.3521C154.451 34.9406 152.944 36 151.257 36H0V12Z" fill="#FF782F"/>
<path d="M21.6245 24.4662V12.8298H29.7381V15.1139H24.437V17.5003H29.3233V19.7901H24.437V22.1821H29.7381V24.4662H21.6245ZM39.9654 15.7389L36.971 24.4662H33.7892L30.8006 15.7389H33.7267L35.3347 21.7503H35.4256L37.0392 15.7389H39.9654ZM44.829 24.631C43.9161 24.631 43.1282 24.451 42.4654 24.0912C41.8063 23.7276 41.2987 23.2105 40.9426 22.5401C40.5904 21.8658 40.4142 21.0647 40.4142 20.1366C40.4142 19.2351 40.5923 18.4472 40.9483 17.773C41.3044 17.095 41.8063 16.5685 42.454 16.1935C43.1017 15.8147 43.865 15.6253 44.7438 15.6253C45.365 15.6253 45.9332 15.7219 46.4483 15.915C46.9635 16.1082 47.4085 16.3942 47.7835 16.773C48.1585 17.1518 48.4502 17.6196 48.6585 18.1764C48.8669 18.7294 48.971 19.3639 48.971 20.0798V20.773H41.3858V19.1594H46.3858C46.382 18.8639 46.312 18.6007 46.1756 18.3696C46.0392 18.1385 45.8517 17.9586 45.6131 17.8298C45.3782 17.6972 45.1074 17.631 44.8006 17.631C44.49 17.631 44.2116 17.701 43.9654 17.8412C43.7192 17.9776 43.5241 18.1651 43.3801 18.4037C43.2362 18.6385 43.1604 18.9056 43.1529 19.2048V20.8469C43.1529 21.2029 43.2229 21.5154 43.3631 21.7844C43.5032 22.0495 43.7021 22.256 43.9597 22.4037C44.2173 22.5514 44.5241 22.6253 44.8801 22.6253C45.1264 22.6253 45.3498 22.5912 45.5506 22.523C45.7514 22.4548 45.9237 22.3544 46.0676 22.2219C46.2116 22.0893 46.3195 21.9264 46.3915 21.7332L48.9426 21.8071C48.8366 22.3791 48.6036 22.8772 48.2438 23.3014C47.8877 23.7219 47.4199 24.0495 46.8404 24.2844C46.2608 24.5154 45.5904 24.631 44.829 24.631ZM53.1685 19.4889V24.4662H50.3901V15.7389H53.0321V17.3412H53.1287C53.3219 16.8071 53.6514 16.3885 54.1174 16.0855C54.5833 15.7787 55.1382 15.6253 55.7821 15.6253C56.3958 15.6253 56.928 15.7635 57.3787 16.04C57.8333 16.3128 58.1855 16.6954 58.4355 17.1878C58.6893 17.6764 58.8143 18.2484 58.8105 18.9037V24.4662H56.0321V19.4491C56.0359 18.9643 55.9128 18.5855 55.6628 18.3128C55.4166 18.0401 55.0738 17.9037 54.6344 17.9037C54.3427 17.9037 54.0852 17.9681 53.8617 18.0969C53.642 18.2219 53.4715 18.4018 53.3503 18.6366C53.2329 18.8715 53.1723 19.1556 53.1685 19.4889ZM65.4568 15.7389V17.7844H59.9512V15.7389H65.4568ZM61.1046 13.648H63.883V21.7219C63.883 21.8923 63.9095 22.0306 63.9625 22.1366C64.0193 22.2389 64.1008 22.3128 64.2068 22.3582C64.3129 22.3999 64.4398 22.4207 64.5875 22.4207C64.6936 22.4207 64.8053 22.4113 64.9228 22.3923C65.044 22.3696 65.1349 22.3507 65.1955 22.3355L65.6159 24.3412C65.4834 24.3791 65.2959 24.4264 65.0534 24.4832C64.8148 24.5401 64.5288 24.576 64.1955 24.5912C63.544 24.6215 62.9853 24.5457 62.5193 24.3639C62.0572 24.1783 61.7031 23.8904 61.4568 23.5003C61.2144 23.1101 61.097 22.6196 61.1046 22.0287V13.648ZM74.6131 24.4662H70.312V12.8298H74.6074C75.793 12.8298 76.8139 13.0628 77.6699 13.5287C78.5298 13.9908 79.1926 14.6575 79.6585 15.5287C80.1245 16.3961 80.3574 17.434 80.3574 18.6423C80.3574 19.8544 80.1245 20.8961 79.6585 21.7673C79.1964 22.6385 78.5354 23.3071 77.6756 23.773C76.8157 24.2351 75.7949 24.4662 74.6131 24.4662ZM73.1245 22.0685H74.5051C75.1567 22.0685 75.7078 21.9586 76.1585 21.7389C76.6131 21.5154 76.9559 21.1537 77.187 20.6537C77.4218 20.1499 77.5392 19.4794 77.5392 18.6423C77.5392 17.8052 77.4218 17.1385 77.187 16.6423C76.9521 16.1423 76.6055 15.7825 76.1472 15.5628C75.6926 15.3393 75.132 15.2275 74.4654 15.2275H73.1245V22.0685ZM87.6301 20.6991V15.7389H90.4029V24.4662H87.7551V22.8412H87.6642C87.471 23.3753 87.1415 23.7995 86.6756 24.1139C86.2135 24.4245 85.6548 24.5798 84.9995 24.5798C84.4048 24.5798 83.882 24.4435 83.4313 24.1707C82.9805 23.898 82.6301 23.5173 82.3801 23.0287C82.1301 22.5363 82.0032 21.9605 81.9995 21.3014V15.7389H84.7779V20.756C84.7817 21.2294 84.9067 21.6026 85.1529 21.8753C85.3991 22.148 85.7343 22.2844 86.1585 22.2844C86.4351 22.2844 86.6832 22.2238 86.9029 22.1026C87.1264 21.9776 87.3025 21.7976 87.4313 21.5628C87.5639 21.3241 87.6301 21.0363 87.6301 20.6991ZM92.1713 24.4662V15.7389H94.8702V17.3298H94.9611C95.1202 16.7541 95.3797 16.326 95.7395 16.0457C96.0994 15.7616 96.5179 15.6196 96.9952 15.6196C97.124 15.6196 97.2566 15.6291 97.3929 15.648C97.5293 15.6632 97.6562 15.6878 97.7736 15.7219V18.1366C97.641 18.0912 97.4668 18.0552 97.2509 18.0287C97.0388 18.0022 96.8494 17.9889 96.6827 17.9889C96.3531 17.9889 96.0558 18.0628 95.7906 18.2105C95.5293 18.3544 95.3228 18.5571 95.1713 18.8185C95.0236 19.076 94.9497 19.3791 94.9497 19.7276V24.4662H92.1713ZM101.038 24.6139C100.481 24.6139 99.9867 24.5211 99.5549 24.3355C99.1268 24.1461 98.7878 23.862 98.5378 23.4832C98.2916 23.1007 98.1685 22.6215 98.1685 22.0457C98.1685 21.5609 98.2537 21.1518 98.4242 20.8185C98.5946 20.4851 98.8295 20.2143 99.1287 20.006C99.428 19.7976 99.7727 19.6404 100.163 19.5344C100.553 19.4245 100.97 19.3507 101.413 19.3128C101.909 19.2673 102.309 19.22 102.612 19.1707C102.915 19.1177 103.134 19.0438 103.271 18.9491C103.411 18.8507 103.481 18.7124 103.481 18.5344V18.506C103.481 18.2143 103.381 17.9889 103.18 17.8298C102.979 17.6707 102.708 17.5912 102.367 17.5912C102 17.5912 101.704 17.6707 101.481 17.8298C101.258 17.9889 101.115 18.2086 101.055 18.4889L98.4924 18.398C98.5681 17.8677 98.7632 17.3942 99.0776 16.9776C99.3958 16.5571 99.8314 16.2276 100.384 15.9889C100.941 15.7465 101.61 15.6253 102.39 15.6253C102.947 15.6253 103.46 15.6916 103.93 15.8241C104.4 15.9529 104.809 16.1423 105.157 16.3923C105.506 16.6385 105.775 16.9416 105.964 17.3014C106.157 17.6613 106.254 18.0722 106.254 18.5344V24.4662H103.64V23.2503H103.572C103.417 23.5457 103.218 23.7957 102.975 24.0003C102.737 24.2048 102.454 24.3582 102.129 24.4605C101.807 24.5628 101.443 24.6139 101.038 24.6139ZM101.896 22.7957C102.195 22.7957 102.464 22.7351 102.703 22.6139C102.945 22.4927 103.138 22.326 103.282 22.1139C103.426 21.898 103.498 21.648 103.498 21.3639V20.5344C103.418 20.576 103.322 20.6139 103.208 20.648C103.098 20.6821 102.977 20.7143 102.845 20.7446C102.712 20.7749 102.576 20.8014 102.436 20.8241C102.295 20.8469 102.161 20.8677 102.032 20.8866C101.771 20.9283 101.547 20.9927 101.362 21.0798C101.18 21.1669 101.04 21.2806 100.941 21.4207C100.847 21.5571 100.799 21.72 100.799 21.9094C100.799 22.1972 100.901 22.4169 101.106 22.5685C101.314 22.72 101.578 22.7957 101.896 22.7957ZM112.879 15.7389V17.7844H107.373V15.7389H112.879ZM108.526 13.648H111.305V21.7219C111.305 21.8923 111.331 22.0306 111.384 22.1366C111.441 22.2389 111.523 22.3128 111.629 22.3582C111.735 22.3999 111.862 22.4207 112.009 22.4207C112.115 22.4207 112.227 22.4113 112.345 22.3923C112.466 22.3696 112.557 22.3507 112.617 22.3355L113.038 24.3412C112.905 24.3791 112.718 24.4264 112.475 24.4832C112.237 24.5401 111.951 24.576 111.617 24.5912C110.966 24.6215 110.407 24.5457 109.941 24.3639C109.479 24.1783 109.125 23.8904 108.879 23.5003C108.636 23.1101 108.519 22.6196 108.526 22.0287V13.648ZM114.296 24.4662V15.7389H117.075V24.4662H114.296ZM115.688 14.7219C115.298 14.7219 114.963 14.5931 114.683 14.3355C114.402 14.0741 114.262 13.7597 114.262 13.3923C114.262 13.0287 114.402 12.7181 114.683 12.4605C114.963 12.1991 115.298 12.0685 115.688 12.0685C116.082 12.0685 116.418 12.1991 116.694 12.4605C116.974 12.7181 117.115 13.0287 117.115 13.3923C117.115 13.7597 116.974 14.0741 116.694 14.3355C116.418 14.5931 116.082 14.7219 115.688 14.7219ZM122.917 24.631C122 24.631 121.213 24.4435 120.553 24.0685C119.898 23.6897 119.392 23.1632 119.036 22.4889C118.684 21.8109 118.508 21.0249 118.508 20.131C118.508 19.2332 118.684 18.4472 119.036 17.773C119.392 17.095 119.898 16.5685 120.553 16.1935C121.213 15.8147 122 15.6253 122.917 15.6253C123.834 15.6253 124.62 15.8147 125.275 16.1935C125.934 16.5685 126.44 17.095 126.792 17.773C127.148 18.4472 127.326 19.2332 127.326 20.131C127.326 21.0249 127.148 21.8109 126.792 22.4889C126.44 23.1632 125.934 23.6897 125.275 24.0685C124.62 24.4435 123.834 24.631 122.917 24.631ZM122.934 22.5344C123.267 22.5344 123.55 22.4321 123.781 22.2276C124.012 22.023 124.188 21.7389 124.309 21.3753C124.434 21.0116 124.497 20.5912 124.497 20.1139C124.497 19.6291 124.434 19.2048 124.309 18.8412C124.188 18.4776 124.012 18.1935 123.781 17.9889C123.55 17.7844 123.267 17.6821 122.934 17.6821C122.589 17.6821 122.298 17.7844 122.059 17.9889C121.824 18.1935 121.644 18.4776 121.519 18.8412C121.398 19.2048 121.338 19.6291 121.338 20.1139C121.338 20.5912 121.398 21.0116 121.519 21.3753C121.644 21.7389 121.824 22.023 122.059 22.2276C122.298 22.4321 122.589 22.5344 122.934 22.5344ZM131.528 19.4889V24.4662H128.749V15.7389H131.392V17.3412H131.488C131.681 16.8071 132.011 16.3885 132.477 16.0855C132.943 15.7787 133.498 15.6253 134.142 15.6253C134.755 15.6253 135.287 15.7635 135.738 16.04C136.193 16.3128 136.545 16.6954 136.795 17.1878C137.049 17.6764 137.174 18.2484 137.17 18.9037V24.4662H134.392V19.4491C134.395 18.9643 134.272 18.5855 134.022 18.3128C133.776 18.0401 133.433 17.9037 132.994 17.9037C132.702 17.9037 132.445 17.9681 132.221 18.0969C132.001 18.2219 131.831 18.4018 131.71 18.6366C131.592 18.8715 131.532 19.1556 131.528 19.4889Z" fill="white"/>
<defs>
<linearGradient id="paint0_linear_3961_1152" x1="167.5" y1="12" x2="168" y2="134" gradientUnits="userSpaceOnUse">
<stop stop-color="#93461C"/>
<stop offset="1" stop-color="#FF782F"/>
</linearGradient>
</defs>
</svg>
