<svg width="137" height="36" viewBox="0 0 137 36" fill="none" xmlns="http://www.w3.org/2000/svg">
<path d="M0 12C0 5.37258 5.37258 0 12 0H130.917C133.793 0 135.729 2.94453 134.589 5.58515L122.504 33.5852C121.871 35.0508 120.428 36 118.831 36H0V12Z" fill="#FF782F"/>
<path d="M30.6478 17.4902L32.6958 18.0662C32.0878 19.5275 31.2878 20.7702 30.2958 21.7942C29.3144 22.8182 28.1624 23.6662 26.8398 24.3382C25.5278 25.0102 24.0611 25.5435 22.4398 25.9382C22.3758 25.7782 22.2691 25.5809 22.1198 25.3462C21.9811 25.1222 21.8318 24.8982 21.6718 24.6742C21.5118 24.4502 21.3624 24.2689 21.2238 24.1302C22.8024 23.8209 24.2104 23.3889 25.4478 22.8342C26.6958 22.2795 27.7571 21.5649 28.6318 20.6902C29.5064 19.8049 30.1784 18.7382 30.6478 17.4902ZM25.4798 14.7222L27.4638 15.4742C27.0904 15.9755 26.6531 16.4715 26.1518 16.9622C25.6504 17.4529 25.1278 17.9115 24.5838 18.3382C24.0398 18.7649 23.5171 19.1329 23.0158 19.4422C22.8984 19.3035 22.7438 19.1382 22.5518 18.9462C22.3598 18.7542 22.1624 18.5675 21.9598 18.3862C21.7571 18.2049 21.5758 18.0555 21.4158 17.9382C21.9278 17.6929 22.4344 17.3995 22.9358 17.0582C23.4371 16.7169 23.9064 16.3435 24.3438 15.9382C24.7918 15.5329 25.1704 15.1275 25.4798 14.7222ZM26.9198 17.5702C27.6344 19.3302 28.7598 20.7595 30.2958 21.8582C31.8424 22.9462 33.8424 23.6875 36.2958 24.0822C36.1571 24.2209 36.0078 24.3969 35.8478 24.6102C35.6878 24.8342 35.5331 25.0582 35.3838 25.2822C35.2451 25.5169 35.1331 25.7249 35.0478 25.9062C33.3091 25.5755 31.8051 25.0742 30.5358 24.4022C29.2771 23.7195 28.1998 22.8555 27.3038 21.8102C26.4184 20.7649 25.6771 19.5329 25.0798 18.1142L26.9198 17.5702ZM21.6558 12.7222H35.8478V14.5942H21.6558V12.7222ZM27.7198 10.8502H29.7038V13.9542H27.7198V10.8502ZM30.2798 15.7142L31.8478 14.5622C32.3171 14.8715 32.8184 15.2289 33.3518 15.6342C33.8958 16.0289 34.4078 16.4289 34.8878 16.8342C35.3784 17.2395 35.7784 17.6182 36.0878 17.9702L34.3598 19.2822C34.0931 18.9409 33.7304 18.5622 33.2718 18.1462C32.8131 17.7195 32.3171 17.2982 31.7838 16.8822C31.2611 16.4555 30.7598 16.0662 30.2798 15.7142ZM41.4318 15.5222V16.5302H48.1678V15.5222H41.4318ZM41.4318 13.0902V14.0822H48.1678V13.0902H41.4318ZM39.5598 11.5542H50.1358V18.0662H39.5598V11.5542ZM40.5358 19.0262H49.9118V20.7062H40.5358V19.0262ZM49.4638 19.0262H51.4158C51.4158 19.0262 51.4104 19.0742 51.3998 19.1702C51.3998 19.2555 51.3944 19.3622 51.3838 19.4902C51.3838 19.6075 51.3731 19.7089 51.3518 19.7942C51.2451 20.9569 51.1278 21.9115 50.9998 22.6582C50.8718 23.3942 50.7384 23.9702 50.5998 24.3862C50.4611 24.8022 50.3011 25.1009 50.1198 25.2822C49.9278 25.4955 49.7251 25.6449 49.5118 25.7302C49.2984 25.8155 49.0638 25.8689 48.8078 25.8902C48.5838 25.9222 48.2904 25.9382 47.9278 25.9382C47.5758 25.9382 47.2024 25.9275 46.8078 25.9062C46.7971 25.6715 46.7438 25.3995 46.6478 25.0902C46.5624 24.7809 46.4504 24.5142 46.3118 24.2902C46.6424 24.3222 46.9518 24.3435 47.2398 24.3542C47.5384 24.3542 47.7571 24.3542 47.8958 24.3542C48.0344 24.3542 48.1464 24.3435 48.2318 24.3222C48.3171 24.3009 48.4024 24.2475 48.4878 24.1622C48.6051 24.0449 48.7224 23.8102 48.8398 23.4582C48.9678 23.0955 49.0798 22.5782 49.1758 21.9062C49.2824 21.2342 49.3784 20.3649 49.4638 19.2982V19.0262ZM41.5278 17.2182L43.3678 17.8102C42.9838 18.4715 42.5251 19.1009 41.9918 19.6982C41.4691 20.2955 40.9144 20.8502 40.3278 21.3622C39.7411 21.8635 39.1491 22.3009 38.5518 22.6742C38.4451 22.5462 38.3011 22.3969 38.1198 22.2262C37.9491 22.0449 37.7731 21.8689 37.5918 21.6982C37.4104 21.5275 37.2451 21.3942 37.0958 21.2982C37.9918 20.8395 38.8344 20.2529 39.6238 19.5382C40.4131 18.8129 41.0478 18.0395 41.5278 17.2182ZM43.0958 19.6182L44.9038 20.1782C44.5198 20.9142 44.0504 21.6182 43.4958 22.2902C42.9518 22.9515 42.3651 23.5595 41.7358 24.1142C41.1064 24.6689 40.4611 25.1489 39.7998 25.5542C39.7038 25.4262 39.5704 25.2715 39.3998 25.0902C39.2291 24.9195 39.0478 24.7489 38.8558 24.5782C38.6744 24.4075 38.5144 24.2742 38.3758 24.1782C39.3678 23.6769 40.2798 23.0315 41.1118 22.2422C41.9544 21.4422 42.6158 20.5675 43.0958 19.6182ZM46.3598 19.7302L48.1838 20.1622C47.7571 21.3675 47.1971 22.4822 46.5038 23.5062C45.8211 24.5195 45.0798 25.3569 44.2798 26.0182C44.1731 25.9115 44.0238 25.7835 43.8318 25.6342C43.6504 25.4849 43.4638 25.3355 43.2718 25.1862C43.0798 25.0369 42.9091 24.9195 42.7598 24.8342C43.5704 24.2689 44.2851 23.5382 44.9038 22.6422C45.5331 21.7355 46.0184 20.7649 46.3598 19.7302ZM60.8238 10.8662H62.5358V17.6502C62.5358 18.4502 62.4984 19.2395 62.4238 20.0182C62.3598 20.7862 62.2211 21.5275 62.0078 22.2422C61.7944 22.9462 61.4798 23.6075 61.0638 24.2262C60.6478 24.8449 60.0878 25.4049 59.3838 25.9062C59.2878 25.7782 59.1544 25.6342 58.9838 25.4742C58.8238 25.3142 58.6584 25.1542 58.4878 24.9942C58.3171 24.8449 58.1571 24.7222 58.0078 24.6262C58.6371 24.1995 59.1384 23.7249 59.5118 23.2022C59.8851 22.6795 60.1624 22.1195 60.3438 21.5222C60.5358 20.9249 60.6638 20.3009 60.7278 19.6502C60.7918 18.9995 60.8238 18.3329 60.8238 17.6502V10.8662ZM63.6558 10.8662H65.4638V25.8902H63.6558V10.8662ZM58.4558 13.4902H61.5598V15.2182H58.4558V13.4902ZM64.5998 13.4902H67.9918V15.2182H64.5998V13.4902ZM64.7278 16.8662H67.7998V18.5462H64.7278V16.8662ZM64.5838 20.3062H68.2478V22.0502H64.5838V20.3062ZM58.5838 16.8662H61.6238V18.5462H58.5838V16.8662ZM57.6078 20.9942C58.0558 20.8769 58.5838 20.7275 59.1918 20.5462C59.7998 20.3542 60.4238 20.1569 61.0638 19.9542L61.3518 21.4582C60.8398 21.6609 60.3224 21.8689 59.7998 22.0822C59.2878 22.2849 58.7971 22.4769 58.3278 22.6582L57.6078 20.9942ZM53.0798 18.9142C53.7198 18.7755 54.4824 18.5889 55.3678 18.3542C56.2638 18.1195 57.1651 17.8742 58.0718 17.6182L58.3118 19.3462C57.4904 19.5915 56.6584 19.8369 55.8158 20.0822C54.9838 20.3275 54.2104 20.5515 53.4958 20.7542L53.0798 18.9142ZM53.3358 13.9062H58.2318V15.6662H53.3358V13.9062ZM55.0158 10.8822H56.7758V23.8742C56.7758 24.3115 56.7278 24.6582 56.6318 24.9142C56.5464 25.1809 56.3811 25.3889 56.1358 25.5382C55.9011 25.6875 55.6024 25.7889 55.2398 25.8422C54.8878 25.8955 54.4451 25.9169 53.9118 25.9062C53.8904 25.6715 53.8318 25.3782 53.7358 25.0262C53.6398 24.6849 53.5331 24.3862 53.4158 24.1302C53.7144 24.1409 53.9864 24.1515 54.2318 24.1622C54.4878 24.1622 54.6638 24.1569 54.7598 24.1462C54.8558 24.1462 54.9198 24.1302 54.9518 24.0982C54.9944 24.0555 55.0158 23.9809 55.0158 23.8742V10.8822ZM75.8958 11.7782H83.7038V13.6182H75.8958V11.7782ZM79.9438 16.7702H81.9118V23.6822C81.9118 24.1835 81.8478 24.5782 81.7198 24.8662C81.6024 25.1649 81.3678 25.3889 81.0158 25.5382C80.6638 25.6769 80.2318 25.7622 79.7198 25.7942C79.2078 25.8369 78.5944 25.8582 77.8798 25.8582C77.8371 25.5809 77.7571 25.2502 77.6398 24.8662C77.5331 24.4929 77.4158 24.1729 77.2878 23.9062C77.5971 23.9169 77.9064 23.9275 78.2158 23.9382C78.5251 23.9489 78.8024 23.9542 79.0478 23.9542C79.2931 23.9435 79.4638 23.9382 79.5598 23.9382C79.7091 23.9382 79.8104 23.9169 79.8638 23.8742C79.9171 23.8209 79.9438 23.7409 79.9438 23.6342V16.7702ZM75.2078 16.2262H84.1198V18.0502H75.2078V16.2262ZM71.6078 18.1142L73.2878 16.4182L73.5278 16.5142V25.9222H71.6078V18.1142ZM73.4158 14.3542L75.2398 15.0582C74.8238 15.7622 74.3384 16.4715 73.7838 17.1862C73.2398 17.8902 72.6638 18.5569 72.0558 19.1862C71.4584 19.8155 70.8718 20.3649 70.2958 20.8342C70.2104 20.6955 70.0878 20.5249 69.9278 20.3222C69.7678 20.1089 69.6024 19.8955 69.4318 19.6822C69.2718 19.4689 69.1224 19.2982 68.9838 19.1702C69.5384 18.7862 70.0878 18.3382 70.6318 17.8262C71.1758 17.3035 71.6878 16.7489 72.1678 16.1622C72.6478 15.5649 73.0638 14.9622 73.4158 14.3542ZM72.8078 10.8662L74.6638 11.6342C74.2691 12.1355 73.8264 12.6475 73.3358 13.1702C72.8451 13.6822 72.3331 14.1729 71.7998 14.6422C71.2664 15.1115 70.7438 15.5222 70.2318 15.8742C70.1571 15.7249 70.0558 15.5542 69.9278 15.3622C69.7998 15.1595 69.6664 14.9622 69.5278 14.7702C69.3998 14.5782 69.2771 14.4182 69.1598 14.2902C69.6078 14.0129 70.0611 13.6769 70.5198 13.2822C70.9784 12.8875 71.4104 12.4822 71.8158 12.0662C72.2211 11.6395 72.5518 11.2395 72.8078 10.8662ZM91.1438 12.2742H99.8798V13.7942H91.1438V12.2742ZM94.4718 10.8662H96.3438V13.0262H94.4718V10.8662ZM94.4718 17.2022H96.3438V19.2342H94.4718V17.2022ZM91.1278 18.5462H99.8798V20.1302H91.1278V18.5462ZM92.4238 13.9062L94.0398 13.5702C94.1571 13.8369 94.2638 14.1355 94.3598 14.4662C94.4558 14.7969 94.5198 15.0795 94.5518 15.3142L92.8558 15.6982C92.8344 15.4635 92.7811 15.1755 92.6958 14.8342C92.6211 14.4929 92.5304 14.1835 92.4238 13.9062ZM96.7918 13.4102L98.6798 13.6822C98.5304 14.0662 98.3864 14.4395 98.2478 14.8022C98.1091 15.1542 97.9811 15.4582 97.8638 15.7142L96.2638 15.4422C96.3278 15.2502 96.3918 15.0369 96.4558 14.8022C96.5304 14.5569 96.5944 14.3169 96.6478 14.0822C96.7118 13.8369 96.7598 13.6129 96.7918 13.4102ZM90.9678 15.3622H100.04V18.0342H98.2798V16.8502H92.6478V18.0662H90.9678V15.3622ZM93.7518 21.0102H97.9438V22.5782H93.7518V21.0102ZM97.2878 21.0102H99.1438C99.1438 21.0102 99.1384 21.0955 99.1278 21.2662C99.1278 21.4262 99.1171 21.5595 99.0958 21.6662C99.0424 22.4129 98.9838 23.0315 98.9198 23.5222C98.8664 24.0129 98.7918 24.4022 98.6958 24.6902C98.6104 24.9782 98.5038 25.1915 98.3758 25.3302C98.2158 25.5115 98.0398 25.6395 97.8478 25.7142C97.6664 25.7889 97.4584 25.8369 97.2238 25.8582C97.0318 25.8795 96.7651 25.8902 96.4238 25.8902C96.0931 25.9009 95.7464 25.9009 95.3838 25.8902C95.3731 25.6449 95.3198 25.3675 95.2238 25.0582C95.1278 24.7595 95.0211 24.5035 94.9038 24.2902C95.2024 24.3115 95.4798 24.3275 95.7358 24.3382C95.9918 24.3489 96.1838 24.3542 96.3118 24.3542C96.5358 24.3542 96.7011 24.3062 96.8078 24.2102C96.8824 24.1249 96.9464 23.9755 96.9998 23.7622C97.0638 23.5489 97.1171 23.2395 97.1598 22.8342C97.2131 22.4289 97.2558 21.9009 97.2878 21.2502V21.0102ZM85.4638 14.1942H90.7598V15.9702H85.4638V14.1942ZM87.4158 10.8662H89.1438V25.8902H87.4158V10.8662ZM87.3838 15.4102L88.4398 15.7622C88.3331 16.4022 88.1944 17.0635 88.0238 17.7462C87.8531 18.4182 87.6611 19.0849 87.4478 19.7462C87.2344 20.3969 86.9998 21.0049 86.7438 21.5702C86.4984 22.1355 86.2318 22.6209 85.9438 23.0262C85.8584 22.7809 85.7251 22.4929 85.5438 22.1622C85.3731 21.8315 85.2184 21.5595 85.0798 21.3462C85.3358 20.9942 85.5811 20.5835 85.8158 20.1142C86.0504 19.6449 86.2691 19.1435 86.4718 18.6102C86.6744 18.0769 86.8504 17.5382 86.9998 16.9942C87.1598 16.4395 87.2878 15.9115 87.3838 15.4102ZM89.0638 16.6262C89.1598 16.7435 89.3038 16.9462 89.4958 17.2342C89.6878 17.5115 89.8904 17.8155 90.1038 18.1462C90.3278 18.4769 90.5304 18.7862 90.7118 19.0742C90.8931 19.3515 91.0158 19.5489 91.0798 19.6662L90.0878 21.0582C89.9918 20.8129 89.8638 20.5249 89.7038 20.1942C89.5438 19.8529 89.3731 19.5062 89.1918 19.1542C89.0211 18.8022 88.8504 18.4715 88.6798 18.1622C88.5198 17.8529 88.3811 17.5969 88.2638 17.3942L89.0638 16.6262ZM93.4958 19.2022H95.3198C95.2771 19.9915 95.1971 20.7329 95.0798 21.4262C94.9731 22.1089 94.7811 22.7329 94.5038 23.2982C94.2371 23.8529 93.8584 24.3489 93.3678 24.7862C92.8771 25.2342 92.2318 25.6235 91.4318 25.9542C91.3464 25.7195 91.1971 25.4582 90.9838 25.1702C90.7704 24.8929 90.5678 24.6689 90.3758 24.4982C91.0478 24.2529 91.5811 23.9595 91.9758 23.6182C92.3811 23.2769 92.6851 22.8822 92.8878 22.4342C93.0904 21.9862 93.2344 21.4955 93.3198 20.9622C93.4051 20.4289 93.4638 19.8422 93.4958 19.2022Z" fill="white"/>
</svg>
