<svg width="335" height="103" viewBox="0 0 335 103" fill="none" xmlns="http://www.w3.org/2000/svg">
<rect y="12" width="335" height="91" rx="12" fill="url(#paint0_linear_3961_582)" fill-opacity="0.8"/>
<rect x="0.5" y="12.5" width="334" height="90" rx="11.5" stroke="#FF782F" stroke-opacity="0.4"/>
<path d="M20.756 64.78H31.268V65.644H20.756V64.78ZM24.476 68.584H30.8V69.424H24.476V68.584ZM23.996 72.832H31.256V73.672H23.996V72.832ZM27.176 66.268H28.076V73.288H27.176V66.268ZM24.692 62.92L25.628 63.148C25.348 64.06 24.992 64.964 24.56 65.86C24.136 66.756 23.624 67.596 23.024 68.38C22.424 69.156 21.724 69.828 20.924 70.396C20.892 70.316 20.848 70.228 20.792 70.132C20.736 70.028 20.676 69.928 20.612 69.832C20.556 69.728 20.504 69.64 20.456 69.568C21 69.192 21.492 68.752 21.932 68.248C22.38 67.736 22.78 67.188 23.132 66.604C23.484 66.012 23.788 65.404 24.044 64.78C24.308 64.156 24.524 63.536 24.692 62.92ZM22.316 67.864H23.216V73.912H22.316V67.864ZM33.1719 73H32.3366L35.5114 64.2727H36.3636L39.5384 73H38.7031L35.9673 65.3082H35.9077L33.1719 73ZM33.7727 69.6548H38.1023V70.3707H33.7727V69.6548ZM40.2266 64.2727L42.9538 71.9645H43.0305L45.7578 64.2727H46.593L43.4183 73H42.5661L39.3913 64.2727H40.2266ZM48.0888 73V64.2727H53.1513V64.9886H48.8857V68.2741H52.8828V68.9901H48.8857V72.2841H53.2365V73H48.0888ZM55.3147 63.724H64.7707V64.624H55.3147V63.724ZM54.6787 68.824H65.4427V69.724H54.6787V68.824ZM56.1427 65.44L56.9587 65.2C57.1187 65.488 57.2747 65.796 57.4267 66.124C57.5787 66.452 57.7147 66.776 57.8347 67.096C57.9627 67.408 58.0507 67.68 58.0987 67.912L57.2467 68.212C57.1907 67.972 57.1027 67.696 56.9827 67.384C56.8707 67.064 56.7427 66.736 56.5987 66.4C56.4547 66.056 56.3027 65.736 56.1427 65.44ZM63.1147 65.14L64.0627 65.404C63.9187 65.732 63.7587 66.068 63.5827 66.412C63.4147 66.756 63.2467 67.088 63.0787 67.408C62.9107 67.728 62.7467 68.008 62.5867 68.248L61.8067 67.996C61.9587 67.74 62.1147 67.448 62.2747 67.12C62.4427 66.784 62.5987 66.444 62.7427 66.1C62.8867 65.748 63.0107 65.428 63.1147 65.14ZM59.5627 64.072H60.4987V73.948H59.5627V64.072ZM68.6467 72.556H75.4027V73.42H68.6467V72.556ZM68.2267 68.836H75.8827V73.936H74.9227V69.7H69.1507V73.96H68.2267V68.836ZM70.6387 62.872L71.6347 63.22C71.3947 63.684 71.1267 64.168 70.8307 64.672C70.5427 65.168 70.2507 65.648 69.9547 66.112C69.6587 66.568 69.3747 66.972 69.1027 67.324L68.3107 66.988C68.5827 66.636 68.8627 66.224 69.1507 65.752C69.4387 65.272 69.7107 64.78 69.9667 64.276C70.2307 63.772 70.4547 63.304 70.6387 62.872ZM73.5307 64.816L74.2387 64.3C74.6467 64.62 75.0627 64.98 75.4867 65.38C75.9107 65.772 76.2987 66.172 76.6507 66.58C77.0107 66.98 77.2947 67.344 77.5027 67.672L76.7227 68.272C76.5307 67.944 76.2587 67.576 75.9067 67.168C75.5627 66.76 75.1827 66.352 74.7667 65.944C74.3507 65.528 73.9387 65.152 73.5307 64.816ZM66.8107 66.604C67.3787 66.588 68.0267 66.568 68.7547 66.544C69.4827 66.512 70.2587 66.48 71.0827 66.448C71.9147 66.416 72.7627 66.38 73.6267 66.34C74.4987 66.3 75.3587 66.264 76.2067 66.232L76.1587 67.096C75.3187 67.144 74.4707 67.188 73.6147 67.228C72.7667 67.26 71.9347 67.296 71.1187 67.336C70.3027 67.376 69.5347 67.412 68.8147 67.444C68.0947 67.468 67.4507 67.492 66.8827 67.516L66.8107 66.604ZM85.7947 67.792L86.7427 68.068C86.3107 69.18 85.7307 70.12 85.0027 70.888C84.2747 71.656 83.4147 72.292 82.4227 72.796C81.4387 73.292 80.3347 73.696 79.1107 74.008C79.0787 73.928 79.0267 73.832 78.9547 73.72C78.8907 73.616 78.8187 73.512 78.7387 73.408C78.6667 73.304 78.5987 73.216 78.5347 73.144C79.7427 72.896 80.8227 72.548 81.7747 72.1C82.7347 71.644 83.5507 71.068 84.2227 70.372C84.9027 69.668 85.4267 68.808 85.7947 67.792ZM81.8707 65.728L82.7947 66.076C82.5067 66.46 82.1747 66.836 81.7987 67.204C81.4307 67.572 81.0387 67.92 80.6227 68.248C80.2147 68.568 79.8187 68.848 79.4347 69.088C79.3867 69.024 79.3187 68.948 79.2307 68.86C79.1427 68.764 79.0507 68.672 78.9547 68.584C78.8587 68.496 78.7747 68.424 78.7027 68.368C79.0947 68.16 79.4867 67.916 79.8787 67.636C80.2707 67.356 80.6387 67.056 80.9827 66.736C81.3347 66.408 81.6307 66.072 81.8707 65.728ZM82.3627 67.864C82.9227 69.28 83.8067 70.432 85.0147 71.32C86.2307 72.2 87.7667 72.796 89.6227 73.108C89.5587 73.172 89.4867 73.256 89.4067 73.36C89.3347 73.464 89.2627 73.568 89.1907 73.672C89.1267 73.784 89.0707 73.88 89.0227 73.96C87.7507 73.712 86.6307 73.336 85.6627 72.832C84.6947 72.32 83.8667 71.672 83.1787 70.888C82.4987 70.104 81.9427 69.184 81.5107 68.128L82.3627 67.864ZM78.7867 64.48H89.3227V65.368H78.7867V64.48ZM83.5747 62.908H84.4867V65.044H83.5747V62.908ZM85.4707 66.232L86.2027 65.692C86.5867 65.94 86.9827 66.22 87.3907 66.532C87.7987 66.844 88.1827 67.16 88.5427 67.48C88.9107 67.792 89.2107 68.08 89.4427 68.344L88.6507 68.98C88.4427 68.708 88.1627 68.412 87.8107 68.092C87.4587 67.764 87.0747 67.44 86.6587 67.12C86.2507 66.792 85.8547 66.496 85.4707 66.232ZM93.1747 66.124V67.324H99.1027V66.124H93.1747ZM93.1747 64.228V65.404H99.1027V64.228H93.1747ZM92.2867 63.472H100.003V68.08H92.2867V63.472ZM92.9587 69.1H100.147V69.916H92.9587V69.1ZM99.9187 69.1H100.831C100.831 69.1 100.827 69.124 100.819 69.172C100.819 69.22 100.815 69.276 100.807 69.34C100.807 69.404 100.803 69.46 100.795 69.508C100.723 70.404 100.643 71.132 100.555 71.692C100.475 72.252 100.387 72.684 100.291 72.988C100.195 73.284 100.087 73.496 99.9667 73.624C99.8547 73.744 99.7307 73.828 99.5947 73.876C99.4667 73.924 99.3147 73.952 99.1387 73.96C98.9867 73.976 98.7747 73.98 98.5027 73.972C98.2387 73.972 97.9547 73.964 97.6507 73.948C97.6427 73.836 97.6187 73.704 97.5787 73.552C97.5387 73.4 97.4827 73.268 97.4107 73.156C97.7067 73.188 97.9787 73.208 98.2267 73.216C98.4827 73.224 98.6627 73.228 98.7667 73.228C98.8787 73.228 98.9667 73.22 99.0307 73.204C99.0947 73.188 99.1547 73.148 99.2107 73.084C99.3067 72.996 99.3947 72.816 99.4747 72.544C99.5547 72.264 99.6307 71.86 99.7027 71.332C99.7827 70.796 99.8547 70.1 99.9187 69.244V69.1ZM93.8587 67.696L94.7347 67.972C94.4467 68.444 94.1107 68.896 93.7267 69.328C93.3427 69.76 92.9387 70.16 92.5147 70.528C92.0907 70.896 91.6627 71.216 91.2307 71.488C91.1827 71.432 91.1147 71.364 91.0267 71.284C90.9387 71.196 90.8507 71.112 90.7627 71.032C90.6747 70.952 90.5947 70.892 90.5227 70.852C91.1787 70.476 91.8067 70.012 92.4067 69.46C93.0067 68.908 93.4907 68.32 93.8587 67.696ZM95.1667 69.352L96.0187 69.604C95.7307 70.172 95.3827 70.708 94.9747 71.212C94.5667 71.716 94.1307 72.18 93.6667 72.604C93.2027 73.028 92.7227 73.4 92.2267 73.72C92.1867 73.664 92.1227 73.592 92.0347 73.504C91.9467 73.424 91.8587 73.344 91.7707 73.264C91.6827 73.184 91.6067 73.12 91.5427 73.072C92.2867 72.648 92.9787 72.112 93.6187 71.464C94.2587 70.808 94.7747 70.104 95.1667 69.352ZM97.6507 69.412L98.5147 69.616C98.1947 70.52 97.7787 71.356 97.2667 72.124C96.7627 72.884 96.2027 73.516 95.5867 74.02C95.5387 73.972 95.4707 73.912 95.3827 73.84C95.2947 73.768 95.2027 73.696 95.1067 73.624C95.0187 73.56 94.9427 73.504 94.8787 73.456C95.4867 72.992 96.0307 72.408 96.5107 71.704C96.9907 71 97.3707 70.236 97.6507 69.412ZM107.952 66.4545C107.904 65.9687 107.69 65.5824 107.309 65.2955C106.928 65.0085 106.45 64.8651 105.873 64.8651C105.467 64.8651 105.109 64.9347 104.799 65.0739C104.492 65.2131 104.251 65.4062 104.075 65.6534C103.901 65.8977 103.815 66.1761 103.815 66.4886C103.815 66.7188 103.864 66.9205 103.964 67.0938C104.063 67.267 104.197 67.4162 104.364 67.5412C104.535 67.6634 104.722 67.7685 104.927 67.8565C105.134 67.9446 105.343 68.0185 105.553 68.0781L106.474 68.3423C106.752 68.419 107.031 68.517 107.309 68.6364C107.587 68.7557 107.842 68.9062 108.072 69.0881C108.305 69.267 108.491 69.4872 108.63 69.7486C108.772 70.0071 108.843 70.3182 108.843 70.6818C108.843 71.1477 108.722 71.5668 108.481 71.9389C108.239 72.3111 107.893 72.6065 107.441 72.8253C106.989 73.0412 106.448 73.1491 105.817 73.1491C105.224 73.1491 104.708 73.0511 104.271 72.8551C103.833 72.6562 103.489 72.3821 103.239 72.0327C102.989 71.6832 102.849 71.2784 102.817 70.8182H103.636C103.664 71.1619 103.778 71.4531 103.977 71.6918C104.175 71.9304 104.434 72.1122 104.752 72.2372C105.07 72.3594 105.425 72.4205 105.817 72.4205C106.252 72.4205 106.638 72.348 106.977 72.2031C107.317 72.0554 107.585 71.8509 107.778 71.5895C107.974 71.3253 108.072 71.0185 108.072 70.669C108.072 70.3736 107.995 70.1264 107.842 69.9276C107.688 69.7259 107.474 69.5568 107.198 69.4205C106.925 69.2841 106.609 69.1634 106.248 69.0582L105.204 68.7514C104.519 68.5469 103.988 68.2642 103.61 67.9034C103.232 67.5426 103.043 67.0824 103.043 66.5227C103.043 66.054 103.168 65.642 103.418 65.2869C103.671 64.929 104.012 64.6506 104.441 64.4517C104.873 64.25 105.357 64.1491 105.894 64.1491C106.437 64.1491 106.917 64.2486 107.335 64.4474C107.752 64.6463 108.083 64.9205 108.327 65.2699C108.575 65.6165 108.707 66.0114 108.724 66.4545H107.952ZM114.762 70.4986V66.4545H115.521V73H114.762V71.9134H114.702C114.549 72.2486 114.306 72.5284 113.974 72.7528C113.641 72.9744 113.235 73.0852 112.755 73.0852C112.337 73.0852 111.967 72.9943 111.643 72.8125C111.319 72.6278 111.065 72.358 110.88 72.0028C110.695 71.6477 110.603 71.2116 110.603 70.6946V66.4545H111.362V70.6477C111.362 71.1591 111.512 71.571 111.813 71.8835C112.114 72.1932 112.501 72.348 112.972 72.348C113.268 72.348 113.552 72.277 113.825 72.1349C114.097 71.9929 114.322 71.7855 114.498 71.5128C114.674 71.2372 114.762 70.8991 114.762 70.4986ZM117.537 73V66.4545H118.3V73H117.537ZM117.925 65.3295C117.769 65.3295 117.635 65.277 117.525 65.1719C117.414 65.0639 117.358 64.9347 117.358 64.7841C117.358 64.6335 117.414 64.5057 117.525 64.4006C117.635 64.2926 117.769 64.2386 117.925 64.2386C118.081 64.2386 118.215 64.2926 118.326 64.4006C118.436 64.5057 118.492 64.6335 118.492 64.7841C118.492 64.9347 118.436 65.0639 118.326 65.1719C118.215 65.277 118.081 65.3295 117.925 65.3295ZM120.961 62.944L121.729 63.148C121.617 63.588 121.477 64.028 121.309 64.468C121.141 64.9 120.953 65.312 120.745 65.704C120.545 66.088 120.325 66.432 120.085 66.736C120.069 66.672 120.033 66.592 119.977 66.496C119.921 66.392 119.861 66.288 119.797 66.184C119.741 66.08 119.685 65.996 119.629 65.932C119.925 65.564 120.185 65.116 120.409 64.588C120.641 64.06 120.825 63.512 120.961 62.944ZM120.961 64.288H123.349V65.092H120.805L120.961 64.288ZM121.117 73.816L120.973 73.048L121.225 72.688L123.121 71.428C123.145 71.532 123.185 71.652 123.241 71.788C123.297 71.924 123.345 72.036 123.385 72.124C122.929 72.436 122.561 72.692 122.281 72.892C122.009 73.084 121.793 73.236 121.633 73.348C121.481 73.468 121.369 73.564 121.297 73.636C121.225 73.708 121.165 73.768 121.117 73.816ZM120.289 66.532H123.133V67.324H120.289V66.532ZM119.881 69.016H123.397V69.808H119.881V69.016ZM121.117 73.816C121.093 73.76 121.049 73.692 120.985 73.612C120.929 73.532 120.869 73.452 120.805 73.372C120.749 73.292 120.693 73.232 120.637 73.192C120.741 73.112 120.865 72.972 121.009 72.772C121.161 72.572 121.237 72.328 121.237 72.04V66.964H122.065V72.688C122.065 72.688 122.017 72.732 121.921 72.82C121.825 72.9 121.713 73 121.585 73.12C121.465 73.248 121.357 73.376 121.261 73.504C121.165 73.632 121.117 73.736 121.117 73.816ZM125.437 64.348H130.765V65.128H125.437V64.348ZM127.873 65.704H128.677V72.364H127.873V65.704ZM125.833 68.08C125.825 68.024 125.805 67.948 125.773 67.852C125.741 67.756 125.705 67.66 125.665 67.564C125.633 67.46 125.601 67.372 125.569 67.3C125.665 67.276 125.757 67.192 125.845 67.048C125.941 66.904 126.037 66.724 126.133 66.508C126.181 66.396 126.253 66.22 126.349 65.98C126.453 65.732 126.561 65.44 126.673 65.104C126.793 64.768 126.909 64.412 127.021 64.036C127.133 63.652 127.225 63.268 127.297 62.884L128.161 63.064C128.009 63.608 127.833 64.156 127.633 64.708C127.441 65.252 127.237 65.772 127.021 66.268C126.813 66.764 126.597 67.208 126.373 67.6V67.624C126.373 67.624 126.345 67.64 126.289 67.672C126.233 67.704 126.169 67.744 126.097 67.792C126.033 67.84 125.973 67.888 125.917 67.936C125.861 67.984 125.833 68.032 125.833 68.08ZM125.833 68.08V67.372L126.313 67.144H130.453L130.441 67.912H126.769C126.537 67.912 126.337 67.928 126.169 67.96C126.001 67.992 125.889 68.032 125.833 68.08ZM125.545 69.508H130.705V70.3H125.545V69.508ZM125.161 67.192V72.328H124.333V68.02H123.181V67.192H125.161ZM123.517 63.64L124.249 63.388C124.441 63.716 124.629 64.076 124.813 64.468C125.005 64.86 125.145 65.2 125.233 65.488L124.453 65.776C124.405 65.584 124.329 65.364 124.225 65.116C124.121 64.868 124.009 64.616 123.889 64.36C123.769 64.096 123.645 63.856 123.517 63.64ZM124.837 71.764C125.013 71.764 125.177 71.824 125.329 71.944C125.489 72.064 125.697 72.204 125.953 72.364C126.249 72.556 126.577 72.688 126.937 72.76C127.305 72.824 127.721 72.856 128.185 72.856C128.441 72.856 128.733 72.852 129.061 72.844C129.397 72.828 129.733 72.808 130.069 72.784C130.405 72.76 130.705 72.736 130.969 72.712C130.945 72.784 130.913 72.88 130.873 73C130.841 73.112 130.813 73.224 130.789 73.336C130.773 73.448 130.761 73.548 130.753 73.636C130.545 73.644 130.285 73.652 129.973 73.66C129.661 73.676 129.345 73.688 129.025 73.696C128.705 73.704 128.421 73.708 128.173 73.708C127.669 73.708 127.225 73.664 126.841 73.576C126.465 73.488 126.117 73.344 125.797 73.144C125.597 73 125.413 72.868 125.245 72.748C125.085 72.62 124.945 72.556 124.825 72.556C124.713 72.556 124.585 72.62 124.441 72.748C124.297 72.868 124.145 73.024 123.985 73.216C123.825 73.416 123.665 73.628 123.505 73.852L122.917 73.024C123.253 72.664 123.585 72.364 123.913 72.124C124.249 71.884 124.557 71.764 124.837 71.764ZM141.673 63.22L142.345 63.976C141.905 64.128 141.413 64.268 140.869 64.396C140.333 64.524 139.769 64.644 139.177 64.756C138.585 64.868 137.985 64.968 137.377 65.056C136.777 65.144 136.189 65.22 135.613 65.284C135.597 65.18 135.561 65.056 135.505 64.912C135.449 64.76 135.397 64.632 135.349 64.528C135.909 64.456 136.481 64.372 137.065 64.276C137.657 64.18 138.233 64.076 138.793 63.964C139.361 63.852 139.889 63.732 140.377 63.604C140.873 63.476 141.305 63.348 141.673 63.22ZM134.953 68.056H142.825V68.92H134.953V68.056ZM135.421 72.628H142.633V73.492H135.421V72.628ZM138.517 64.54H139.429V72.868H138.517V64.54ZM133.537 66.112L134.425 65.224V65.236V73.96H133.537V66.112ZM134.845 62.92L135.709 63.196C135.429 63.9 135.097 64.588 134.713 65.26C134.337 65.932 133.929 66.564 133.489 67.156C133.049 67.748 132.593 68.272 132.121 68.728C132.089 68.656 132.037 68.564 131.965 68.452C131.901 68.34 131.833 68.228 131.761 68.116C131.689 67.996 131.625 67.9 131.569 67.828C132.001 67.436 132.417 66.98 132.817 66.46C133.225 65.932 133.601 65.368 133.945 64.768C134.297 64.168 134.597 63.552 134.845 62.92ZM146.389 69.904H152.281V69.1H146.389V69.904ZM146.389 68.5H152.281V67.696H146.389V68.5ZM153.169 67.084V70.528H145.537V67.084H153.169ZM152.185 64.552C152.057 64.8 151.925 65.04 151.789 65.272C151.661 65.496 151.537 65.696 151.417 65.872L150.625 65.668C150.729 65.476 150.841 65.256 150.961 65.008C151.089 64.752 151.189 64.528 151.261 64.336L152.185 64.552ZM147.349 64.348C147.469 64.556 147.581 64.78 147.685 65.02C147.797 65.26 147.877 65.468 147.925 65.644L147.061 65.872C147.021 65.688 146.953 65.472 146.857 65.224C146.761 64.968 146.653 64.74 146.533 64.54L147.349 64.348ZM149.737 62.92V64.228H148.837V62.92H149.737ZM154.501 65.74V66.472H144.181V65.74H154.501ZM153.877 63.712V64.456H144.721V63.712H153.877ZM146.269 71.404C146.101 71.836 145.877 72.26 145.597 72.676C145.325 73.084 144.965 73.42 144.517 73.684L143.809 73.204C144.225 72.972 144.577 72.668 144.865 72.292C145.153 71.908 145.369 71.52 145.513 71.128L146.269 71.404ZM152.689 71.02C152.953 71.22 153.225 71.444 153.505 71.692C153.785 71.94 154.041 72.192 154.273 72.448C154.513 72.696 154.701 72.928 154.837 73.144L154.093 73.612C153.965 73.396 153.785 73.16 153.553 72.904C153.329 72.648 153.081 72.392 152.809 72.136C152.545 71.872 152.273 71.64 151.993 71.44L152.689 71.02ZM148.645 70.516C148.877 70.628 149.117 70.76 149.365 70.912C149.621 71.056 149.857 71.204 150.073 71.356C150.297 71.5 150.481 71.636 150.625 71.764L150.097 72.304C149.961 72.176 149.781 72.036 149.557 71.884C149.341 71.724 149.109 71.568 148.861 71.416C148.613 71.256 148.377 71.112 148.153 70.984L148.645 70.516ZM147.757 72.76C147.757 72.904 147.801 72.996 147.889 73.036C147.977 73.076 148.177 73.096 148.489 73.096C148.561 73.096 148.689 73.096 148.873 73.096C149.065 73.096 149.277 73.096 149.509 73.096C149.741 73.096 149.957 73.096 150.157 73.096C150.365 73.096 150.517 73.096 150.613 73.096C150.781 73.096 150.905 73.068 150.985 73.012C151.073 72.964 151.133 72.852 151.165 72.676C151.205 72.5 151.233 72.236 151.249 71.884C151.353 71.948 151.481 72.008 151.633 72.064C151.785 72.12 151.921 72.16 152.041 72.184C152.009 72.64 151.949 72.984 151.861 73.216C151.773 73.456 151.637 73.62 151.453 73.708C151.269 73.804 151.013 73.852 150.685 73.852C150.637 73.852 150.533 73.852 150.373 73.852C150.221 73.852 150.045 73.852 149.845 73.852C149.653 73.852 149.457 73.852 149.257 73.852C149.057 73.852 148.877 73.852 148.717 73.852C148.565 73.852 148.465 73.852 148.417 73.852C148.009 73.852 147.693 73.82 147.469 73.756C147.253 73.7 147.101 73.592 147.013 73.432C146.925 73.272 146.881 73.048 146.881 72.76V71.212H147.757V72.76ZM155.935 64.9886V64.2727H162.263V64.9886H159.498V73H158.701V64.9886H155.935ZM165.495 73.1364C164.929 73.1364 164.429 72.9929 163.995 72.706C163.563 72.419 163.225 72.0227 162.98 71.517C162.736 71.0085 162.614 70.4219 162.614 69.7571C162.614 69.0866 162.736 68.4972 162.98 67.9886C163.225 67.4773 163.563 67.0795 163.995 66.7955C164.429 66.5085 164.929 66.3651 165.495 66.3651C166.06 66.3651 166.559 66.5085 166.99 66.7955C167.422 67.0824 167.76 67.4801 168.005 67.9886C168.252 68.4972 168.375 69.0866 168.375 69.7571C168.375 70.4219 168.253 71.0085 168.009 71.517C167.765 72.0227 167.425 72.419 166.99 72.706C166.559 72.9929 166.06 73.1364 165.495 73.1364ZM165.495 72.4418C165.949 72.4418 166.334 72.3196 166.65 72.0753C166.965 71.831 167.203 71.5057 167.365 71.0994C167.53 70.6932 167.613 70.2457 167.613 69.7571C167.613 69.2685 167.53 68.8196 167.365 68.4105C167.203 68.0014 166.965 67.6733 166.65 67.4261C166.334 67.179 165.949 67.0554 165.495 67.0554C165.043 67.0554 164.658 67.179 164.34 67.4261C164.025 67.6733 163.784 68.0014 163.62 68.4105C163.458 68.8196 163.377 69.2685 163.377 69.7571C163.377 70.2457 163.458 70.6932 163.62 71.0994C163.784 71.5057 164.025 71.831 164.34 72.0753C164.655 72.3196 165.04 72.4418 165.495 72.4418ZM170.731 70.5284L170.722 69.5355H170.893L173.961 66.4545H174.92L171.89 69.4886L171.822 69.5014L170.731 70.5284ZM170.04 73V64.2727H170.799V73H170.04ZM174.119 73L171.46 69.6378L172.005 69.1136L175.09 73H174.119ZM178.722 73.1364C178.111 73.1364 177.583 72.9943 177.137 72.7102C176.691 72.4233 176.346 72.027 176.101 71.5213C175.86 71.0128 175.739 70.4276 175.739 69.7656C175.739 69.1065 175.86 68.5213 176.101 68.0099C176.346 67.4957 176.682 67.0937 177.111 66.804C177.543 66.5114 178.042 66.3651 178.607 66.3651C178.962 66.3651 179.304 66.4304 179.634 66.5611C179.963 66.6889 180.259 66.8864 180.52 67.1534C180.784 67.4176 180.993 67.7514 181.147 68.1548C181.3 68.5554 181.377 69.0298 181.377 69.5781V69.9531H176.263V69.2841H180.601C180.601 68.8636 180.516 68.4858 180.346 68.1506C180.178 67.8125 179.944 67.5455 179.642 67.3494C179.344 67.1534 178.999 67.0554 178.607 67.0554C178.192 67.0554 177.827 67.1662 177.512 67.3878C177.196 67.6094 176.949 67.902 176.77 68.2656C176.594 68.6293 176.505 69.027 176.502 69.4588V69.8594C176.502 70.3793 176.591 70.8338 176.77 71.223C176.952 71.6094 177.209 71.9091 177.542 72.1222C177.874 72.3352 178.267 72.4418 178.722 72.4418C179.032 72.4418 179.303 72.3935 179.536 72.2969C179.772 72.2003 179.969 72.071 180.128 71.9091C180.29 71.7443 180.412 71.5639 180.495 71.3679L181.215 71.6023C181.115 71.8778 180.952 72.1321 180.725 72.3651C180.5 72.598 180.219 72.7855 179.881 72.9276C179.546 73.0668 179.159 73.1364 178.722 73.1364ZM183.807 68.9091V73H183.048V66.4545H183.786V67.4815H183.854C184.007 67.1463 184.246 66.8778 184.57 66.6761C184.896 66.4716 185.3 66.3693 185.78 66.3693C186.22 66.3693 186.607 66.4616 186.939 66.6463C187.274 66.8281 187.534 67.0966 187.719 67.4517C187.906 67.8068 188 68.2429 188 68.7599V73H187.241V68.8068C187.241 68.2699 187.091 67.8452 186.79 67.5327C186.491 67.2202 186.091 67.0639 185.588 67.0639C185.244 67.0639 184.939 67.1378 184.672 67.2855C184.405 67.4332 184.193 67.6463 184.037 67.9247C183.884 68.2003 183.807 68.5284 183.807 68.9091ZM191.259 71.8068L191.182 72.2628C191.134 72.5696 191.066 72.9077 190.978 73.277C190.89 73.6463 190.799 73.9972 190.705 74.3295C190.611 74.6619 190.53 74.929 190.462 75.1307H189.878C189.915 74.9375 189.962 74.6918 190.019 74.3935C190.078 74.0952 190.14 73.7642 190.202 73.4006C190.265 73.0398 190.321 72.6676 190.373 72.2841L190.432 71.8068H191.259ZM194.834 67.216H201.806V68.068H194.834V67.216ZM194.834 69.832H201.806V70.672H194.834V69.832ZM194.834 72.448H201.806V73.3H194.834V72.448ZM194.222 64.564H202.502V73.912H201.554V65.428H195.134V73.972H194.222V64.564ZM197.726 62.896L198.77 63.04C198.642 63.4 198.502 63.76 198.35 64.12C198.206 64.48 198.066 64.792 197.93 65.056L197.126 64.9C197.206 64.708 197.282 64.496 197.354 64.264C197.434 64.024 197.506 63.788 197.57 63.556C197.642 63.316 197.694 63.096 197.726 62.896ZM210.35 65.692H215.174V66.556H210.35V65.692ZM214.73 65.692H215.606C215.606 65.692 215.606 65.72 215.606 65.776C215.606 65.832 215.606 65.896 215.606 65.968C215.606 66.04 215.606 66.1 215.606 66.148C215.566 67.388 215.522 68.436 215.474 69.292C215.434 70.14 215.386 70.84 215.33 71.392C215.282 71.936 215.222 72.36 215.15 72.664C215.078 72.968 214.986 73.188 214.874 73.324C214.754 73.476 214.626 73.584 214.49 73.648C214.362 73.712 214.202 73.756 214.01 73.78C213.826 73.796 213.582 73.804 213.278 73.804C212.974 73.804 212.662 73.792 212.342 73.768C212.334 73.64 212.306 73.492 212.258 73.324C212.21 73.156 212.146 73.008 212.066 72.88C212.402 72.912 212.714 72.932 213.002 72.94C213.29 72.948 213.498 72.952 213.626 72.952C213.73 72.952 213.818 72.94 213.89 72.916C213.97 72.892 214.038 72.844 214.094 72.772C214.182 72.676 214.254 72.488 214.31 72.208C214.374 71.92 214.43 71.512 214.478 70.984C214.526 70.448 214.57 69.764 214.61 68.932C214.65 68.1 214.69 67.088 214.73 65.896V65.692ZM212.102 63.124H212.99C212.982 63.964 212.966 64.8 212.942 65.632C212.926 66.464 212.874 67.28 212.786 68.08C212.706 68.872 212.578 69.628 212.402 70.348C212.226 71.068 211.978 71.732 211.658 72.34C211.346 72.948 210.95 73.484 210.47 73.948C210.414 73.876 210.346 73.796 210.266 73.708C210.186 73.628 210.102 73.548 210.014 73.468C209.926 73.396 209.842 73.34 209.762 73.3C210.226 72.876 210.602 72.38 210.89 71.812C211.186 71.244 211.414 70.62 211.574 69.94C211.742 69.26 211.862 68.544 211.934 67.792C212.006 67.04 212.05 66.272 212.066 65.488C212.09 64.696 212.102 63.908 212.102 63.124ZM205.334 63.904H209.978V64.708H205.334V63.904ZM204.914 66.76H210.194V67.588H204.914V66.76ZM208.442 68.824L209.186 68.62C209.338 68.98 209.494 69.368 209.654 69.784C209.814 70.192 209.962 70.588 210.098 70.972C210.234 71.356 210.338 71.688 210.41 71.968L209.618 72.232C209.554 71.944 209.454 71.608 209.318 71.224C209.19 70.832 209.05 70.428 208.898 70.012C208.746 69.588 208.594 69.192 208.442 68.824ZM205.346 72.484L205.274 71.716L205.73 71.392L209.654 70.564C209.67 70.684 209.69 70.82 209.714 70.972C209.738 71.124 209.762 71.248 209.786 71.344C209.042 71.512 208.422 71.652 207.926 71.764C207.43 71.876 207.022 71.972 206.702 72.052C206.39 72.124 206.142 72.188 205.958 72.244C205.782 72.3 205.65 72.344 205.562 72.376C205.474 72.408 205.402 72.444 205.346 72.484ZM205.334 72.472C205.318 72.408 205.294 72.328 205.262 72.232C205.23 72.128 205.194 72.024 205.154 71.92C205.114 71.808 205.078 71.716 205.046 71.644C205.142 71.612 205.23 71.524 205.31 71.38C205.398 71.228 205.494 71.036 205.598 70.804C205.646 70.692 205.714 70.512 205.802 70.264C205.89 70.008 205.99 69.708 206.102 69.364C206.214 69.02 206.318 68.652 206.414 68.26C206.518 67.86 206.606 67.464 206.678 67.072L207.566 67.36C207.438 67.888 207.286 68.432 207.11 68.992C206.942 69.544 206.758 70.076 206.558 70.588C206.366 71.092 206.17 71.548 205.97 71.956V71.98C205.97 71.98 205.938 71.996 205.874 72.028C205.81 72.06 205.734 72.104 205.646 72.16C205.566 72.208 205.494 72.26 205.43 72.316C205.366 72.372 205.334 72.424 205.334 72.472ZM220.67 62.92L221.642 63.196C221.378 63.596 221.086 64.008 220.766 64.432C220.446 64.856 220.15 65.216 219.878 65.512L219.146 65.248C219.322 65.032 219.502 64.788 219.686 64.516C219.878 64.244 220.062 63.968 220.238 63.688C220.414 63.408 220.558 63.152 220.67 62.92ZM223.55 63.856L224.246 63.424C224.614 63.648 224.99 63.908 225.374 64.204C225.766 64.492 226.134 64.784 226.478 65.08C226.822 65.368 227.102 65.64 227.318 65.896L226.562 66.388C226.362 66.14 226.094 65.868 225.758 65.572C225.422 65.268 225.062 64.968 224.678 64.672C224.294 64.368 223.918 64.096 223.55 63.856ZM217.358 65.008C217.886 64.992 218.486 64.98 219.158 64.972C219.838 64.964 220.558 64.952 221.318 64.936C222.078 64.912 222.858 64.888 223.658 64.864C224.466 64.84 225.262 64.816 226.046 64.792L226.01 65.548C224.986 65.588 223.954 65.628 222.914 65.668C221.882 65.7 220.898 65.732 219.962 65.764C219.026 65.788 218.194 65.808 217.466 65.824L217.358 65.008ZM216.902 66.808H227.666V67.6H216.902V66.808ZM222.614 68.164L223.334 68.512C223.03 68.744 222.678 68.96 222.278 69.16C221.886 69.36 221.474 69.544 221.042 69.712C220.61 69.872 220.194 70.004 219.794 70.108C219.73 70.028 219.646 69.936 219.542 69.832C219.446 69.72 219.35 69.628 219.254 69.556C219.646 69.46 220.05 69.34 220.466 69.196C220.89 69.052 221.29 68.892 221.666 68.716C222.042 68.54 222.358 68.356 222.614 68.164ZM223.862 69.568L224.582 69.916C224.198 70.236 223.738 70.528 223.202 70.792C222.666 71.048 222.098 71.276 221.498 71.476C220.898 71.676 220.302 71.848 219.71 71.992C219.646 71.896 219.566 71.784 219.47 71.656C219.382 71.528 219.294 71.42 219.206 71.332C219.766 71.22 220.338 71.08 220.922 70.912C221.514 70.736 222.066 70.536 222.578 70.312C223.09 70.08 223.518 69.832 223.862 69.568ZM225.434 70.924L226.214 71.296C225.726 71.8 225.106 72.232 224.354 72.592C223.61 72.944 222.778 73.236 221.858 73.468C220.938 73.708 219.966 73.896 218.942 74.032C218.894 73.912 218.83 73.78 218.75 73.636C218.678 73.5 218.602 73.38 218.522 73.276C219.498 73.172 220.426 73.02 221.306 72.82C222.194 72.612 222.994 72.352 223.706 72.04C224.418 71.728 224.994 71.356 225.434 70.924ZM221.162 65.416L222.038 65.632C221.558 66.808 220.894 67.816 220.046 68.656C219.198 69.488 218.234 70.16 217.154 70.672C217.114 70.608 217.054 70.532 216.974 70.444C216.894 70.356 216.81 70.272 216.722 70.192C216.634 70.104 216.558 70.032 216.494 69.976C217.574 69.528 218.518 68.92 219.326 68.152C220.134 67.384 220.746 66.472 221.162 65.416ZM224.174 66.988C224.438 67.388 224.77 67.78 225.17 68.164C225.57 68.54 226.01 68.876 226.49 69.172C226.97 69.468 227.446 69.712 227.918 69.904C227.854 69.96 227.782 70.032 227.702 70.12C227.63 70.2 227.558 70.284 227.486 70.372C227.422 70.46 227.366 70.54 227.318 70.612C226.83 70.388 226.338 70.104 225.842 69.76C225.354 69.416 224.898 69.032 224.474 68.608C224.058 68.184 223.706 67.74 223.418 67.276L224.174 66.988ZM231.398 67.276H237.122V68.116H231.398V67.276ZM231.974 64.636H238.394V65.5H231.974V64.636ZM228.914 69.88H239.654V70.732H228.914V69.88ZM236.81 67.276H237.734C237.734 67.276 237.73 67.304 237.722 67.36C237.722 67.416 237.718 67.48 237.71 67.552C237.71 67.616 237.706 67.672 237.698 67.72C237.578 68.968 237.458 69.988 237.338 70.78C237.218 71.564 237.086 72.172 236.942 72.604C236.806 73.028 236.642 73.336 236.45 73.528C236.298 73.68 236.138 73.78 235.97 73.828C235.81 73.884 235.61 73.924 235.37 73.948C235.154 73.956 234.846 73.956 234.446 73.948C234.054 73.94 233.642 73.924 233.21 73.9C233.202 73.764 233.17 73.612 233.114 73.444C233.058 73.276 232.986 73.128 232.898 73C233.354 73.048 233.782 73.076 234.182 73.084C234.59 73.092 234.878 73.096 235.046 73.096C235.198 73.096 235.318 73.088 235.406 73.072C235.502 73.056 235.59 73.016 235.67 72.952C235.83 72.808 235.974 72.532 236.102 72.124C236.238 71.716 236.362 71.132 236.474 70.372C236.586 69.612 236.698 68.636 236.81 67.444V67.276ZM231.902 62.896L232.838 62.992C232.742 63.456 232.642 63.948 232.538 64.468C232.434 64.988 232.326 65.508 232.214 66.028C232.102 66.548 231.99 67.04 231.878 67.504C231.766 67.968 231.662 68.38 231.566 68.74L230.642 68.656C230.746 68.288 230.854 67.868 230.966 67.396C231.078 66.924 231.19 66.428 231.302 65.908C231.422 65.38 231.534 64.86 231.638 64.348C231.742 63.836 231.83 63.352 231.902 62.896ZM241.334 65.392H251.282V66.256H241.334V65.392ZM240.89 68.872H251.654V69.736H240.89V68.872ZM247.97 65.848H248.882V73.96H247.97V65.848ZM243.686 65.848H244.586V68.584C244.586 69.08 244.55 69.58 244.478 70.084C244.414 70.58 244.278 71.064 244.07 71.536C243.87 72.008 243.566 72.456 243.158 72.88C242.75 73.304 242.202 73.692 241.514 74.044C241.474 73.972 241.418 73.892 241.346 73.804C241.274 73.724 241.198 73.64 241.118 73.552C241.038 73.472 240.962 73.408 240.89 73.36C241.522 73.04 242.022 72.692 242.39 72.316C242.766 71.94 243.046 71.544 243.23 71.128C243.414 70.712 243.534 70.288 243.59 69.856C243.654 69.424 243.686 68.992 243.686 68.56V65.848ZM242.882 63.244L243.674 62.92C243.93 63.24 244.182 63.596 244.43 63.988C244.678 64.38 244.858 64.72 244.97 65.008L244.118 65.392C244.054 65.192 243.954 64.968 243.818 64.72C243.69 64.472 243.542 64.22 243.374 63.964C243.214 63.7 243.05 63.46 242.882 63.244ZM248.774 62.884L249.77 63.196C249.538 63.572 249.294 63.956 249.038 64.348C248.782 64.74 248.546 65.072 248.33 65.344L247.55 65.056C247.694 64.864 247.842 64.64 247.994 64.384C248.146 64.128 248.29 63.868 248.426 63.604C248.57 63.34 248.686 63.1 248.774 62.884ZM262.466 65.572H263.318V72.808C263.318 73.064 263.282 73.264 263.21 73.408C263.146 73.552 263.026 73.664 262.85 73.744C262.674 73.808 262.434 73.848 262.13 73.864C261.826 73.88 261.434 73.888 260.954 73.888C260.938 73.768 260.902 73.624 260.846 73.456C260.798 73.288 260.742 73.148 260.678 73.036C261.03 73.044 261.35 73.048 261.638 73.048C261.934 73.048 262.13 73.044 262.226 73.036C262.386 73.036 262.466 72.96 262.466 72.808V65.572ZM257.21 65.572H262.79V66.4H258.05V73.948H257.21V65.572ZM259.898 62.932H260.762V64.528C260.762 65.056 260.738 65.616 260.69 66.208C260.65 66.792 260.562 67.388 260.426 67.996C260.298 68.604 260.094 69.204 259.814 69.796C259.534 70.388 259.154 70.952 258.674 71.488C258.618 71.424 258.546 71.36 258.458 71.296C258.37 71.224 258.278 71.156 258.182 71.092C258.094 71.028 258.01 70.98 257.93 70.948C258.386 70.444 258.746 69.92 259.01 69.376C259.274 68.832 259.47 68.28 259.598 67.72C259.726 67.16 259.806 66.608 259.838 66.064C259.878 65.52 259.898 65.004 259.898 64.516V62.932ZM259.634 67.684L260.342 67.324C260.598 67.692 260.862 68.092 261.134 68.524C261.406 68.956 261.662 69.376 261.902 69.784C262.142 70.184 262.33 70.536 262.466 70.84L261.71 71.296C261.574 70.992 261.39 70.632 261.158 70.216C260.934 69.792 260.686 69.36 260.414 68.92C260.15 68.48 259.89 68.068 259.634 67.684ZM253.07 70.816C253.062 70.76 253.042 70.684 253.01 70.588C252.978 70.492 252.942 70.396 252.902 70.3C252.87 70.204 252.838 70.12 252.806 70.048C252.934 70.024 253.07 69.94 253.214 69.796C253.358 69.652 253.526 69.468 253.718 69.244C253.814 69.132 253.958 68.952 254.15 68.704C254.342 68.456 254.558 68.16 254.798 67.816C255.046 67.464 255.294 67.088 255.542 66.688C255.79 66.28 256.018 65.872 256.226 65.464L256.922 65.884C256.45 66.708 255.93 67.516 255.362 68.308C254.794 69.092 254.222 69.776 253.646 70.36V70.384C253.646 70.384 253.618 70.4 253.562 70.432C253.506 70.456 253.438 70.492 253.358 70.54C253.278 70.58 253.21 70.624 253.154 70.672C253.098 70.72 253.07 70.768 253.07 70.816ZM253.07 70.816L253.022 70.12L253.454 69.82L256.754 69.22C256.746 69.332 256.738 69.46 256.73 69.604C256.73 69.74 256.734 69.856 256.742 69.952C255.982 70.104 255.374 70.228 254.918 70.324C254.462 70.42 254.11 70.5 253.862 70.564C253.614 70.62 253.434 70.668 253.322 70.708C253.218 70.74 253.134 70.776 253.07 70.816ZM252.986 67.924C252.978 67.868 252.958 67.792 252.926 67.696C252.894 67.592 252.858 67.488 252.818 67.384C252.786 67.28 252.754 67.192 252.722 67.12C252.826 67.096 252.93 67.016 253.034 66.88C253.146 66.744 253.266 66.572 253.394 66.364C253.458 66.26 253.554 66.092 253.682 65.86C253.818 65.628 253.966 65.352 254.126 65.032C254.286 64.712 254.442 64.372 254.594 64.012C254.754 63.644 254.894 63.28 255.014 62.92L255.806 63.28C255.606 63.776 255.382 64.276 255.134 64.78C254.886 65.276 254.622 65.752 254.342 66.208C254.07 66.664 253.794 67.08 253.514 67.456V67.48C253.514 67.48 253.486 67.496 253.43 67.528C253.382 67.552 253.322 67.588 253.25 67.636C253.186 67.684 253.126 67.732 253.07 67.78C253.014 67.828 252.986 67.876 252.986 67.924ZM252.986 67.924L252.974 67.288L253.394 67.024L255.614 66.784C255.59 66.896 255.57 67.02 255.554 67.156C255.546 67.292 255.542 67.404 255.542 67.492C255.038 67.556 254.626 67.612 254.306 67.66C253.994 67.708 253.75 67.748 253.574 67.78C253.406 67.804 253.278 67.828 253.19 67.852C253.11 67.876 253.042 67.9 252.986 67.924ZM252.77 72.364C253.274 72.26 253.886 72.128 254.606 71.968C255.326 71.808 256.062 71.64 256.814 71.464L256.886 72.22C256.19 72.396 255.494 72.572 254.798 72.748C254.11 72.916 253.49 73.072 252.938 73.216L252.77 72.364ZM267.002 63.652H270.398V64.564H267.002V63.652ZM269.942 63.652H270.854C270.854 64.004 270.87 64.42 270.902 64.9C270.934 65.38 271.002 65.896 271.106 66.448C271.21 66.992 271.37 67.56 271.586 68.152C271.802 68.744 272.094 69.336 272.462 69.928C272.83 70.512 273.29 71.08 273.842 71.632C274.402 72.184 275.078 72.692 275.87 73.156C275.806 73.212 275.722 73.284 275.618 73.372C275.522 73.468 275.43 73.564 275.342 73.66C275.262 73.764 275.194 73.852 275.138 73.924C274.338 73.436 273.65 72.9 273.074 72.316C272.506 71.724 272.03 71.108 271.646 70.468C271.27 69.828 270.966 69.188 270.734 68.548C270.51 67.9 270.338 67.276 270.218 66.676C270.106 66.068 270.03 65.504 269.99 64.984C269.958 64.464 269.942 64.02 269.942 63.652ZM269.594 66.004L270.614 66.184C270.326 67.4 269.95 68.496 269.486 69.472C269.03 70.448 268.474 71.308 267.818 72.052C267.17 72.788 266.402 73.416 265.514 73.936C265.466 73.872 265.39 73.796 265.286 73.708C265.19 73.62 265.086 73.528 264.974 73.432C264.87 73.344 264.778 73.272 264.698 73.216C266.034 72.512 267.094 71.56 267.878 70.36C268.662 69.152 269.234 67.7 269.594 66.004ZM285.158 66.364L285.866 66.004C286.082 66.284 286.302 66.588 286.526 66.916C286.758 67.236 286.974 67.548 287.174 67.852C287.382 68.156 287.542 68.428 287.654 68.668L286.886 69.088C286.782 68.856 286.634 68.584 286.442 68.272C286.25 67.952 286.042 67.628 285.818 67.3C285.602 66.964 285.382 66.652 285.158 66.364ZM281.15 64.66H287.642V65.476H281.15V64.66ZM284.642 68.776H285.53V72.568C285.53 72.728 285.546 72.828 285.578 72.868C285.618 72.908 285.702 72.928 285.83 72.928C285.87 72.928 285.946 72.928 286.058 72.928C286.17 72.928 286.282 72.928 286.394 72.928C286.514 72.928 286.598 72.928 286.646 72.928C286.734 72.928 286.802 72.892 286.85 72.82C286.898 72.74 286.93 72.584 286.946 72.352C286.97 72.112 286.986 71.748 286.994 71.26C287.082 71.34 287.202 71.416 287.354 71.488C287.514 71.552 287.65 71.6 287.762 71.632C287.746 72.176 287.702 72.6 287.63 72.904C287.566 73.208 287.462 73.42 287.318 73.54C287.182 73.66 286.99 73.72 286.742 73.72C286.702 73.72 286.63 73.72 286.526 73.72C286.43 73.72 286.322 73.72 286.202 73.72C286.09 73.72 285.986 73.72 285.89 73.72C285.794 73.72 285.726 73.72 285.686 73.72C285.406 73.72 285.19 73.684 285.038 73.612C284.894 73.548 284.79 73.432 284.726 73.264C284.67 73.096 284.642 72.864 284.642 72.568V68.776ZM282.386 68.8H283.274C283.25 69.472 283.198 70.076 283.118 70.612C283.046 71.148 282.918 71.624 282.734 72.04C282.55 72.456 282.29 72.816 281.954 73.12C281.618 73.432 281.178 73.7 280.634 73.924C280.594 73.844 280.542 73.756 280.478 73.66C280.422 73.572 280.358 73.484 280.286 73.396C280.214 73.308 280.142 73.24 280.07 73.192C280.558 73.008 280.95 72.788 281.246 72.532C281.55 72.268 281.782 71.96 281.942 71.608C282.102 71.256 282.21 70.848 282.266 70.384C282.33 69.92 282.37 69.392 282.386 68.8ZM281.21 68.836L281.186 68.152L281.702 67.852L286.538 67.456C286.538 67.568 286.546 67.696 286.562 67.84C286.586 67.976 286.606 68.092 286.622 68.188C285.71 68.276 284.946 68.352 284.33 68.416C283.722 68.472 283.226 68.524 282.842 68.572C282.458 68.612 282.158 68.648 281.942 68.68C281.734 68.704 281.578 68.728 281.474 68.752C281.37 68.776 281.282 68.804 281.21 68.836ZM283.406 63.112L284.234 62.896C284.37 63.136 284.506 63.404 284.642 63.7C284.786 63.988 284.894 64.228 284.966 64.42L284.066 64.696C284.002 64.488 283.906 64.236 283.778 63.94C283.65 63.644 283.526 63.368 283.406 63.112ZM281.21 68.836C281.202 68.748 281.178 68.648 281.138 68.536C281.098 68.424 281.058 68.312 281.018 68.2C280.978 68.088 280.942 68.004 280.91 67.948C281.022 67.916 281.146 67.876 281.282 67.828C281.426 67.772 281.554 67.692 281.666 67.588C281.754 67.508 281.882 67.36 282.05 67.144C282.226 66.928 282.414 66.684 282.614 66.412C282.822 66.14 283.018 65.876 283.202 65.62C283.386 65.364 283.53 65.16 283.634 65.008H284.714C284.562 65.224 284.378 65.48 284.162 65.776C283.954 66.072 283.734 66.376 283.502 66.688C283.27 66.992 283.046 67.28 282.83 67.552C282.614 67.824 282.426 68.052 282.266 68.236C282.266 68.236 282.23 68.248 282.158 68.272C282.086 68.296 281.998 68.332 281.894 68.38C281.79 68.42 281.686 68.464 281.582 68.512C281.478 68.56 281.39 68.612 281.318 68.668C281.246 68.724 281.21 68.78 281.21 68.836ZM277.058 70.816C277.042 70.752 277.018 70.668 276.986 70.564C276.954 70.452 276.918 70.34 276.878 70.228C276.838 70.116 276.798 70.02 276.758 69.94C276.894 69.916 277.034 69.836 277.178 69.7C277.322 69.556 277.49 69.372 277.682 69.148C277.778 69.044 277.922 68.868 278.114 68.62C278.314 68.372 278.53 68.076 278.762 67.732C279.002 67.388 279.246 67.02 279.494 66.628C279.75 66.228 279.978 65.824 280.178 65.416L280.982 65.896C280.51 66.712 279.99 67.508 279.422 68.284C278.854 69.052 278.282 69.728 277.706 70.312V70.336C277.706 70.336 277.67 70.352 277.598 70.384C277.534 70.416 277.462 70.456 277.382 70.504C277.302 70.552 277.226 70.604 277.154 70.66C277.09 70.716 277.058 70.768 277.058 70.816ZM277.058 70.816L276.998 70.048L277.442 69.724L280.682 69.088C280.666 69.208 280.662 69.348 280.67 69.508C280.678 69.66 280.686 69.784 280.694 69.88C279.958 70.04 279.362 70.172 278.906 70.276C278.45 70.38 278.098 70.464 277.85 70.528C277.61 70.592 277.434 70.648 277.322 70.696C277.21 70.736 277.122 70.776 277.058 70.816ZM276.986 67.924C276.97 67.86 276.942 67.772 276.902 67.66C276.87 67.548 276.83 67.432 276.782 67.312C276.742 67.184 276.702 67.08 276.662 67C276.774 66.976 276.886 66.9 276.998 66.772C277.118 66.636 277.242 66.468 277.37 66.268C277.45 66.164 277.554 66 277.682 65.776C277.818 65.544 277.966 65.272 278.126 64.96C278.294 64.648 278.462 64.312 278.63 63.952C278.798 63.592 278.946 63.232 279.074 62.872L279.986 63.292C279.77 63.788 279.53 64.284 279.266 64.78C279.002 65.268 278.726 65.736 278.438 66.184C278.15 66.632 277.858 67.036 277.562 67.396V67.42C277.562 67.42 277.53 67.44 277.466 67.48C277.41 67.512 277.342 67.556 277.262 67.612C277.19 67.66 277.126 67.712 277.07 67.768C277.014 67.824 276.986 67.876 276.986 67.924ZM276.986 67.924L276.962 67.24L277.406 66.952L279.65 66.712C279.626 66.832 279.606 66.968 279.59 67.12C279.582 67.264 279.578 67.384 279.578 67.48C279.066 67.552 278.65 67.612 278.33 67.66C278.01 67.7 277.762 67.736 277.586 67.768C277.41 67.8 277.278 67.828 277.19 67.852C277.102 67.876 277.034 67.9 276.986 67.924ZM276.77 72.364C277.098 72.276 277.47 72.172 277.886 72.052C278.31 71.932 278.758 71.804 279.23 71.668C279.702 71.524 280.182 71.38 280.67 71.236L280.814 72.016C280.142 72.232 279.47 72.448 278.798 72.664C278.126 72.88 277.518 73.076 276.974 73.252L276.77 72.364ZM289.91 63.7L290.498 63.124C290.722 63.3 290.954 63.496 291.194 63.712C291.442 63.928 291.674 64.144 291.89 64.36C292.114 64.568 292.29 64.756 292.418 64.924L291.806 65.596C291.678 65.42 291.506 65.224 291.29 65.008C291.082 64.784 290.858 64.556 290.618 64.324C290.378 64.092 290.142 63.884 289.91 63.7ZM290.618 73.732L290.438 72.844L290.702 72.46L293.114 70.816C293.13 70.896 293.154 70.988 293.186 71.092C293.226 71.188 293.266 71.284 293.306 71.38C293.346 71.476 293.382 71.552 293.414 71.608C292.838 72.008 292.378 72.336 292.034 72.592C291.69 72.84 291.422 73.036 291.23 73.18C291.046 73.324 290.91 73.436 290.822 73.516C290.734 73.596 290.666 73.668 290.618 73.732ZM288.818 66.688H291.278V67.576H288.818V66.688ZM292.73 66.904H299.774V67.828H292.73V66.904ZM295.778 62.956H296.726V73.96H295.778V62.956ZM290.618 73.732C290.586 73.652 290.542 73.556 290.486 73.444C290.43 73.34 290.37 73.236 290.306 73.132C290.25 73.036 290.19 72.96 290.126 72.904C290.246 72.824 290.374 72.7 290.51 72.532C290.654 72.356 290.726 72.14 290.726 71.884V66.688H291.638V72.7C291.638 72.7 291.602 72.724 291.53 72.772C291.458 72.82 291.37 72.884 291.266 72.964C291.17 73.036 291.07 73.12 290.966 73.216C290.87 73.312 290.786 73.4 290.714 73.48C290.65 73.568 290.618 73.652 290.618 73.732ZM302.594 70.072C302.938 70.072 303.246 70.156 303.518 70.324C303.79 70.484 304.01 70.704 304.178 70.984C304.346 71.256 304.43 71.56 304.43 71.896C304.43 72.232 304.346 72.54 304.178 72.82C304.01 73.092 303.79 73.312 303.518 73.48C303.246 73.648 302.938 73.732 302.594 73.732C302.258 73.732 301.95 73.648 301.67 73.48C301.398 73.312 301.178 73.092 301.01 72.82C300.85 72.54 300.77 72.232 300.77 71.896C300.77 71.56 300.85 71.256 301.01 70.984C301.178 70.704 301.402 70.484 301.682 70.324C301.962 70.156 302.266 70.072 302.594 70.072ZM302.594 73.12C302.938 73.12 303.226 73.004 303.458 72.772C303.698 72.532 303.818 72.24 303.818 71.896C303.818 71.68 303.762 71.48 303.65 71.296C303.546 71.112 303.402 70.964 303.218 70.852C303.034 70.74 302.826 70.684 302.594 70.684C302.378 70.684 302.178 70.74 301.994 70.852C301.81 70.964 301.662 71.112 301.55 71.296C301.438 71.48 301.382 71.68 301.382 71.896C301.382 72.12 301.438 72.328 301.55 72.52C301.662 72.704 301.81 72.852 301.994 72.964C302.178 73.068 302.378 73.12 302.594 73.12Z" fill="white"/>
<path d="M0 12C0 5.37258 5.37258 0 12 0H108.313C111.082 0 113.014 2.74593 112.078 5.35209L102.021 33.3521C101.451 34.9406 99.9445 36 98.2566 36H0V12Z" fill="#FF782F"/>
<path d="M26.1998 10.8663L28.3438 11.4103C27.9598 11.9543 27.5544 12.5036 27.1278 13.0583C26.7118 13.6023 26.3278 14.0663 25.9758 14.4503L24.4078 13.9063C24.6318 13.629 24.8558 13.3143 25.0798 12.9623C25.3038 12.6103 25.5118 12.253 25.7038 11.8903C25.9064 11.517 26.0718 11.1756 26.1998 10.8663ZM30.2158 12.2903L31.7358 11.4263C32.1731 11.7463 32.6371 12.109 33.1278 12.5143C33.6184 12.909 34.0824 13.309 34.5198 13.7143C34.9678 14.1196 35.3304 14.493 35.6078 14.8343L33.9438 15.8263C33.6984 15.485 33.3678 15.1116 32.9518 14.7063C32.5358 14.2903 32.0878 13.869 31.6078 13.4423C31.1278 13.0156 30.6638 12.6316 30.2158 12.2903ZM22.0398 13.4583C22.7651 13.437 23.5811 13.4156 24.4878 13.3943C25.4051 13.373 26.3704 13.3516 27.3838 13.3303C28.4078 13.2983 29.4531 13.2663 30.5198 13.2343C31.5864 13.2023 32.6424 13.1703 33.6878 13.1383L33.6078 14.7223C32.2638 14.7756 30.9038 14.8343 29.5278 14.8983C28.1518 14.9516 26.8398 14.9996 25.5918 15.0423C24.3438 15.085 23.2291 15.117 22.2478 15.1383L22.0398 13.4583ZM21.4958 16.0343H36.0718V17.6503H21.4958V16.0343ZM28.9998 18.1463L30.4878 18.8663C30.0718 19.1543 29.5971 19.421 29.0638 19.6663C28.5304 19.901 27.9758 20.109 27.3998 20.2903C26.8344 20.4716 26.2904 20.621 25.7678 20.7383C25.6504 20.5676 25.4904 20.3756 25.2878 20.1623C25.0958 19.949 24.9038 19.7676 24.7118 19.6183C25.1918 19.5223 25.7038 19.3996 26.2478 19.2503C26.7918 19.101 27.3038 18.9303 27.7838 18.7383C28.2744 18.5463 28.6798 18.349 28.9998 18.1463ZM30.4718 19.9063L31.9918 20.6423C31.4691 21.0583 30.8558 21.4316 30.1518 21.7623C29.4584 22.093 28.7171 22.381 27.9278 22.6263C27.1491 22.8716 26.3651 23.0796 25.5758 23.2503C25.4691 23.0476 25.3198 22.8183 25.1278 22.5623C24.9464 22.2956 24.7598 22.0716 24.5678 21.8903C25.2718 21.773 25.9971 21.6183 26.7438 21.4263C27.5011 21.2343 28.2051 21.0103 28.8558 20.7543C29.5064 20.4983 30.0451 20.2156 30.4718 19.9063ZM32.3918 21.6023L34.0718 22.3703C33.3891 23.0743 32.5464 23.661 31.5438 24.1303C30.5518 24.5996 29.4478 24.9783 28.2318 25.2663C27.0158 25.5543 25.7251 25.7783 24.3598 25.9383C24.2744 25.693 24.1518 25.421 23.9918 25.1223C23.8318 24.8343 23.6611 24.5836 23.4798 24.3703C24.7278 24.2636 25.9224 24.0983 27.0638 23.8743C28.2051 23.6503 29.2344 23.357 30.1518 22.9943C31.0798 22.621 31.8264 22.157 32.3918 21.6023ZM26.6958 14.3703L28.5998 14.8343C27.9918 16.4556 27.1438 17.8583 26.0558 19.0423C24.9784 20.2156 23.7358 21.1596 22.3278 21.8743C22.2424 21.7463 22.1144 21.5863 21.9438 21.3943C21.7731 21.2023 21.5971 21.0156 21.4158 20.8343C21.2344 20.653 21.0691 20.5036 20.9198 20.3863C22.3064 19.8103 23.4958 19.0156 24.4878 18.0023C25.4798 16.9783 26.2158 15.7676 26.6958 14.3703ZM31.6238 16.4343C31.9438 16.957 32.3544 17.4636 32.8558 17.9543C33.3571 18.4343 33.9171 18.8716 34.5358 19.2663C35.1544 19.661 35.7784 19.9863 36.4078 20.2423C36.2798 20.349 36.1358 20.493 35.9758 20.6743C35.8158 20.8556 35.6611 21.0423 35.5118 21.2343C35.3731 21.4263 35.2558 21.597 35.1598 21.7463C34.4878 21.4156 33.8318 21.0103 33.1918 20.5303C32.5518 20.0503 31.9598 19.5116 31.4158 18.9143C30.8824 18.3063 30.4184 17.677 30.0238 17.0263L31.6238 16.4343ZM37.7838 11.8423H51.7518V14.5783H49.9278V13.2823H39.5278V14.5783H37.7838V11.8423ZM41.5438 13.5543H43.3198V18.0183H41.5438V13.5543ZM46.1838 13.5543H47.9758V18.0183H46.1838V13.5543ZM39.4158 14.1303H50.1358V15.1703H39.4158V14.1303ZM39.5918 15.8103H50.0238V16.7863H39.5918V15.8103ZM37.6878 17.4103H51.8638V18.7223H37.6878V17.4103ZM41.8478 17.7303L43.2398 18.2903C42.8664 18.7703 42.4131 19.229 41.8798 19.6663C41.3464 20.093 40.7651 20.477 40.1358 20.8183C39.5171 21.1596 38.8878 21.437 38.2478 21.6503C38.1304 21.437 37.9598 21.1916 37.7358 20.9143C37.5118 20.637 37.3038 20.413 37.1118 20.2423C37.7304 20.093 38.3384 19.8956 38.9358 19.6503C39.5438 19.3943 40.0984 19.101 40.5998 18.7703C41.1118 18.4396 41.5278 18.093 41.8478 17.7303ZM47.8478 17.6503C48.1678 17.9916 48.5678 18.317 49.0478 18.6263C49.5278 18.925 50.0558 19.1916 50.6318 19.4263C51.2078 19.6503 51.7944 19.8316 52.3918 19.9703C52.1998 20.141 51.9864 20.3756 51.7518 20.6743C51.5171 20.9623 51.3358 21.2183 51.2078 21.4423C50.5998 21.2503 49.9971 20.989 49.3998 20.6583C48.8131 20.3276 48.2691 19.949 47.7678 19.5223C47.2664 19.0956 46.8344 18.653 46.4718 18.1943L47.8478 17.6503ZM43.6078 11.1543L45.5278 10.6583C45.6664 10.8823 45.7998 11.1436 45.9278 11.4423C46.0664 11.7303 46.1571 11.981 46.1998 12.1943L44.1838 12.7543C44.1518 12.5516 44.0771 12.301 43.9598 12.0023C43.8531 11.693 43.7358 11.4103 43.6078 11.1543ZM40.0878 19.6183H49.7038V23.2823H47.8958V20.9943H41.8318V23.4263H40.0878V19.6183ZM43.9918 21.3463H45.8798C45.7198 22.0183 45.4798 22.605 45.1598 23.1063C44.8398 23.6076 44.3971 24.0343 43.8318 24.3863C43.2664 24.7383 42.5304 25.0316 41.6238 25.2663C40.7171 25.501 39.5811 25.693 38.2158 25.8423C38.1624 25.629 38.0611 25.3783 37.9118 25.0903C37.7731 24.813 37.6291 24.5836 37.4798 24.4023C38.6958 24.3063 39.6984 24.1836 40.4878 24.0343C41.2771 23.8743 41.9064 23.6716 42.3758 23.4263C42.8451 23.181 43.1971 22.893 43.4318 22.5623C43.6771 22.221 43.8638 21.8156 43.9918 21.3463ZM45.0158 23.8103L45.9758 22.6263C46.4558 22.7436 46.9784 22.8823 47.5438 23.0423C48.1091 23.1916 48.6744 23.357 49.2398 23.5383C49.8158 23.709 50.3544 23.885 50.8558 24.0663C51.3678 24.237 51.8051 24.4023 52.1678 24.5623L51.1278 25.9223C50.7864 25.7623 50.3704 25.5863 49.8798 25.3943C49.3891 25.2023 48.8664 25.0103 48.3118 24.8183C47.7571 24.6263 47.1918 24.445 46.6158 24.2743C46.0504 24.093 45.5171 23.9383 45.0158 23.8103ZM53.4958 13.4423H68.0078V15.2663H53.4958V13.4423ZM58.8398 17.3623H64.9678V19.1703H58.8398V17.3623ZM64.2478 17.3623H66.2318C66.2318 17.3623 66.2264 17.4156 66.2158 17.5223C66.2158 17.6183 66.2158 17.7303 66.2158 17.8583C66.2158 17.9863 66.2051 18.0983 66.1838 18.1943C66.0878 19.6556 65.9811 20.8503 65.8638 21.7783C65.7464 22.7063 65.6131 23.4316 65.4638 23.9543C65.3144 24.4663 65.1331 24.8396 64.9198 25.0743C64.6744 25.341 64.4184 25.5223 64.1518 25.6183C63.8851 25.7143 63.5651 25.7836 63.1918 25.8263C62.8824 25.8583 62.4771 25.869 61.9758 25.8583C61.4744 25.8583 60.9571 25.8476 60.4238 25.8263C60.4131 25.549 60.3438 25.229 60.2158 24.8663C60.0878 24.5143 59.9278 24.205 59.7358 23.9383C60.2904 23.9916 60.8238 24.0236 61.3358 24.0343C61.8478 24.045 62.2158 24.0503 62.4398 24.0503C62.6211 24.0503 62.7704 24.0396 62.8878 24.0183C63.0158 23.9863 63.1278 23.9276 63.2238 23.8423C63.3944 23.7036 63.5384 23.3996 63.6558 22.9303C63.7838 22.461 63.8958 21.7943 63.9918 20.9303C64.0878 20.0663 64.1731 18.973 64.2478 17.6503V17.3623ZM58.1198 14.5303H60.2638C60.2211 15.3836 60.1518 16.2476 60.0558 17.1223C59.9704 17.9863 59.8211 18.845 59.6078 19.6983C59.3944 20.541 59.0851 21.3463 58.6798 22.1143C58.2744 22.8823 57.7411 23.597 57.0798 24.2583C56.4184 24.9196 55.5811 25.5063 54.5678 26.0183C54.4291 25.7516 54.2264 25.4636 53.9598 25.1543C53.7038 24.845 53.4531 24.589 53.2078 24.3863C54.1358 23.9596 54.8931 23.4636 55.4798 22.8983C56.0771 22.3223 56.5464 21.7036 56.8878 21.0423C57.2291 20.3703 57.4798 19.6716 57.6398 18.9463C57.8104 18.221 57.9224 17.485 57.9758 16.7383C58.0398 15.9916 58.0878 15.2556 58.1198 14.5303ZM59.6558 10.8023H61.6558V14.1623H59.6558V10.8023ZM80.1678 11.9223L81.4318 10.8663C81.6771 11.0263 81.9331 11.213 82.1998 11.4263C82.4771 11.6396 82.7331 11.853 82.9678 12.0663C83.2131 12.2796 83.4104 12.4716 83.5598 12.6423L82.1998 13.8103C82.0718 13.6183 81.8904 13.4156 81.6558 13.2023C81.4318 12.9783 81.1864 12.7543 80.9198 12.5303C80.6638 12.3063 80.4131 12.1036 80.1678 11.9223ZM69.5598 13.6023H83.9598V15.4743H69.5598V13.6023ZM70.1678 17.2983H77.0958V19.1543H70.1678V17.2983ZM72.5838 18.3543H74.5038V23.7783H72.5838V18.3543ZM69.5598 23.5223C70.1998 23.4156 70.9518 23.293 71.8158 23.1543C72.6904 23.005 73.6131 22.845 74.5838 22.6743C75.5651 22.5036 76.5411 22.3276 77.5118 22.1463L77.6398 23.8583C76.7651 24.0503 75.8798 24.2423 74.9838 24.4343C74.0878 24.6156 73.2238 24.7916 72.3918 24.9623C71.5598 25.1436 70.7918 25.309 70.0878 25.4583L69.5598 23.5223ZM77.4318 10.9303H79.4958C79.4638 12.253 79.4798 13.5436 79.5438 14.8023C79.6184 16.061 79.7358 17.2396 79.8958 18.3383C80.0558 19.437 80.2478 20.4023 80.4718 21.2343C80.6958 22.0663 80.9411 22.717 81.2078 23.1863C81.4851 23.6556 81.7784 23.8903 82.0878 23.8903C82.2691 23.8903 82.4024 23.661 82.4878 23.2023C82.5838 22.7436 82.6531 22.0076 82.6958 20.9943C82.9198 21.2183 83.1864 21.437 83.4958 21.6503C83.8158 21.8636 84.1091 22.0183 84.3758 22.1143C84.2904 23.1276 84.1464 23.9116 83.9438 24.4663C83.7518 25.0103 83.4904 25.3836 83.1598 25.5863C82.8398 25.7996 82.4238 25.9063 81.9118 25.9063C81.3358 25.9063 80.8238 25.709 80.3758 25.3143C79.9278 24.9196 79.5384 24.3756 79.2078 23.6823C78.8771 22.9783 78.5998 22.1516 78.3758 21.2023C78.1518 20.253 77.9704 19.2236 77.8318 18.1143C77.6931 16.9943 77.5918 15.8263 77.5278 14.6103C77.4638 13.3943 77.4318 12.1676 77.4318 10.9303Z" fill="white"/>
<defs>
<linearGradient id="paint0_linear_3961_582" x1="167.5" y1="12" x2="165.552" y2="142.556" gradientUnits="userSpaceOnUse">
<stop/>
<stop offset="1" stop-color="#FF782F"/>
</linearGradient>
</defs>
</svg>
